<?xml version="1.0" encoding="UTF-8"?>
<svg width="700pt" height="700pt" version="1.1" viewBox="0 0 700 700" xmlns="http://www.w3.org/2000/svg" xmlns:xlink="http://www.w3.org/1999/xlink">
 <defs>
  <symbol id="x" overflow="visible">
   <path d="m19.734-1.1875c-1.0117 0.53125-2.0703 0.93359-3.1719 1.2031-1.1055 0.26953-2.2578 0.40625-3.4531 0.40625-3.5859 0-6.4219-1-8.5156-3-2.0859-2-3.125-4.7109-3.125-8.1406 0-3.4375 1.0391-6.1562 3.125-8.1562 2.0938-2 4.9297-3 8.5156-3 1.1953 0 2.3477 0.13672 3.4531 0.40625 1.1016 0.27344 2.1602 0.66797 3.1719 1.1875v4.4531c-1.0234-0.69531-2.0312-1.207-3.0312-1.5312-1-0.33203-2.0547-0.5-3.1562-0.5-1.9688 0-3.5234 0.63672-4.6562 1.9062-1.1367 1.2617-1.7031 3.0078-1.7031 5.2344 0 2.2188 0.56641 3.9648 1.7031 5.2344 1.1328 1.2617 2.6875 1.8906 4.6562 1.8906 1.1016 0 2.1562-0.16016 3.1562-0.48438 1-0.33203 2.0078-0.84766 3.0312-1.5469z"/>
  </symbol>
  <symbol id="b" overflow="visible">
   <path d="m14.453-11.734c-0.46094-0.20703-0.91406-0.35938-1.3594-0.45312-0.4375-0.10156-0.88672-0.15625-1.3438-0.15625-1.3242 0-2.3438 0.42969-3.0625 1.2812-0.71094 0.84375-1.0625 2.0586-1.0625 3.6406v7.4219h-5.1562v-16.109h5.1562v2.6406c0.66406-1.0508 1.4258-1.8164 2.2812-2.2969 0.85156-0.48828 1.8828-0.73438 3.0938-0.73438 0.16406 0 0.34766 0.007812 0.54688 0.015625 0.20703 0.011719 0.50391 0.042969 0.89062 0.09375z"/>
  </symbol>
  <symbol id="a" overflow="visible">
   <path d="m18.562-8.0938v1.4531h-12.047c0.125 1.2109 0.5625 2.1211 1.3125 2.7344 0.75 0.60547 1.7969 0.90625 3.1406 0.90625 1.082 0 2.1914-0.16016 3.3281-0.48438 1.1328-0.32031 2.3008-0.8125 3.5-1.4688v3.9688c-1.2188 0.46875-2.4375 0.82031-3.6562 1.0469-1.2188 0.23828-2.4375 0.35938-3.6562 0.35938-2.918 0-5.1836-0.73828-6.7969-2.2188-1.6172-1.4883-2.4219-3.5703-2.4219-6.25 0-2.625 0.78906-4.6875 2.375-6.1875 1.5938-1.5078 3.7812-2.2656 6.5625-2.2656 2.5312 0 4.5547 0.76562 6.0781 2.2969 1.5195 1.5234 2.2812 3.5586 2.2812 6.1094zm-5.2969-1.7188c0-0.97656-0.28906-1.7656-0.85938-2.3594-0.57422-0.60156-1.3203-0.90625-2.2344-0.90625-1 0-1.8125 0.28125-2.4375 0.84375-0.61719 0.5625-1 1.3711-1.1562 2.4219z"/>
  </symbol>
  <symbol id="f" overflow="visible">
   <path d="m9.7031-7.25c-1.0742 0-1.8867 0.18359-2.4375 0.54688-0.54297 0.36719-0.8125 0.90234-0.8125 1.6094 0 0.65625 0.21875 1.1719 0.65625 1.5469 0.4375 0.36719 1.0469 0.54688 1.8281 0.54688 0.96875 0 1.7812-0.34766 2.4375-1.0469 0.66406-0.69531 1-1.5664 1-2.6094v-0.59375zm7.8594-1.9375v9.1875h-5.1875v-2.3906c-0.6875 0.98047-1.4648 1.6953-2.3281 2.1406-0.86719 0.44531-1.918 0.67188-3.1562 0.67188-1.668 0-3.0234-0.48438-4.0625-1.4531-1.043-0.97656-1.5625-2.2422-1.5625-3.7969 0-1.8945 0.64844-3.2812 1.9531-4.1562 1.3008-0.88281 3.3438-1.3281 6.125-1.3281h3.0312v-0.40625c0-0.8125-0.32422-1.4062-0.96875-1.7812-0.63672-0.38281-1.6367-0.57812-3-0.57812-1.1055 0-2.1328 0.10938-3.0781 0.32812-0.94922 0.21875-1.8359 0.55469-2.6562 1v-3.9375c1.1016-0.26953 2.2109-0.47266 3.3281-0.60938 1.1133-0.13281 2.2266-0.20312 3.3438-0.20312 2.9062 0 5 0.57422 6.2812 1.7188 1.2891 1.1484 1.9375 3.0117 1.9375 5.5938z"/>
  </symbol>
  <symbol id="c" overflow="visible">
   <path d="m8.0938-20.688v4.5781h5.3125v3.6719h-5.3125v6.8438c0 0.75 0.14844 1.2578 0.45312 1.5156 0.30078 0.26172 0.89062 0.39062 1.7656 0.39062h2.6562v3.6875h-4.4219c-2.0312 0-3.4766-0.42188-4.3281-1.2656-0.84375-0.85156-1.2656-2.2969-1.2656-4.3281v-6.8438h-2.5625v-3.6719h2.5625v-4.5781z"/>
  </symbol>
  <symbol id="e" overflow="visible">
   <path d="m13.438-13.75v-8.6406h5.1875v22.391h-5.1875v-2.3281c-0.71094 0.94922-1.4922 1.6484-2.3438 2.0938-0.85547 0.4375-1.8438 0.65625-2.9688 0.65625-1.9805 0-3.6094-0.78516-4.8906-2.3594-1.2734-1.582-1.9062-3.6172-1.9062-6.1094 0-2.4766 0.63281-4.5039 1.9062-6.0781 1.2812-1.582 2.9102-2.375 4.8906-2.375 1.1133 0 2.0977 0.22656 2.9531 0.67188 0.86328 0.4375 1.6484 1.1328 2.3594 2.0781zm-3.3906 10.422c1.1016 0 1.9414-0.39844 2.5156-1.2031 0.58203-0.80078 0.875-1.9727 0.875-3.5156 0-1.5312-0.29297-2.6953-0.875-3.5-0.57422-0.8125-1.4141-1.2188-2.5156-1.2188-1.0938 0-1.9336 0.40625-2.5156 1.2188-0.58594 0.80469-0.875 1.9688-0.875 3.5 0 1.543 0.28906 2.7148 0.875 3.5156 0.58203 0.80469 1.4219 1.2031 2.5156 1.2031z"/>
  </symbol>
  <symbol id="j" overflow="visible">
   <path d="m11.047-3.3281c1.1016 0 1.9453-0.39844 2.5312-1.2031 0.58203-0.80078 0.875-1.9727 0.875-3.5156 0-1.5312-0.29297-2.6953-0.875-3.5-0.58594-0.8125-1.4297-1.2188-2.5312-1.2188-1.1055 0-1.9531 0.40625-2.5469 1.2188-0.58594 0.8125-0.875 1.9805-0.875 3.5 0 1.5312 0.28906 2.7031 0.875 3.5156 0.59375 0.80469 1.4414 1.2031 2.5469 1.2031zm-3.4219-10.422c0.70703-0.94531 1.4922-1.6406 2.3594-2.0781 0.86328-0.44531 1.8594-0.67188 2.9844-0.67188 1.9766 0 3.6016 0.79297 4.875 2.375 1.2812 1.5742 1.9219 3.6016 1.9219 6.0781 0 2.4922-0.64062 4.5273-1.9219 6.1094-1.2734 1.5742-2.8984 2.3594-4.875 2.3594-1.125 0-2.1211-0.22656-2.9844-0.67188-0.86719-0.44531-1.6523-1.1406-2.3594-2.0781v2.3281h-5.1562v-22.391h5.1562z"/>
  </symbol>
  <symbol id="i" overflow="visible">
   <path d="m0.35938-16.109h5.1562l4.3281 10.922 3.6875-10.922h5.1406l-6.7656 17.641c-0.6875 1.7891-1.4844 3.0391-2.3906 3.75-0.90625 0.71875-2.1055 1.0781-3.5938 1.0781h-2.9688v-3.375h1.6094c0.875 0 1.5078-0.14062 1.9062-0.42188 0.39453-0.28125 0.70312-0.78125 0.92188-1.5l0.15625-0.4375z"/>
  </symbol>
  <symbol id="h" overflow="visible">
   <path d="m15.734-3.9062h-8.6562l-1.3594 3.9062h-5.5781l7.9531-21.484h6.6094l7.9531 21.484h-5.5625zm-7.2812-4h5.8906l-2.9375-8.5469z"/>
  </symbol>
  <symbol id="g" overflow="visible">
   <path d="m18.672-9.8125v9.8125h-5.1719v-7.5156c0-1.3828-0.03125-2.3438-0.09375-2.875s-0.17188-0.91406-0.32812-1.1562c-0.19922-0.34375-0.47656-0.60938-0.82812-0.79688-0.34375-0.1875-0.73438-0.28125-1.1719-0.28125-1.0742 0-1.918 0.41797-2.5312 1.25-0.61719 0.83594-0.92188 1.9844-0.92188 3.4531v7.9219h-5.1562v-16.109h5.1562v2.3594c0.78125-0.94531 1.6016-1.6406 2.4688-2.0781 0.875-0.44531 1.8438-0.67188 2.9062-0.67188 1.8516 0 3.2578 0.57422 4.2188 1.7188 0.96875 1.1367 1.4531 2.793 1.4531 4.9688z"/>
  </symbol>
  <symbol id="w" overflow="visible">
   <path d="m15.062-15.609v3.9062c-1.1055-0.45703-2.1719-0.80078-3.2031-1.0312-1.0234-0.22656-1.9844-0.34375-2.8906-0.34375-0.98047 0-1.7109 0.125-2.1875 0.375-0.46875 0.24219-0.70312 0.61719-0.70312 1.125 0 0.40625 0.17578 0.72656 0.53125 0.95312 0.36328 0.21875 1.0078 0.38281 1.9375 0.48438l0.90625 0.125c2.6328 0.33594 4.4062 0.88672 5.3125 1.6562 0.91406 0.77344 1.375 1.9766 1.375 3.6094 0 1.7188-0.63672 3.0117-1.9062 3.875-1.2617 0.86719-3.1484 1.2969-5.6562 1.2969-1.0625 0-2.168-0.089844-3.3125-0.26562-1.1367-0.16406-2.3047-0.41406-3.5-0.75v-3.9062c1.0312 0.5 2.082 0.875 3.1562 1.125 1.082 0.25 2.1797 0.375 3.2969 0.375 1.0078 0 1.7656-0.14062 2.2656-0.42188 0.50781-0.28125 0.76562-0.69141 0.76562-1.2344 0-0.46875-0.17969-0.8125-0.53125-1.0312-0.34375-0.22656-1.0391-0.40625-2.0781-0.53125l-0.90625-0.10938c-2.3047-0.28906-3.9141-0.82031-4.8281-1.5938-0.91797-0.78125-1.375-1.9609-1.375-3.5469 0-1.707 0.58203-2.9727 1.75-3.7969 1.1641-0.82031 2.957-1.2344 5.375-1.2344 0.95703 0 1.957 0.074219 3 0.21875 1.0391 0.13672 2.1758 0.35938 3.4062 0.67188z"/>
  </symbol>
  <symbol id="v" overflow="visible">
   <path d="m0.14062-21.484h5.5781l5.6875 15.859 5.6875-15.859h5.5625l-7.9531 21.484h-6.6094z"/>
  </symbol>
  <symbol id="u" overflow="visible">
   <path d="m10.141-12.828c-1.1367 0-2.0078 0.41406-2.6094 1.2344-0.59375 0.82422-0.89062 2.0078-0.89062 3.5469 0 1.543 0.29688 2.7266 0.89062 3.5469 0.60156 0.82422 1.4727 1.2344 2.6094 1.2344 1.125 0 1.9844-0.41016 2.5781-1.2344 0.59375-0.82031 0.89062-2.0039 0.89062-3.5469 0-1.5391-0.29688-2.7227-0.89062-3.5469-0.59375-0.82031-1.4531-1.2344-2.5781-1.2344zm0-3.6719c2.7695 0 4.9375 0.75 6.5 2.25 1.5625 1.4922 2.3438 3.5586 2.3438 6.2031 0 2.6484-0.78125 4.7188-2.3438 6.2188s-3.7305 2.25-6.5 2.25c-2.7812 0-4.9609-0.75-6.5312-2.25-1.5625-1.5-2.3438-3.5703-2.3438-6.2188 0-2.6445 0.78125-4.7109 2.3438-6.2031 1.5703-1.5 3.75-2.25 6.5312-2.25zm-4.5781-6.3125h3.3906v3.5469h-3.3906zm5.6875 0h3.3906v3.5469h-3.3906z"/>
  </symbol>
  <symbol id="t" overflow="visible">
   <path d="m13.438-2.7344c-0.71094 0.9375-1.4922 1.6328-2.3438 2.0781-0.85547 0.4375-1.8438 0.65625-2.9688 0.65625-1.9609 0-3.5859-0.76953-4.875-2.3125-1.2812-1.5508-1.9219-3.5312-1.9219-5.9375s0.64062-4.375 1.9219-5.9062c1.2891-1.5391 2.9141-2.3125 4.875-2.3125 1.125 0 2.1133 0.21875 2.9688 0.65625 0.85156 0.4375 1.6328 1.1328 2.3438 2.0781v-2.375h5.1875v14.484c0 2.5938-0.82031 4.5703-2.4531 5.9375-1.6367 1.3633-4.0117 2.0469-7.125 2.0469-1 0-1.9766-0.078125-2.9219-0.23438-0.9375-0.14844-1.8828-0.38281-2.8281-0.70312v-4.0156c0.89453 0.51953 1.7734 0.90625 2.6406 1.1562 0.86328 0.25781 1.7344 0.39062 2.6094 0.39062 1.6875 0 2.9219-0.37109 3.7031-1.1094 0.78906-0.74219 1.1875-1.8945 1.1875-3.4688zm-3.3906-10.031c-1.0625 0-1.8984 0.39844-2.5 1.1875-0.59375 0.78125-0.89062 1.8906-0.89062 3.3281 0 1.4805 0.28516 2.6055 0.85938 3.375 0.58203 0.76172 1.4258 1.1406 2.5312 1.1406 1.0703 0 1.9062-0.39062 2.5-1.1719 0.59375-0.78906 0.89062-1.9062 0.89062-3.3438s-0.29688-2.5469-0.89062-3.3281c-0.59375-0.78906-1.4297-1.1875-2.5-1.1875z"/>
  </symbol>
  <symbol id="s" overflow="visible">
   <path d="m2.4688-22.391h5.1562v22.391h-5.1562z"/>
  </symbol>
  <symbol id="r" overflow="visible">
   <path d="m13.078-22.391v3.375h-2.8438c-0.73047 0-1.2422 0.13672-1.5312 0.40625-0.28125 0.26172-0.42188 0.71875-0.42188 1.375v1.125h4.3906v3.6719h-4.3906v12.438h-5.1562v-12.438h-2.5625v-3.6719h2.5625v-1.125c0-1.7578 0.48828-3.0547 1.4688-3.8906 0.97656-0.84375 2.4922-1.2656 4.5469-1.2656z"/>
  </symbol>
  <symbol id="d" overflow="visible">
   <path d="m10.141-12.828c-1.1367 0-2.0078 0.41406-2.6094 1.2344-0.59375 0.82422-0.89062 2.0078-0.89062 3.5469 0 1.543 0.29688 2.7266 0.89062 3.5469 0.60156 0.82422 1.4727 1.2344 2.6094 1.2344 1.125 0 1.9844-0.41016 2.5781-1.2344 0.59375-0.82031 0.89062-2.0039 0.89062-3.5469 0-1.5391-0.29688-2.7227-0.89062-3.5469-0.59375-0.82031-1.4531-1.2344-2.5781-1.2344zm0-3.6719c2.7695 0 4.9375 0.75 6.5 2.25 1.5625 1.4922 2.3438 3.5586 2.3438 6.2031 0 2.6484-0.78125 4.7188-2.3438 6.2188s-3.7305 2.25-6.5 2.25c-2.7812 0-4.9609-0.75-6.5312-2.25-1.5625-1.5-2.3438-3.5703-2.3438-6.2188 0-2.6445 0.78125-4.7109 2.3438-6.2031 1.5703-1.5 3.75-2.25 6.5312-2.25z"/>
  </symbol>
  <symbol id="q" overflow="visible">
   <path d="m17.406-13.438c0.65625-1 1.4297-1.7578 2.3281-2.2812 0.89453-0.51953 1.8789-0.78125 2.9531-0.78125 1.8516 0 3.2656 0.57422 4.2344 1.7188 0.96875 1.1367 1.4531 2.793 1.4531 4.9688v9.8125h-5.1875v-8.4062c0.007812-0.125 0.015625-0.25391 0.015625-0.39062 0.007813-0.13281 0.015625-0.32812 0.015625-0.57812 0-1.1328-0.16797-1.957-0.5-2.4688-0.33594-0.51953-0.875-0.78125-1.625-0.78125-0.98047 0-1.7344 0.40625-2.2656 1.2188-0.53125 0.80469-0.80859 1.9688-0.82812 3.5v7.9062h-5.1719v-8.4062c0-1.7812-0.15625-2.9258-0.46875-3.4375-0.30469-0.51953-0.85156-0.78125-1.6406-0.78125-0.99219 0-1.7578 0.40625-2.2969 1.2188-0.53125 0.8125-0.79688 1.9766-0.79688 3.4844v7.9219h-5.1719v-16.109h5.1719v2.3594c0.63281-0.91406 1.3594-1.6016 2.1719-2.0625 0.82031-0.45703 1.7266-0.6875 2.7188-0.6875 1.1133 0 2.0977 0.27344 2.9531 0.8125 0.85156 0.53125 1.5 1.2812 1.9375 2.25z"/>
  </symbol>
  <symbol id="p" overflow="visible">
   <path d="m18.672-9.8125v9.8125h-5.1719v-7.4844c0-1.4062-0.03125-2.375-0.09375-2.9062s-0.17188-0.91406-0.32812-1.1562c-0.19922-0.34375-0.47656-0.60938-0.82812-0.79688-0.34375-0.1875-0.73438-0.28125-1.1719-0.28125-1.0742 0-1.918 0.41797-2.5312 1.25-0.61719 0.83594-0.92188 1.9844-0.92188 3.4531v7.9219h-5.1562v-22.391h5.1562v8.6406c0.78125-0.94531 1.6016-1.6406 2.4688-2.0781 0.875-0.44531 1.8438-0.67188 2.9062-0.67188 1.8516 0 3.2578 0.57422 4.2188 1.7188 0.96875 1.1367 1.4531 2.793 1.4531 4.9688z"/>
  </symbol>
  <symbol id="o" overflow="visible">
   <path d="m2.7031-21.484h6.1875l7.8125 14.734v-14.734h5.25v21.484h-6.1875l-7.8125-14.734v14.734h-5.25z"/>
  </symbol>
  <symbol id="n" overflow="visible">
   <path d="m2.2969-6.2812v-9.8281h5.1875v1.6094c0 0.875-0.007813 1.9766-0.015625 3.2969-0.011719 1.3125-0.015625 2.1875-0.015625 2.625 0 1.293 0.03125 2.2266 0.09375 2.7969 0.070313 0.57422 0.19141 0.99219 0.35938 1.25 0.20703 0.33594 0.47656 0.59375 0.8125 0.78125 0.34375 0.17969 0.73828 0.26562 1.1875 0.26562 1.0703 0 1.9141-0.41016 2.5312-1.2344 0.61328-0.82031 0.92188-1.9688 0.92188-3.4375v-7.9531h5.1406v16.109h-5.1406v-2.3281c-0.78125 0.9375-1.6094 1.6328-2.4844 2.0781-0.86719 0.44531-1.8203 0.67188-2.8594 0.67188-1.8672 0-3.2891-0.56641-4.2656-1.7031-0.96875-1.1445-1.4531-2.8125-1.4531-5z"/>
  </symbol>
  <symbol id="m" overflow="visible">
   <path d="m2.7031-21.484h9.2031c2.7266 0 4.8203 0.60938 6.2812 1.8281 1.4688 1.2109 2.2031 2.9375 2.2031 5.1875s-0.73438 3.9844-2.2031 5.2031c-1.4609 1.2109-3.5547 1.8125-6.2812 1.8125h-3.6562v7.4531h-5.5469zm5.5469 4.0156v6h3.0625c1.0703 0 1.8984-0.25781 2.4844-0.78125 0.58203-0.51953 0.875-1.2578 0.875-2.2188 0-0.96875-0.29297-1.707-0.875-2.2188-0.58594-0.51953-1.4141-0.78125-2.4844-0.78125z"/>
  </symbol>
  <symbol id="l" overflow="visible">
   <path d="m2.4688-16.109h5.1562v15.828c0 2.1562-0.52344 3.8008-1.5625 4.9375-1.0312 1.1328-2.5312 1.7031-4.5 1.7031h-2.5469v-3.375h0.89062c0.97656 0 1.6484-0.22656 2.0156-0.67188 0.36328-0.4375 0.54688-1.3047 0.54688-2.5938zm0-6.2812h5.1562v4.2031h-5.1562z"/>
  </symbol>
  <symbol id="k" overflow="visible">
   <path d="m15.5-15.609v4.2031c-0.69922-0.47656-1.4023-0.83203-2.1094-1.0625-0.71094-0.23828-1.4453-0.35938-2.2031-0.35938-1.4375 0-2.5586 0.42188-3.3594 1.2656-0.79297 0.84375-1.1875 2.0156-1.1875 3.5156 0 1.5117 0.39453 2.6875 1.1875 3.5312 0.80078 0.83594 1.9219 1.25 3.3594 1.25 0.8125 0 1.5781-0.11719 2.2969-0.35938 0.72656-0.23828 1.3984-0.59375 2.0156-1.0625v4.2188c-0.8125 0.29297-1.6367 0.50781-2.4688 0.65625-0.82422 0.15625-1.6523 0.23438-2.4844 0.23438-2.9062 0-5.1836-0.74219-6.8281-2.2344-1.6367-1.5-2.4531-3.5781-2.4531-6.2344s0.81641-4.7266 2.4531-6.2188c1.6445-1.4883 3.9219-2.2344 6.8281-2.2344 0.84375 0 1.6758 0.074219 2.5 0.21875 0.82031 0.14844 1.6406 0.37109 2.4531 0.67188z"/>
  </symbol>
 </defs>
 <g>
  <path d="m256.67 351.73 0.94922 0.44922 0.85938 0.61328 0.73438 0.75391 0.59375 0.87109 0.42188 0.96484 0.24219 1.0273 0.1875 1.2344 0.18359 1.2109 0.18359 1.2031 0.19531 1.1875 0.19531 1.1836 0.19922 1.1641 0.20703 1.1602 0.20703 1.1484 0.21484 1.1328 0.21875 1.1289 0.21484 1.1133 0.23047 1.1055 0.22656 1.0898 0.23438 1.082 0.23828 1.0703 0.23828 1.0625 0.25 1.0469 0.24609 1.0391 0.25 1.0273 0.26172 1.0117 0.26172 1.0078 0.26562 0.99219 0.26563 0.98828 0.27344 0.96875 0.27734 0.96094 0.27734 0.94922 0.28516 0.94531 0.28906 0.92578 0.29297 0.91797 0.29297 0.90234 0.30469 0.89453 0.30078 0.88672 0.30469 0.875 0.31641 0.86328 0.3125 0.85156 0.31641 0.83594 0.32422 0.82812 0.32422 0.82031 0.33203 0.80859 0.33203 0.79688 0.33594 0.78516 0.33984 0.76953 0.34375 0.76562 0.34375 0.75391 0.34766 0.73438 0.35938 0.73438 0.35156 0.71484 0.36328 0.71094 0.36328 0.69531 0.36719 0.67969 0.37109 0.67969 0.375 0.66016 0.37109 0.65234 0.38281 0.64453 0.38281 0.62891 0.38672 0.61719 0.39062 0.60938 0.38672 0.60156 0.39844 0.58594 0.39453 0.57422 0.40234 0.5625 0.40625 0.55469 0.40625 0.54688 0.39453 0.51562 0.60938 0.75781 0.62891 0.76953 0.62891 0.75391 0.63281 0.75 0.63672 0.73047 0.63672 0.72266 0.64844 0.71094 0.64453 0.69922 0.64453 0.6875 0.65625 0.67188 0.65234 0.66797 0.66016 0.64844 0.65625 0.64062 0.66797 0.62891 0.66406 0.61719 0.67188 0.60938 0.67578 0.59766 0.67188 0.58203 0.68359 0.57812 0.67578 0.55859 0.6875 0.55078 0.69141 0.53906 0.6875 0.52344 0.69531 0.51953 0.69922 0.50781 0.69922 0.49219 0.70313 0.48828 0.70703 0.46875 0.70703 0.46094 0.71875 0.45312 0.71484 0.4375 0.71484 0.43359 0.72656 0.41797 0.72266 0.40625 0.73047 0.39453 0.73047 0.38672 0.73828 0.37891 0.73828 0.36328 0.74219 0.35156 0.74219 0.34766 0.75391 0.33203 0.75 0.32031 0.75781 0.3125 0.75781 0.30078 0.76563 0.29297 0.76562 0.28125 0.76953 0.26953 0.77344 0.25391 0.78125 0.25 0.78125 0.23828 0.78516 0.23047 0.78906 0.22266 0.79688 0.20312 0.79688 0.19531 0.80078 0.18359 0.80469 0.17969 0.097656 0.015625v-146.97l-0.17969-0.039063-1-0.22266-0.99609-0.22656-0.99609-0.23438-1.0039-0.24219-1-0.24609-0.99609-0.25391-1.0039-0.25391-0.99609-0.26563-2.0078-0.54687-1-0.28516-1.0039-0.28516-1.0039-0.29688-1.0039-0.30078-1.0039-0.30859-1-0.3125-1.0039-0.31641-1.0078-0.32422-1.0117-0.33203-1-0.33984-1.0117-0.34375-1.0078-0.34766-1.0078-0.35547-1.0078-0.36328-1.0078-0.37109-1.0078-0.36719-1.0117-0.37891-1.0078-0.39062-1.0117-0.39062-1.0078-0.39453-1.0156-0.40625-1.0156-0.41016-1.0078-0.41406-1.0117-0.42578-1.0156-0.42578-1.0117-0.43359-1.0156-0.44141-1.0195-0.44531-1.0156-0.44922-1.0117-0.46094-1.0195-0.46094-1.0156-0.47266-1.0195-0.47656-1.0195-0.48047-1.0156-0.48828-1.0195-0.49219-1.0195-0.5-1.0195-0.50391-2.0391-1.0312-1.0273-0.52734-1.0195-0.53125-1.0234-0.53125-1.0195-0.53906-1.0234-0.55078-1.0273-0.55859-1.0234-0.55859-1.0234-0.5625-1.0273-0.57422-0.77344-0.43359-0.77734-0.44922-0.77344-0.45312-0.76562-0.45312-0.76172-0.46875-0.76172-0.46484-0.74609-0.47656-0.75-0.47656-0.73828-0.48828-0.73438-0.49219-0.73438-0.49609-0.71875-0.50391-0.72266-0.50391-1.4219-1.0312-0.70312-0.52344-0.69531-0.52734-0.69141-0.53516-1.3672-1.0859-0.67188-0.55469-0.67188-0.55078-0.66406-0.5625-0.66016-0.57031-0.65234-0.57031-0.64844-0.57812-0.64062-0.58594-0.63281-0.58594-0.63672-0.59766-0.62109-0.59766-0.62109-0.60547-0.61328-0.60938-0.60547-0.61719-0.60156-0.62109-0.59766-0.625-0.58984-0.63281-0.58594-0.63672-0.58203-0.64453-0.57422-0.64453-1.1328-1.3125-0.55078-0.66016-0.55469-0.67578-0.54297-0.67187-0.54297-0.67578-0.53125-0.6875-0.53125-0.69141-0.51953-0.69141-0.51562-0.69922-0.50781-0.70703-0.50391-0.71094-0.5-0.71484-0.49219-0.72266-0.48828-0.72656-0.48438-0.73047-0.47656-0.73828-0.46484-0.73828-0.46875-0.74609-0.45312-0.75391-0.45703-0.75391-0.44531-0.76562-0.44141-0.76172-0.43359-0.76953-0.42969-0.78125-0.42188-0.78125-0.41797-0.78125-0.40625-0.78516-0.80469-1.5859-0.38281-0.79688-0.38672-0.80078-0.375-0.80469-0.36719-0.80469-0.36328-0.80859-0.35938-0.8125-0.35156-0.82031-0.33984-0.82031-0.33594-0.82422-0.32812-0.82422-0.32422-0.82812-0.3125-0.83594-0.3125-0.83203-0.30078-0.84375-0.30078-0.83984-0.28516-0.84375-0.28125-0.84766-0.27734-0.85156-0.27344-0.85547-0.25781-0.85547-0.25391-0.86328-0.25-0.86328-0.24609-0.86719-0.23047-0.87109-0.23438-0.875-0.21875-0.87109-0.21484-0.87891-0.21094-0.88281-0.20312-0.88672-0.19531-0.88672-0.1875-0.89453-0.35938-1.7891-0.16797-0.90234-0.16406-0.90625-0.15625-0.90234-0.14453-0.90625-0.14062-0.91797-0.13672-0.91016-0.12891-0.92188-0.12109-0.92188-0.11719-0.92188-0.10937-0.92578-0.10547-0.92969-0.089844-0.92969-0.09375-0.9375-0.082031-0.94141-0.074219-0.94141-0.070313-0.94531-0.058593-0.94141-0.054688-0.95312-0.054687-0.94922-0.039063-0.96094-0.039062-0.95312-0.03125-0.96484-0.019531-0.96094-0.019532-0.97266-0.007812-0.96875v-1.832l0.007812-0.86328 0.011719-0.85547 0.015625-0.85547 0.023438-0.85156 0.027343-0.85156 0.027344-0.84766 0.039063-0.85156 0.085937-1.6797 0.046875-0.83984 0.054688-0.83984 0.058593-0.83594 0.066407-0.82812 0.070312-0.83203 0.078125-0.82813 0.078125-0.82422 0.082031-0.82422 0.09375-0.82031 0.089844-0.81641 0.097656-0.82031 0.21094-1.625 0.23438-1.6172 0.12109-0.80078 0.12891-0.80469 0.12891-0.80078 0.28125-1.5938 0.14844-0.79297 0.15234-0.79297 0.15625-0.78516 0.16406-0.78516 0.16797-0.78516 0.16797-0.78125 0.17969-0.77734 0.17578-0.77344 0.19141-0.77734 0.19141-0.76953 0.19531-0.76953 0.19922-0.76953 0.20703-0.76562 0.21094-0.75781 0.21484-0.75781 0.21875-0.76172 0.45312-1.5078 0.23828-0.74609 0.24219-0.75 0.24219-0.74219 0.25-0.74219 0.25391-0.74219 0.26172-0.73828 0.26563-0.73047 0.26562-0.73438 0.27734-0.73047 0.27344-0.72656 0.28906-0.72656 0.28516-0.72266 0.29297-0.71875 0.30078-0.71875 0.30078-0.71484 0.625-1.4219 0.64062-1.4141 0.33203-0.69922 0.32812-0.69922 0.34375-0.69922 0.33984-0.69531 0.34766-0.6875 0.35156-0.6875 0.35937-0.6875 0.72656-1.3672 0.375-0.67969 0.37109-0.67578 0.38672-0.67187 0.38281-0.67578 0.39062-0.66406 0.39844-0.66797 0.39844-0.66016 0.41016-0.66406 0.41016-0.65625 0.41406-0.65625 0.42188-0.64844 0.42188-0.65234 0.86719-1.2891 0.44141-0.64453 0.44141-0.64062 0.45312-0.63281 0.44922-0.63672 0.92188-1.2578 0.47266-0.62109 0.46875-0.625 0.47656-0.625 0.48438-0.61328 0.48828-0.61719 0.49219-0.61328 0.49609-0.60547 0.50391-0.60938 0.50391-0.60156 0.50781-0.60156 0.51953-0.59375 0.52344-0.59766 0.51953-0.59766 0.53125-0.58594 0.53516-0.58984 0.53906-0.57812 0.54688-0.58594 0.54688-0.58203 0.55469-0.57422 0.55859-0.57422 0.55859-0.57031 0.56641-0.57031 0.57812-0.5625 0.57422-0.5625 0.57812-0.55859 0.58594-0.55859 0.58984-0.55469 0.59766-0.55078 0.60156-0.55078 0.60156-0.54687 0.61328-0.54297 0.61328-0.53906 0.83984-0.72656 0.86719-0.73438 0.87891-0.71875 0.89062-0.71094 0.89844-0.70703 0.91797-0.6875 0.92187-0.68359 0.9375-0.67188 0.94922-0.66797 0.96484-0.64844 0.96875-0.64453 0.98828-0.63672 0.99609-0.62891 1.0078-0.61328 1.0195-0.60547 1.0312-0.59766 1.0469-0.58984 1.0508-0.57422 1.0703-0.57031 1.0781-0.55859 1.0898-0.55469 1.1016-0.53906 1.1094-0.53125 1.1289-0.52344 1.1328-0.50781 1.1484-0.50391 1.1602-0.49609 1.168-0.48438 1.1797-0.47266 1.1953-0.46875 1.207-0.46094 1.2148-0.44141 1.2266-0.44141 1.2344-0.42969 1.2539-0.42188 1.2617-0.41016 1.2695-0.40234 1.2852-0.39453 1.2969-0.37891 1.3047-0.38281 1.3203-0.36328 1.3281-0.35547 1.3398-0.34766 1.3555-0.34375 1.3594-0.32812 1.3789-0.32031 1.3828-0.31641 1.3984-0.30078 1.4102-0.29297 1.418-0.28906 1.4336-0.27734 1.4414-0.26953 1.4531-0.26172 1.4648-0.25 1.4727-0.23828 1.4922-0.23828 1.4961-0.22266 1.5117-0.21484 1.5234-0.20703 1.5352-0.19922 0.94531-0.11328v-18.539l0.085937-1.0234 0.26563-0.99219 0.43359-0.93359 0.58984-0.83984 0.72656-0.72656 0.83984-0.59375 0.93359-0.43359 0.99219-0.26562 1.0234-0.085938h29.352l1.0234 0.085938 0.99219 0.26562 0.93359 0.43359 0.83984 0.59375 0.72656 0.72656 0.58984 0.83984 0.43359 0.93359 0.26562 0.99219 0.09375 1.0234v18.527l0.19141 0.019531 1.3594 0.17578 1.3516 0.17969 1.3438 0.1875 1.332 0.20312 1.3281 0.20312 1.3203 0.21875 1.3125 0.22656 1.3008 0.23438 1.2969 0.24219 1.2812 0.25 1.2773 0.26562 1.2656 0.26562 1.2656 0.28125 1.2539 0.28906 1.2383 0.29297 1.2383 0.30469 1.2266 0.3125 1.2188 0.32422 1.207 0.33203 1.1992 0.34375 1.1992 0.35156 1.1797 0.35547 1.1797 0.37109 1.1641 0.375 1.1602 0.38281 1.1562 0.39453 1.1367 0.40625 1.1328 0.41406 1.1289 0.42188 1.1172 0.42969 1.1133 0.4375 1.0938 0.45312 1.0938 0.46094 1.082 0.46484 1.0781 0.47656 1.0625 0.48437 1.0586 0.49609 1.0508 0.50391 1.0352 0.51172 1.0352 0.51953 1.0195 0.53906 1.0156 0.53516 1.0078 0.55469 0.99219 0.55469 0.99219 0.57031 0.97656 0.57422 0.96875 0.58594 0.96094 0.59766 0.95312 0.60547 0.94531 0.61328 0.92969 0.625 0.92969 0.63281 0.91406 0.64062 0.90625 0.65234 0.89844 0.66016 0.89063 0.66797 0.88281 0.67578 0.86719 0.6875 0.86328 0.69531 0.84766 0.69922 1.0625 0.89453 1.0508 0.90625 1.0469 0.92188 1.0234 0.92578 1.0195 0.94531 1.0039 0.94922 0.98828 0.96484 0.98047 0.96875 0.96094 0.98828 0.95312 0.99219 0.93359 1.0039 0.92578 1.0195 0.91016 1.0234 0.89453 1.0352 0.88281 1.0469 0.875 1.0586 0.85547 1.0664 0.84766 1.0781 0.82812 1.0898 0.8125 1.0977 0.80859 1.1094 0.78516 1.125 0.77734 1.125 0.76562 1.1406 0.74609 1.1523 0.73828 1.1641 0.71875 1.168 0.71094 1.1836 0.69531 1.1875 0.68359 1.2031 0.66797 1.2148 0.65625 1.2188 0.63672 1.2305 0.62891 1.2422 0.61328 1.2539 0.59766 1.2578 0.58594 1.2734 0.57422 1.2812 0.55859 1.2891 0.54688 1.3008 0.53125 1.3125 0.51562 1.3242 0.50781 1.3281 0.48828 1.3398 0.48047 1.3477 0.46484 1.3555 0.44922 1.3711 0.43359 1.3789 0.42188 1.3867 0.41406 1.3984 0.39453 1.4062 0.38672 1.4141 0.36719 1.4258 0.35938 1.4375 0.33984 1.4492 0.32812 1.4531 0.31641 1.4609 0.30078 1.4766 0.28516 1.4805 0.27734 1.4922 0.26562 1.5 0.24609 1.5117 0.23828 1.5195 0.21484 1.5039 0.058594 1.0234-0.11719 1.0117-0.29297 0.98438-0.46094 0.91406-0.61328 0.82422-0.74219 0.70703-0.85156 0.5625-0.9375 0.40625-0.99609 0.24609-51.504 7.7539-1.0273 0.058593-1.0195-0.11328-0.98047-0.28906-0.92188-0.45703-0.82422-0.60547-0.71094-0.74219-0.57031-0.85156-0.41016-0.9375-0.24219-1-0.13672-0.89453-0.14062-0.87109-0.14062-0.86328-0.15234-0.85547-0.15234-0.85156-0.15625-0.84766-0.32812-1.6641-0.17188-0.81641-0.17187-0.8125-0.17969-0.80859-0.17969-0.80469-0.19141-0.78906-0.1875-0.78906-0.19531-0.77344-0.20312-0.77734-0.20312-0.76172-0.20703-0.75391-0.21094-0.75391-0.21875-0.74219-0.22266-0.73438-0.22656-0.73047-0.22656-0.72266-0.23438-0.71484-0.23828-0.70312-0.23828-0.69922-0.24609-0.69531-0.24609-0.68359-0.25781-0.68359-0.25781-0.66797-0.26172-0.66406-0.26562-0.65625-0.26953-0.65234-0.27344-0.64453-0.27344-0.63281-0.28516-0.63281-0.28516-0.62109-0.28906-0.61328-0.29297-0.61328-0.29688-0.59766-0.30469-0.59375-0.30469-0.58594-0.30859-0.58203-0.30859-0.57422-0.64062-1.125-0.31641-0.55078-0.33203-0.54688-0.33203-0.53516-0.33594-0.53125-0.33594-0.52734-0.34766-0.51953-0.33984-0.51172-0.35156-0.50391-0.71094-0.99219-0.36328-0.48047-0.36328-0.47656-0.37109-0.47266-0.37109-0.46875-0.38281-0.46094-0.37891-0.44922-0.37891-0.44531-0.39062-0.4375-0.39453-0.4375-0.40234-0.43359-0.40234-0.42969-0.41016-0.42188-0.82812-0.83594-0.85156-0.8125-0.43359-0.40234-0.43359-0.39063-0.44531-0.39453-0.44531-0.38672-0.44922-0.37891-0.45703-0.37891-0.46094-0.375-0.46484-0.36328-0.46875-0.36328-0.47656-0.36328-0.47656-0.35156-0.48047-0.35156-0.49609-0.34375-0.49219-0.33984-0.5-0.33594-0.49609-0.33203-0.51172-0.33203-1.0312-0.64063-0.52344-0.3125-0.52734-0.30859-0.53516-0.30469-0.53906-0.29688-0.54297-0.30078-0.54688-0.29297-0.55078-0.28516-0.56641-0.28125-1.125-0.55469-1.1562-0.53125-0.58594-0.25781-0.58984-0.25781-0.59766-0.25-0.59766-0.24609-0.60547-0.24219-0.61328-0.23828-0.61328-0.23047-0.62109-0.23047-1.2578-0.4375-0.64063-0.21875-0.64062-0.21094-0.65234-0.20312-0.64844-0.19531-0.47266-0.14062v131.59l0.15625 0.042969 2.2461 0.57031 2.1914 0.5625 2.1406 0.55469 2.0938 0.54688 2.043 0.54297 1.9961 0.53125 1.9414 0.51953 1.8984 0.51562 1.8477 0.50781 1.8008 0.5 1.7461 0.49219 1.7031 0.48438 1.6523 0.47656 1.6055 0.46484 1.5508 0.46875 1.5078 0.44922 1.457 0.44922 1.4141 0.43359 1.3633 0.43359 1.3164 0.42188 1.2617 0.41797 1.2266 0.41406 1.1719 0.40234 1.1289 0.39453 1.082 0.39062 1.0352 0.38281 0.99219 0.38281 0.94922 0.37109 0.90234 0.37109 0.87891 0.36719 1.5156 0.67969 1.4805 0.67578 1.4648 0.6875 1.4492 0.69531 1.4297 0.70312 1.4102 0.71875 1.3984 0.71875 1.3828 0.73828 1.3672 0.74219 1.3477 0.75391 1.3359 0.76172 1.3125 0.77344 1.3008 0.78125 1.2852 0.79297 1.2695 0.80078 1.2461 0.8125 1.2344 0.82031 1.2227 0.82812 1.1953 0.83984 1.1875 0.85156 1.168 0.86328 1.1523 0.87109 1.1367 0.87891 1.1133 0.89062 1.1016 0.89844 1.0859 0.91016 1.0664 0.92187 1.0547 0.92969 1.0273 0.93359 0.51562 0.48047 0.51172 0.47656 0.49609 0.47656 0.5 0.48437 0.49219 0.48047 0.5 0.49609 0.96094 0.96875 0.94922 0.99219 0.9375 1 0.92188 1.0117 0.91016 1.0273 0.89453 1.0352 0.88281 1.0469 0.86719 1.0547 0.85156 1.0742 0.83984 1.0781 0.82422 1.0977 0.81641 1.1055 0.79688 1.1094 0.77734 1.1289 0.77344 1.1406 0.75 1.1484 0.73828 1.1602 0.72656 1.1719 0.71094 1.1875 0.69922 1.1914 0.68359 1.2031 0.66797 1.2148 0.65625 1.2305 0.64063 1.2383 0.62109 1.2461 0.61328 1.2617 0.59766 1.2695 0.58594 1.2812 0.56641 1.293 0.55469 1.3047 0.54297 1.3086 0.52344 1.3242 0.51172 1.3359 0.5 1.3438 0.47656 1.3438 0.46094 1.3555 0.44922 1.3594 0.42969 1.3672 0.41016 1.3789 0.40234 1.3828 0.37891 1.3867 0.36328 1.3945 0.34766 1.3984 0.33594 1.4023 0.3125 1.418 0.30078 1.418 0.28516 1.4258 0.26562 1.4336 0.25 1.4375 0.23438 1.4453 0.22266 1.4492 0.19922 1.457 0.18359 1.4648 0.16797 1.4688 0.15625 1.4766 0.13672 1.4805 0.12109 1.4883 0.10156 1.4922 0.09375 1.5039 0.070313 1.5039 0.058594 1.5156 0.039062 1.5156 0.019531 1.5234 0.011719 1.5312-0.011719 1.668-0.019531 1.668-0.042969 1.6562-0.0625 1.6484-0.074218 1.6445-0.09375 1.6328-0.10547 1.625-0.125 1.6211-0.14062 1.6094-0.16016 1.6016-0.17969 1.5938-0.1875 1.5898-0.21094 1.5742-0.23047 1.5742-0.24219 1.5625-0.26172 1.5547-0.27344 1.5469-0.29297 1.5391-0.31641 1.5273-0.32422 1.5234-0.34766 1.5156-0.36328 1.5039-0.375 1.4922-0.19922 0.75391-0.19922 0.74219-0.20703 0.74219-0.20703 0.73828-0.21484 0.73828-0.21875 0.73828-0.21875 0.73047-0.22656 0.73438-0.23438 0.73047-0.23047 0.72656-0.23828 0.72656-0.24609 0.72266-0.24219 0.71875-0.25391 0.72266-0.51562 1.4297-0.26172 0.71094-0.26953 0.71094-0.27344 0.71094-0.27734 0.70312-0.28125 0.70703-0.28516 0.69922-0.28906 0.69922-0.29297 0.69922-0.29687 0.69141-0.30469 0.69531-0.30859 0.6875-0.30859 0.69141-0.31641 0.6875-0.31641 0.68359-0.32812 0.68359-0.32422 0.68359-0.33594 0.67578-0.33594 0.67188-0.33594 0.67969-0.34766 0.66406-0.34766 0.67578-0.35938 0.66406-0.35156 0.66406-0.36328 0.66406-0.36719 0.65625-0.37109 0.66406-0.37109 0.65625-0.37891 0.64844-0.38281 0.65625-0.39062 0.64453-0.38672 0.65234-0.39844 0.64453-0.40234 0.64062-0.39844 0.64062-0.40625 0.63672-0.41406 0.63672-0.41797 0.63281-0.84375 1.2578-0.42969 0.62891-0.43359 0.625-0.4375 0.625-0.44141 0.61719-0.44922 0.61719-0.89844 1.2266-0.46094 0.61328-0.46094 0.60547-0.46875 0.60547-0.47266 0.60938-0.46875 0.59766-0.48438 0.60156-0.48047 0.59375-0.48828 0.59766-0.48828 0.58984-0.50391 0.59766-1 1.1641-1.0195 1.168-1.0352 1.1562-1.0508 1.1406-1.0625 1.1289-0.54688 0.57422-0.54297 0.55859-0.54688 0.55859-1.0977 1.0977-0.55078 0.54688-0.55859 0.53516-0.55859 0.53906-0.55859 0.53125-0.56641 0.53125-1.1328 1.0391-0.57422 0.51953-0.57422 0.51172-0.57422 0.50781-0.58203 0.50391-0.57812 0.5-0.58594 0.49219-0.58594 0.49609-0.58984 0.48828-0.58984 0.48047-0.59375 0.48438-0.59375 0.47266-0.60547 0.46875-0.60156 0.47266-1.2109 0.92187-0.60938 0.45703-0.61328 0.44922-0.61328 0.44531-0.61719 0.44141-0.625 0.44141-0.61719 0.43359-0.62891 0.43359-0.62109 0.42188-0.62891 0.42578-0.63672 0.41406-0.63281 0.41797-1.2812 0.8125-0.64062 0.40234-0.64453 0.40234-0.64844 0.39062-0.64453 0.39062-0.65625 0.38281-0.65625 0.38672-0.65625 0.375-0.66406 0.37109-0.66016 0.37109-0.66016 0.36328-0.66797 0.36328-2.0156 1.0547-0.67969 0.34375-0.68359 0.33984-0.67578 0.33594-0.68359 0.33203-0.69141 0.32422-0.6875 0.32812-0.69141 0.32031-0.69531 0.3125-0.69531 0.30859-0.69922 0.30859-0.70312 0.30469-0.69922 0.29688-0.71094 0.29297-0.70703 0.28906-0.70703 0.28516-0.71875 0.28516-0.71484 0.27344-0.71484 0.27734-0.72266 0.26563-0.71875 0.26562-1.4531 0.52344-0.73438 0.24609-0.73047 0.25-0.73438 0.24609-0.73438 0.23828-0.74219 0.23828-0.73828 0.23438-0.75 0.22656-0.74219 0.22266-0.74609 0.21484-0.76172 0.21875-1.5 0.41797-1.5195 0.39844-1.5234 0.38672-1.5391 0.36719-1.5469 0.35547-1.5508 0.33594-1.5664 0.3125-1.5703 0.30469-1.5781 0.28516-1.5938 0.26562-1.6016 0.25781-1.6055 0.23828-1.6211 0.21484-1.625 0.20703-1.6328 0.18359-1.6484 0.16797-1.6523 0.15625-1.0859 0.09375v44.867l-0.09375 1.0234-0.26562 0.99219-0.43359 0.93359-0.58984 0.83984-0.72656 0.72656-0.83984 0.59375-0.93359 0.43359-0.99219 0.26563-1.0234 0.089843h-29.352l-1.0234-0.089843-0.99219-0.26563-0.93359-0.43359-0.83984-0.59375-0.72656-0.72656-0.58984-0.83984-0.43359-0.93359-0.26563-0.99219-0.085937-1.0234v-44.688l-0.71094-0.097656-1.1562-0.17578-1.1484-0.17188-1.1406-0.17969-1.1328-0.17969-1.125-0.18359-1.125-0.1875-1.1094-0.19531-1.1133-0.19531-1.1016-0.20313-1.0938-0.19922-1.0859-0.21094-1.082-0.21094-1.0742-0.21094-2.1328-0.44531-1.0547-0.22266-1.0469-0.23437-1.043-0.23438-1.0352-0.23828-1.0273-0.23828-1.0273-0.25-1.0117-0.24609-1.0117-0.25-1-0.26172-1-0.25781-0.98438-0.26172-0.98828-0.26953-0.97656-0.27344-0.96875-0.27734-0.96484-0.27344-0.95703-0.28906-0.95313-0.28906-1.8828-0.58594-0.92969-0.29688-0.92187-0.30469-0.91797-0.30859-0.91406-0.30859-0.90234-0.3125-0.89844-0.32031-0.89453-0.32031-0.88672-0.33203-0.875-0.32813-0.875-0.33203-0.86719-0.34375-0.85547-0.33984-0.85938-0.34766-0.84375-0.34766-0.83984-0.35547-0.83594-0.35938-0.82422-0.36328-0.82031-0.36328-0.8125-0.375-0.80859-0.37109-0.80078-0.38281-0.79688-0.37891-0.78516-0.39062-0.78125-0.39062-0.77734-0.39453-0.78125-0.40234-0.77344-0.41797-0.76953-0.41406-0.76953-0.4375-0.76562-0.43359-0.76562-0.44141-0.75781-0.45312-0.75391-0.46094-0.75391-0.46484-0.74609-0.47656-0.74609-0.48438-0.74219-0.48828-0.73828-0.49609-0.73047-0.50391-0.73047-0.51172-0.72656-0.51953-0.72656-0.53125-0.71875-0.53125-0.71484-0.54297-0.71484-0.55078-0.71094-0.55859-0.70312-0.56641-0.69922-0.57031-0.69922-0.57812-0.69531-0.58594-0.6875-0.59766-0.69141-0.60156-0.68359-0.60547-0.67969-0.61719-0.67578-0.625-0.67578-0.63281-0.66797-0.63672-0.66406-0.64844-0.66406-0.65234-0.65625-0.66016-0.65625-0.66797-0.64844-0.67969-0.64453-0.67578-0.64844-0.69531-0.63672-0.69141-0.64062-0.70703-0.62891-0.71094-0.63672-0.71875-0.62109-0.72266-0.625-0.73828-0.61719-0.73438-0.61328-0.75-0.61328-0.75391-0.60547-0.76562-0.60938-0.76172-0.59375-0.78125-0.59766-0.78125-0.59766-0.79297-0.58984-0.79688-0.58594-0.80078-0.58203-0.8125-0.57812-0.82031-0.57422-0.82422-0.57422-0.83594-0.57031-0.83984-0.5625-0.84375-0.56641-0.85156-0.55859-0.86328-0.55078-0.875-0.55859-0.88281-0.54688-0.89453-0.54297-0.89844-0.53906-0.90625-0.52344-0.91016-0.52344-0.91797-0.50781-0.92188-0.50391-0.92578-0.5-0.9375-0.48828-0.9375-0.48047-0.94922-0.47656-0.94922-0.46875-0.96094-0.46094-0.96484-0.45312-0.96875-0.44531-0.97656-0.86719-1.9688-0.42578-0.99219-0.41016-1-0.41406-1-0.39453-1.0117-0.39453-1.0156-0.38672-1.0195-0.37891-1.0273-0.36719-1.0352-0.36328-1.0352-0.35938-1.0469-0.34766-1.0469-0.33984-1.0547-0.33594-1.0625-0.32812-1.0703-0.31641-1.0664-0.3125-1.082-0.30078-1.082-0.30078-1.0898-0.28516-1.0977-0.28125-1.0977-0.27734-1.1016-0.26562-1.1133-0.26172-1.1172-0.25391-1.125-0.24219-1.1289-0.24219-1.1328-0.22656-1.1406-0.22656-1.1445-0.21875-1.1484-0.20312-1.1523-0.20312-1.1602-0.19531-1.1719-0.18359-1.1719-0.18359-1.1758-0.33594-2.375-0.15625-1.1953-0.15234-1.2031-0.14063-1.2031-0.13672-1.207-0.12891-1.2227-0.12109-1.2188-0.11328-1.2305-0.10937-1.2305-0.10156-1.2422-0.085937-1.2266 0.015624-1.0742 0.21094-1.0508 0.40234-0.99609 0.57422-0.90625 0.72656-0.78516 0.85938-0.64844 0.96484-0.47656 1.0312-0.29297 50.121-9.4102 1.0469-0.10547 1.0508 0.089844zm100.2-255.38 0.79688 0.17188 0.79688 0.1875 0.79297 0.18359 0.78516 0.1875 0.78125 0.19531 0.77734 0.20312 1.5391 0.42188 0.75781 0.21484 0.76172 0.23047 0.75 0.22656 0.75 0.23828 0.74219 0.24609 0.73828 0.24609 0.73047 0.25 0.73438 0.26172 0.71875 0.26562 0.72266 0.26953 0.71484 0.28125 0.70703 0.28516 0.70312 0.28516 0.69922 0.30078 0.69922 0.29688 0.6875 0.30859 0.68359 0.30859 0.68359 0.32031 0.67188 0.32422 0.67188 0.33203 0.66406 0.33594 0.66016 0.34375 0.65625 0.34375 0.65234 0.35547 0.64453 0.36328 0.64062 0.36328 0.63281 0.37109 0.62891 0.375 0.625 0.38672 0.61719 0.39062 0.61719 0.39453 0.60938 0.40234 0.60156 0.40625 0.60156 0.41016 0.58984 0.41797 0.58594 0.42969 0.58594 0.42578 0.57422 0.44141 0.57422 0.4375 0.5625 0.44922 0.56641 0.45703 0.55078 0.46094 0.55469 0.46484 0.54297 0.47266 0.53516 0.47656 0.53906 0.48438 0.52344 0.48828 0.52734 0.5 0.51563 0.49609 0.50781 0.50391 0.51172 0.51563 0.49609 0.51562 0.49609 0.52734 0.48828 0.52344 0.48828 0.53906 0.95312 1.0938 0.47266 0.5625 0.46484 0.56641 0.45703 0.57422 0.45312 0.57812 0.44922 0.58594 0.44141 0.59375 0.4375 0.60156 0.42969 0.60547 0.42969 0.61328 0.41406 0.625 0.41797 0.62109 0.40625 0.63672 0.41016 0.63672 0.39453 0.64844 0.78125 1.3125 0.37891 0.66406 0.375 0.67187 0.37109 0.68359 0.36328 0.68359 0.35938 0.69531 0.35938 0.69922 0.34766 0.69922 0.33984 0.71484 0.33594 0.71484 0.33203 0.72266 0.32812 0.73047 0.32031 0.73828 0.31641 0.74219 0.3125 0.75 0.30469 0.75391 0.29688 0.76562 0.58594 1.5391 0.28125 0.78125 0.28516 0.78906 0.26953 0.79297 0.26562 0.79688 0.26562 0.80859 0.25391 0.8125 0.25781 0.8125 0.24609 0.82422 0.23828 0.83594 0.24219 0.83594 0.23047 0.83984 0.22656 0.85156 0.22266 0.85547 0.21484 0.86328 0.21094 0.86719 0.21094 0.87109 0.19922 0.88672 0.19531 0.88281 0.19141 0.89453 0.18359 0.89844 0.18359 0.90625 0.13672 0.70703 39.906-6.0078-0.23047-1.2383-0.26562-1.3672-0.27344-1.3594-0.29297-1.3438-0.30469-1.3398-0.31641-1.3242-0.32422-1.3164-0.33594-1.3086-0.35156-1.293-0.36328-1.293-0.375-1.2734-0.38281-1.2617-0.39844-1.2578-0.41016-1.2422-0.42578-1.2383-0.43359-1.2227-0.44141-1.2148-0.45703-1.2109-0.47266-1.1914-0.47656-1.1836-0.49219-1.1758-0.50391-1.1641-0.51562-1.1562-0.53125-1.1445-0.53906-1.1367-0.55078-1.125-0.56641-1.1172-0.57422-1.1055-0.58594-1.0938-0.60156-1.0898-0.60937-1.0742-0.62109-1.0703-0.63281-1.0547-0.65234-1.0469-0.65625-1.043-0.67188-1.0273-0.67578-1.0195-0.69531-1.0078-0.71094-1.0039-0.71484-0.98828-0.72656-0.98047-0.74219-0.97656-0.75391-0.96094-0.76562-0.95312-0.78125-0.94922-0.78516-0.93359-0.80078-0.92578-0.81641-0.91406-0.82812-0.90625-0.83594-0.90234-0.85156-0.88672-0.85938-0.88672-0.87891-0.86719-0.88281-0.85938-0.90234-0.85938-0.91016-0.83984-0.92578-0.83594-0.93359-0.82812-0.94922-0.8125-0.96875-0.82031-0.76172-0.62109-0.75391-0.61328-0.76172-0.60156-0.77734-0.59766-0.78125-0.58594-0.78906-0.57812-0.80078-0.57812-0.80469-0.5625-0.81641-0.55859-0.82422-0.54687-0.83203-0.54297-0.83984-0.53516-0.85156-0.52734-0.86328-0.51953-0.86719-0.51563-0.87891-0.50391-0.88281-0.49219-0.89453-0.49609-0.90625-0.47656-0.91016-0.47656-0.92188-0.46484-0.92969-0.46094-0.94141-0.45312-0.94922-0.44141-0.95312-0.43359-0.96484-0.42969-0.97656-0.42188-0.98828-0.41406-0.99219-0.40625-1.0039-0.39453-1.0078-0.39063-1.0195-0.38672-1.0312-0.375-1.0391-0.36719-1.0469-0.35938-1.0586-0.35156-1.0625-0.33984-1.0781-0.33594-1.0781-0.33203-1.0938-0.32031-1.1016-0.30859-1.1133-0.30859-1.1211-0.29297-1.1328-0.29297-1.1406-0.28125-1.1484-0.27344-1.1562-0.26562-1.1641-0.25781-1.1758-0.25-1.1875-0.23828-1.1953-0.23828-1.2031-0.22266-1.2148-0.22266-1.2188-0.20703-1.2305-0.20703-1.2422-0.1875-1.2539-0.19141-1.2578-0.17969-1.2656-0.16797-1.2812-0.16016-1.2852-0.15234-1.2969-0.14844-1.3047-0.14062-1.3359-0.12891-1.0625-0.20703-1.0078-0.39453-0.91406-0.57422-0.79688-0.73438-0.65234-0.86719-0.48438-0.96875-0.29297-1.043-0.10156-1.0781v-17.918h-17.562v17.918l-0.097656 1.0742-0.29297 1.043-0.47656 0.96484-0.64844 0.86719-0.79297 0.73047-0.91797 0.57422-1 0.40234-1.0586 0.20703-1.5234 0.15625-1.4961 0.16797-1.4805 0.16797-1.4688 0.18359-1.4609 0.19141-1.4453 0.19531-1.4336 0.20312-1.418 0.21484-1.4062 0.21484-1.3984 0.23438-1.3828 0.23438-1.3672 0.24219-1.3594 0.25391-1.3438 0.26172-1.3359 0.26953-1.3164 0.27734-1.3086 0.28125-1.293 0.29297-1.2852 0.30078-1.2695 0.30859-1.2578 0.3125-1.2461 0.32422-1.2383 0.33203-1.2188 0.34375-1.2109 0.34375-1.1914 0.35547-1.1836 0.36328-1.1719 0.36719-1.1602 0.37891-1.1406 0.38672-1.1406 0.39453-1.1172 0.40234-1.1094 0.40625-1.0977 0.41797-1.082 0.42188-1.0742 0.42969-1.0586 0.4375-1.0469 0.44922-1.0352 0.44922-1.0195 0.46094-1.0117 0.47266-0.99219 0.47656-0.98828 0.48438-0.97656 0.48828-0.96094 0.5-0.94922 0.50391-0.92969 0.51172-0.92969 0.52344-0.91016 0.52344-0.89844 0.53906-0.89062 0.54297-0.87109 0.54688-0.86328 0.55859-0.85156 0.5625-0.83984 0.57031-0.82812 0.57812-0.81641 0.58594-0.80469 0.59375-0.79297 0.60156-0.77734 0.60547-0.76953 0.61328-0.75781 0.625-0.74219 0.62891-0.75 0.64453-0.55078 0.49219-0.55859 0.49219-0.55078 0.49609-0.53906 0.49609-0.54297 0.5-0.53906 0.50391-0.53125 0.50391-0.52344 0.51172-0.51953 0.50781-0.52344 0.51172-0.50781 0.51562-0.51172 0.51172-0.50391 0.51562-0.99219 1.0469-0.49219 0.51953-0.48437 0.52734-0.48047 0.53125-0.47656 0.53125-0.47266 0.53125-0.46484 0.53906-0.46875 0.53516-0.46094 0.54297-0.44922 0.54297-0.44922 0.53906-0.44922 0.55078-0.44141 0.54688-0.43359 0.55078-0.43359 0.55469-0.42969 0.55469-0.42188 0.55469-0.41797 0.55859-0.41797 0.56641-0.41016 0.5625-0.80469 1.1328-0.39844 0.57031-0.78125 1.1484-0.37891 0.58203-0.37891 0.57813-0.38281 0.58203-0.36719 0.58594-0.36328 0.58594-0.36328 0.58984-0.35937 0.58984-0.70313 1.1875-0.33984 0.59766-0.34375 0.60156-0.33594 0.60156-0.33203 0.60938-0.64844 1.2109-0.32031 0.61328-0.31641 0.62109-0.30859 0.60938-0.30078 0.625-0.30469 0.61719-0.29297 0.625-0.58594 1.2578-0.28125 0.62891-0.27734 0.63281-0.27734 0.63672-0.26953 0.63672-0.26562 0.64062-0.26562 0.64453-0.25391 0.64844-0.25781 0.64453-0.25 0.64844-0.24219 0.65234-0.48438 1.3125-0.22656 0.66016-0.45312 1.3281-0.21875 0.66797-0.21875 0.67187-0.21094 0.67188-0.20312 0.67187-0.20312 0.67969-0.19922 0.67578-0.19141 0.68359-0.1875 0.69141-0.18359 0.67969-0.1875 0.69531-0.17188 0.6875-0.17188 0.69531-0.17188 0.69922-0.16016 0.69922-0.15625 0.70703-0.16016 0.70313-0.15234 0.70312-0.14453 0.71094-0.14062 0.71875-0.13672 0.71484-0.13281 0.71484-0.13281 0.72266-0.125 0.71875-0.11719 0.72656-0.11328 0.73438-0.11719 0.72656-0.10547 0.73438-0.10547 0.73828-0.097656 0.73828-0.089844 0.73828-0.09375 0.74609-0.082031 0.74219-0.082031 0.75391-0.078125 0.75-0.070313 0.75391-0.13281 1.5156-0.058594 0.76562-0.10938 1.5312-0.042969 0.76953-0.042968 0.77344-0.039063 0.77734-0.03125 0.78125-0.027344 0.77734-0.027343 0.78125-0.03125 1.5781-0.011719 0.78516-0.003907 0.80078-0.007812 0.79688 0.007812 0.89453 0.003907 0.88672 0.015625 0.88281 0.023437 0.88672 0.027344 0.87891 0.03125 0.875 0.039063 0.875 0.046874 0.86719 0.050782 0.86719 0.11719 1.7266 0.070313 0.85547 0.078125 0.85156 0.082031 0.85156 0.085938 0.84375 0.089843 0.83984 0.097657 0.83984 0.10547 0.84375 0.22656 1.6562 0.125 0.83203 0.125 0.82422 0.13672 0.81641 0.14062 0.82031 0.14453 0.8125 0.15234 0.80859 0.15625 0.80859 0.16406 0.80078 0.16797 0.80469 0.17969 0.79688 0.17969 0.78906 0.1875 0.79297 0.19141 0.79297 0.19922 0.77734 0.20703 0.78125 0.21094 0.78125 0.21484 0.77734 0.22266 0.76953 0.23047 0.76953 0.23047 0.76562 0.23828 0.76172 0.25 0.76172 0.25 0.75781 0.26172 0.75391 0.25781 0.75 0.27344 0.74609 0.27734 0.74219 0.28125 0.74219 0.28516 0.73828 0.29297 0.73437 0.60156 1.4609 0.30859 0.72656 0.64062 1.4453 0.66406 1.4297 0.33984 0.71094 0.34766 0.71094 0.35156 0.70312 0.35938 0.69922 0.36328 0.69922 0.36719 0.69922 0.37891 0.69531 0.37891 0.6875 0.38672 0.68359 0.39062 0.67969 0.39453 0.67578 0.40234 0.66797 0.40625 0.66797 0.40625 0.66016 0.41797 0.64844 0.41797 0.65234 0.42969 0.64453 0.42578 0.64062 0.43359 0.63281 0.44141 0.63672 0.44531 0.62109 0.44922 0.62109 0.44922 0.61719 0.46094 0.61328 0.46484 0.60156 0.46875 0.60156 0.46875 0.59766 0.48438 0.59375 0.48047 0.58594 0.48828 0.58203 0.49609 0.57813 0.49609 0.57031 0.50391 0.57031 0.51172 0.5625 0.50781 0.55859 0.52344 0.55469 0.51953 0.55078 1.0625 1.0859 0.53516 0.53516 0.55078 0.53125 0.54688 0.52734 0.55078 0.51953 0.55859 0.51562 0.56641 0.51562 0.56641 0.50391 0.57812 0.50391 0.57422 0.5 0.58594 0.49219 0.58984 0.49219 0.58984 0.48438 0.60156 0.48047 0.60156 0.47266 0.61328 0.47266 0.61328 0.46484 0.625 0.46875 0.62109 0.45312 0.62891 0.45703 0.63672 0.44531 1.2891 0.88281 0.65234 0.43359 0.65625 0.43359 0.66016 0.42188 0.66797 0.42578 0.67187 0.41406 0.68359 0.41406 0.68359 0.40625 0.6875 0.40234 0.69531 0.39844 0.70313 0.40234 0.98047 0.54688 0.98047 0.53906 0.98438 0.53516 0.97656 0.53125 0.98047 0.51953 0.97656 0.52344 0.97266 0.50781 0.97656 0.51172 0.97656 0.49609 0.97266 0.49609 0.97266 0.48828 0.97266 0.48047 0.96875 0.47656 0.97266 0.46875 0.96875 0.46484 0.97266 0.46094 0.96484 0.44922 0.96875 0.44922 0.96484 0.44141 0.96484 0.43359 0.96484 0.42969 0.96094 0.42188 0.96484 0.41797 0.96094 0.41016 0.96094 0.40625 0.95703 0.40234 1.9219 0.78125 1.9141 0.75781 0.95312 0.37109 0.95312 0.36328 0.95703 0.35547 0.95312 0.35156 0.95313 0.34766 0.94922 0.34375 0.94922 0.33594 0.94922 0.32813 1.8984 0.64062 0.94922 0.31641 0.94141 0.30078 0.94531 0.30078 0.94531 0.29688 0.94531 0.28906 0.9375 0.28125 0.94531 0.27734 0.94141 0.26953 0.9375 0.26562 0.9375 0.26172 0.94141 0.25 1.875 0.49219 0.93359 0.23438 0.9375 0.23047 0.92969 0.22266 0.93359 0.21875 0.93359 0.21484 0.92578 0.20703 0.93359 0.19922 0.93359 0.19531 0.92578 0.19141 0.92578 0.18359 0.94531 0.18359 0.97656 0.27734 0.91406 0.4375 0.83203 0.59375 0.71094 0.72656 0.57422 0.83594 0.42578 0.91797 0.26172 0.98437 0.085937 1.0117v158.67l-0.082031 0.98438-0.24609 0.95703-0.40234 0.90625-0.55469 0.82422-0.67578 0.71875-0.78516 0.59766-0.87891 0.45312-0.94531 0.30078-0.98047 0.14062-0.98828-0.027344-0.95312-0.10156-0.98828-0.12109-0.98047-0.13672-0.98047-0.14453-0.97656-0.16406-0.96875-0.16797-0.97266-0.18359-0.96484-0.19922-0.96094-0.20703-0.95312-0.22266-0.94922-0.23828-0.94922-0.24609-0.94141-0.25781-0.9375-0.27734-0.94141-0.28125-0.92578-0.29688-0.92578-0.3125-0.92188-0.32422-0.92187-0.33594-0.91016-0.34766-0.90625-0.35547-0.90625-0.375-0.89844-0.38672-0.89453-0.39453-0.89062-0.41406-0.88281-0.42188-0.88672-0.43359-0.87109-0.44922-0.87109-0.45703-0.87109-0.46875-0.85938-0.48438-0.85938-0.5-0.85156-0.50781-0.84375-0.51953-0.83984-0.53125-0.83594-0.54297-0.83594-0.55859-0.82422-0.57031-0.82422-0.57812-0.8125-0.59375-0.8125-0.60156-0.80859-0.61719-0.80078-0.62891-0.79688-0.64062-0.79297-0.64844-0.78516-0.66406-0.78125-0.67578-0.77734-0.69141-0.76953-0.69141-0.76172-0.71094-0.76563-0.72266-0.75391-0.73438-0.75-0.74609-0.74609-0.75391-0.74219-0.76953-0.73438-0.78125-0.73047-0.78906-0.72656-0.79687-0.72266-0.8125-0.71484-0.83203-0.71094-0.83594-0.70312-0.84375-0.69922-0.85547-0.71875-0.89453-0.50781-0.66797-0.5-0.66797-0.49219-0.67188-0.48828-0.68359-0.47656-0.69922-0.47656-0.70312-0.46875-0.71094-0.46484-0.72656-0.45703-0.73828-0.44922-0.74219-0.44922-0.75391-0.4375-0.76562-0.43359-0.77344-0.4375-0.78125-0.42188-0.79297-0.42188-0.80859-0.41406-0.8125-0.40625-0.81641-0.40625-0.83594-0.39453-0.83984-0.39453-0.85156-0.38672-0.86328-0.38281-0.87109-0.38281-0.88672-0.36719-0.88672-0.36719-0.90234-0.36328-0.91016-0.35938-0.92188-0.35156-0.92578-0.34766-0.94531-0.34375-0.94922-0.33594-0.95703-0.33594-0.97266-0.32422-0.97656-0.32422-0.99219-0.31641-0.99609-0.3125-1.0078-0.30859-1.0195-0.30469-1.0273-0.29688-1.0391-0.29297-1.0469-0.28906-1.0586-0.28906-1.0664-0.28125-1.0781-0.26953-1.0859-0.27344-1.1016-0.26562-1.1055-0.25781-1.1172-0.26172-1.125-0.25-1.1367-0.24609-1.1484-0.24219-1.1523-0.23828-1.168-0.23047-1.1758-0.23047-1.1875-0.22656-1.1992-0.21484-1.2031-0.21875-1.2148-0.21094-1.2305-0.03125-0.20703-38.91 7.3086 0.054688 0.57031 0.11719 1.1445 0.13281 1.1367 0.13281 1.1289 0.14453 1.1211 0.14453 1.1172 0.15234 1.1133 0.16406 1.1055 0.16797 1.1016 0.17188 1.0938 0.36719 2.1719 0.19531 1.0703 0.20312 1.0703 0.20312 1.0625 0.21875 1.0586 0.21484 1.0508 0.23047 1.0469 0.23047 1.0352 0.24609 1.0352 0.24219 1.0234 0.51562 2.0391 0.26563 1.0078 0.27734 1 0.27734 0.99609 0.28516 0.99219 0.29297 0.98047 0.30078 0.98438 0.30859 0.96875 0.30859 0.96484 0.32031 0.96484 0.32422 0.95703 0.33203 0.94531 0.33984 0.94141 0.34375 0.9375 0.35156 0.92969 0.35937 0.92188 0.36328 0.92188 0.37109 0.91406 0.375 0.91016 0.38672 0.89844 0.39062 0.89453 0.39453 0.89063 0.40625 0.88281 0.40625 0.87891 0.41797 0.87109 0.42188 0.86328 0.42969 0.86328 0.43359 0.85547 0.44531 0.84766 0.44922 0.84375 0.45703 0.83594 0.46094 0.82812 0.46484 0.83203 0.47656 0.81641 0.47656 0.8125 0.48828 0.80859 0.49219 0.80469 0.50781 0.80078 0.50781 0.79688 0.51562 0.79688 0.51953 0.78516 0.51953 0.78906 1.0547 1.5391 0.52344 0.75391 0.53125 0.75391 0.53906 0.74219 0.53516 0.73828 0.53906 0.73047 0.53906 0.72266 0.55078 0.71484 0.54687 0.70312 0.54688 0.69922 0.55469 0.69531 0.55469 0.6875 0.55859 0.67969 0.55859 0.67188 0.56641 0.66016 0.57031 0.65625 0.5625 0.65234 0.57422 0.64062 0.57422 0.63281 0.57422 0.62891 0.58203 0.61719 0.57812 0.61328 0.58594 0.60938 0.58594 0.60156 0.58984 0.58984 0.59375 0.58203 0.59375 0.57812 0.59766 0.57031 0.60156 0.5625 0.60156 0.55469 0.60156 0.54688 0.60938 0.54297 0.61328 0.53516 0.60938 0.52734 0.61328 0.51953 0.62109 0.51562 0.62109 0.50391 0.625 0.5 0.62109 0.49219 0.62891 0.48438 0.63672 0.47656 0.63281 0.46875 0.63672 0.46875 0.63672 0.45312 0.64063 0.45312 0.64453 0.44141 0.64844 0.43359 0.64844 0.4375 0.65625 0.42188 0.65234 0.41016 0.66016 0.41406 0.65625 0.40234 0.66797 0.39453 0.66406 0.38281 0.66797 0.38281 0.67188 0.37891 0.67188 0.36328 0.67969 0.36328 0.68359 0.35156 0.6875 0.35938 0.70312 0.34375 0.71094 0.34766 0.71875 0.34766 0.71875 0.33984 0.73437 0.34375 0.73438 0.33594 0.74219 0.33203 1.5078 0.65625 0.76953 0.32031 0.77344 0.31641 0.77734 0.32031 0.78906 0.31641 0.79688 0.30859 0.80078 0.30859 0.80859 0.30469 0.8125 0.29688 0.82422 0.29688 1.6641 0.58594 0.84766 0.28906 0.85156 0.28516 0.85938 0.28516 0.86328 0.27344 0.875 0.27734 0.88281 0.27344 0.88281 0.26562 0.89453 0.26562 0.90234 0.25781 0.91016 0.26172 0.91406 0.25391 0.92187 0.25 0.93359 0.25 0.9375 0.24219 0.94531 0.24609 0.94922 0.23828 0.95703 0.23438 0.96484 0.23047 0.97266 0.23047 0.98047 0.22656 0.98828 0.21484 0.99219 0.22266 1 0.21094 1.0117 0.21484 1.0117 0.21094 2.0547 0.39844 1.0352 0.20312 1.0469 0.19531 1.0469 0.1875 1.0586 0.19141 1.0664 0.18359 1.0742 0.17969 1.0781 0.17969 1.0859 0.17188 1.0938 0.16797 1.1016 0.16797 1.1055 0.16406 1.1133 0.15625 1.1211 0.15625 1.1289 0.15234 1.1367 0.15234 1.1562 0.14844 1.0352 0.22656 0.98047 0.41016 0.89062 0.58203 0.76953 0.73047 0.62891 0.85938 0.46094 0.95703 0.28125 1.0273 0.097656 1.0547v43.945h17.562v-44.504l0.085938-0.98438 0.24609-0.96094 0.40625-0.91016 0.55078-0.82422 0.69141-0.72266 0.78906-0.58984 0.88672-0.45703 0.94922-0.29688 0.98047-0.13672 1.6055-0.085938 1.5586-0.097656 1.5508-0.11328 1.5469-0.125 1.5273-0.14062 1.5234-0.16406 1.5156-0.16797 1.5-0.1875 1.4922-0.20312 1.4844-0.22266 1.4688-0.22656 1.4648-0.25 1.4531-0.25781 1.4414-0.28516 1.4336-0.28516 1.4258-0.30859 1.4141-0.32031 1.4062-0.33594 1.3906-0.35156 1.3828-0.37109 1.3828-0.37891 0.67188-0.19531 0.68359-0.19922 0.67969-0.20312 0.67578-0.21094 0.67188-0.20703 0.67578-0.21484 0.67188-0.21875 0.66406-0.22266 0.66406-0.22656 0.66016-0.22656 0.66016-0.23438 1.3125-0.47656 0.65234-0.24219 0.64844-0.24609 0.65234-0.25391 0.64453-0.25391 1.2812-0.52344 0.64062-0.26562 1.2656-0.53906 0.63672-0.27734 0.62891-0.28125 0.62109-0.28516 0.62891-0.29297 0.62109-0.28516 0.62109-0.29688 0.61328-0.30078 0.61719-0.30469 0.61328-0.30078 0.61328-0.31641 0.60547-0.3125 0.60938-0.31641 0.60156-0.32031 0.60156-0.32422 0.59766-0.33203 0.59375-0.32812 0.59766-0.33594 0.58984-0.34375 0.59375-0.33984 0.58984-0.34766 0.58594-0.35156 0.57812-0.35938 0.58203-0.35938 0.57812-0.36328 0.58203-0.36328 0.57422-0.36719 0.57031-0.375 0.57031-0.37891 0.56641-0.37891 0.56641-0.38672 0.5625-0.38281 0.5625-0.39453 0.55859-0.39844 0.55469-0.39453 0.55859-0.40625 0.55469-0.40625 0.54688-0.41406 0.54687-0.41016 0.54688-0.41797 0.54297-0.42188 0.54297-0.42969 0.53516-0.42969 0.53906-0.43359 0.53516-0.43359 0.53125-0.44531 0.53125-0.44141 0.53125-0.44531 0.52734-0.45703 0.51953-0.45312 0.52734-0.46094 0.51953-0.46094 1.0312-0.94531 0.51172-0.47266 0.51172-0.48047 0.50781-0.48437 0.50391-0.48047 0.51172-0.49609 0.5-0.49219 0.50391-0.5 0.49219-0.50391 0.5-0.50391 0.49219-0.50781 0.48828-0.51172 0.98047-1.0391 0.95312-1.043 0.94531-1.0508 0.92578-1.0586 0.91797-1.0742 0.44531-0.52344 0.44531-0.53906 0.44141-0.53906 0.44141-0.54297 0.43359-0.54297 0.42969-0.54297 0.42578-0.54688 0.42188-0.55469 0.41797-0.54688 0.41406-0.55078 0.41016-0.55469 0.40625-0.55859 0.41016-0.55859 0.39453-0.55859 0.39453-0.5625 0.39062-0.56641 0.39062-0.5625 0.38672-0.57031 0.37891-0.56641 0.375-0.57813 0.37109-0.57422 0.36328-0.57422 0.37109-0.57422 0.35547-0.57812 0.35937-0.58203 0.35156-0.58594 0.69531-1.1719 0.33984-0.58984 0.33594-0.58984 0.33594-0.59766 0.33203-0.58984 0.32422-0.60156 0.32031-0.59766 0.32031-0.60156 0.31641-0.60156 0.30859-0.60938 0.30859-0.60547 0.30469-0.60937 0.29688-0.60938 0.29687-0.61328 0.28906-0.61328 0.29297-0.61719 0.5625-1.2422 0.27734-0.625 0.26953-0.62109 0.27344-0.62891 0.25781-0.62891 0.26562-0.62891 0.25781-0.63672 0.25391-0.63281 0.5-1.2812 0.23828-0.64062 0.47656-1.2891 0.22656-0.65234 0.22656-0.64453 0.22266-0.65625 0.22266-0.64844 0.21875-0.65625 0.21094-0.66406 0.20703-0.66016 0.20313-0.66016 0.20312-0.66406 0.19531-0.66406 0.19531-0.67188 0.1875-0.66797 0.18359-0.67969 0.1875-0.67188 0.17188-0.66406 0.34766-1.375 0.33203-1.3711 0.3125-1.375 0.29688-1.3906 0.28516-1.3906 0.26953-1.4062 0.25391-1.4141 0.23828-1.4219 0.22266-1.4297 0.20703-1.4375 0.19531-1.4492 0.17188-1.457 0.16406-1.4648 0.14453-1.4727 0.13281-1.4883 0.11719-1.4922 0.097657-1.5 0.085937-1.5117 0.074219-1.5195 0.050781-1.5273 0.039063-1.5352 0.023437-1.5469 0.007813-1.5547-0.007813-1.4062-0.023437-1.3984-0.039063-1.3906-0.046875-1.3906-0.066406-1.375-0.082031-1.3672-0.097656-1.3672-0.10547-1.3555-0.125-1.3516-0.14062-1.3438-0.16016-1.332-0.16797-1.3359-0.18359-1.3203-0.19531-1.3125-0.21094-1.3125-0.22656-1.3008-0.24609-1.2969-0.25391-1.2891-0.26953-1.2812-0.28125-1.2812-0.30469-1.2656-0.31641-1.2656-0.32422-1.25-0.34766-1.2539-0.35547-1.2422-0.37109-1.2344-0.39062-1.2305-0.39844-1.2266-0.41406-1.2148-0.43359-1.2148-0.44531-1.2031-0.46094-1.1992-0.47266-1.1914-0.48828-1.1836-0.49219-1.1641-0.51562-1.1602-0.51953-1.1523-0.53516-1.1367-0.54297-1.1289-1.1328-2.2188-0.58594-1.0938-0.59766-1.0859-0.60547-1.0703-0.62109-1.0625-0.63281-1.0547-0.64453-1.0391-0.65625-1.0312-0.67187-1.0195-0.67969-1.0078-0.69141-1.0039-0.71094-0.98438-0.71484-0.97656-0.73437-0.97266-0.74219-0.95703-0.75781-0.94922-0.76563-0.9375-0.78125-0.92969-0.79687-0.91406-0.80078-0.91406-0.82031-0.89453-0.82812-0.88672-0.84766-0.87891-0.86328-0.875-0.42578-0.42188-0.43359-0.42187-0.44141-0.42969-0.44141-0.42188-0.45312-0.42188-0.44531-0.41406-0.91797-0.83984-0.94141-0.82422-0.94922-0.82031-0.96484-0.8125-0.98438-0.80078-1.0039-0.79688-1.0156-0.79297-1.0352-0.78125-1.0508-0.77344-1.0664-0.76953-1.0898-0.76172-1.1016-0.75391-1.125-0.74219-1.1328-0.73828-1.1523-0.73047-1.1719-0.72266-1.1875-0.71484-1.2109-0.70312-1.2188-0.69922-1.2422-0.69531-1.2578-0.68359-1.2734-0.67578-1.2891-0.67188-1.3086-0.65625-1.3281-0.65625-1.3438-0.64844-1.3633-0.63672-1.375-0.62891-1.3672-0.61328-0.69922-0.29297-0.76953-0.31641-0.82422-0.32422-0.87891-0.33594-0.93359-0.34766-0.99219-0.35156-1.0391-0.36719-1.0977-0.375-1.1406-0.38672-1.207-0.39453-1.25-0.40625-1.3008-0.41406-1.3555-0.42188-1.4102-0.42969-1.4609-0.4375-1.5117-0.44922-1.5625-0.45703-1.6094-0.46484-1.6641-0.47266-1.7148-0.48047-1.7617-0.48828-1.8164-0.5-1.8633-0.51172-1.9219-0.51172-1.9609-0.52734-2.0156-0.53125-2.0742-0.53906-2.1133-0.55078-2.168-0.55469-2.2188-0.56641-4.5977-1.1562-0.92187-0.31641-0.85547-0.46484-0.76953-0.59766-0.66406-0.71484-0.53516-0.81641-0.39062-0.89062-0.23828-0.94531-0.082031-0.97266v-143.71l0.09375-1.043 0.27344-1.0156 0.45312-0.94141 0.60547-0.85156 0.75391-0.72656 0.86328-0.58594 0.95703-0.42188 1.0156-0.24609 1.0469-0.0625 1.0352 0.11719zm-1.1367 191.95 0.98047 0.23047 1.2578 0.41016 1.2617 0.41797 1.25 0.42188 1.2305 0.41797 1.2266 0.42188 1.207 0.42969 1.1914 0.42969 1.1875 0.42578 1.1719 0.42969 1.1602 0.43359 1.1445 0.4375 1.1328 0.4375 1.125 0.4375 1.1055 0.44531 1.0977 0.44531 1.082 0.44141 1.0742 0.44531 1.0547 0.44922 1.0469 0.45703 1.0352 0.45703 1.0195 0.45312 1.0078 0.45703 1 0.46094 0.98438 0.46484 0.97266 0.46875 0.96094 0.46484 0.94531 0.47266 0.93359 0.46875 0.92188 0.48047 0.91016 0.47656 0.90234 0.47656 0.88281 0.48047 0.87109 0.48828 0.86328 0.48828 0.84766 0.48828 0.83203 0.49219 0.82422 0.5 0.81641 0.5 0.79688 0.5 0.78906 0.50391 0.77734 0.50781 0.75781 0.51172 0.75391 0.50781 0.73828 0.51562 0.72656 0.51953 0.71094 0.51953 0.70312 0.52734 0.6875 0.53125 0.67969 0.53125 0.66016 0.53906 0.65625 0.53516 0.64062 0.54297 0.625 0.54688 0.61719 0.54688 0.60156 0.55469 0.58984 0.55859 0.58203 0.55859 0.5625 0.5625 0.55469 0.57031 0.53516 0.57422 0.53125 0.57422 0.51562 0.58203 0.5 0.58203 0.48828 0.58594 0.46484 0.58203 0.45703 0.57812 0.44141 0.59375 0.44531 0.58984 0.43359 0.59766 0.42578 0.60547 0.42188 0.60938 0.41016 0.61719 0.40234 0.61719 0.39453 0.62891 0.39062 0.62891 0.38672 0.64063 0.375 0.64062 0.36328 0.64844 0.35547 0.65234 0.35156 0.66016 0.34766 0.66406 0.33594 0.67188 0.33203 0.67187 0.32031 0.68359 0.3125 0.68359 0.3125 0.69141 0.29688 0.69531 0.29297 0.69922 0.28125 0.70312 0.28125 0.71094 0.26562 0.71484 0.26562 0.72266 0.25391 0.72656 0.24609 0.73047 0.23828 0.73828 0.23438 0.73828 0.22656 0.75 0.21484 0.74609 0.21484 0.75391 0.19922 0.76562 0.19531 0.76172 0.19141 0.77344 0.18359 0.77344 0.17188 0.77734 0.16406 0.78516 0.16016 0.78516 0.15234 0.79688 0.14062 0.79688 0.14062 0.80469 0.13281 0.80469 0.11719 0.81641 0.12109 0.8125 0.10937 0.82422 0.10156 0.82422 0.09375 0.82812 0.085937 0.83984 0.082032 0.83984 0.074218 0.84375 0.066407 0.84766 0.058593 0.85938 0.046876 0.85547 0.050781 0.86328 0.039062 0.86719 0.03125 0.87109 0.023438 0.87891 0.015625 0.88281 0.007812 0.88672 0.007813 0.89453-0.007813 1.0469-0.015625 1.0391-0.019531 1.043-0.039062 1.0352-0.042969 1.0273-0.054688 1.0273-0.066406 1.0195-0.070313 1.0195-0.085937 1.0078-0.089844 1.0078-0.10547 1.0039-0.11328 0.99609-0.125 0.99219-0.12891 0.99219-0.14844 0.98438-0.15234 0.98047-0.16016 0.97656-0.17578 0.96875-0.18359 0.96484-0.1875 0.96094-0.20703 0.95703-0.21094 0.94922-0.23047 0.94922-0.23047 0.9375-0.24609 0.94141-0.25 0.92969-0.26562 0.92969-0.27344 0.92578-0.28516 0.91797-0.29297 0.91016-0.30078 0.91016-0.31641 0.89844-0.32422 0.90234-0.33594 0.88672-0.34766 0.89062-0.35156 0.88281-0.36328 0.87891-0.37891 0.86719-0.38672 0.86719-0.39453 0.86328-0.40234 0.85547-0.41797 0.85156-0.42187 0.84766-0.4375 0.83984-0.44531 0.83594-0.45703 0.82813-0.46484 0.82422-0.47266 0.82031-0.48828 0.8125-0.49219 0.80859-0.51172 0.80078-0.51562 0.79688-0.51953 0.79297-0.53516 0.78516-0.54688 0.78125-0.55469 0.76953-0.5625 0.76953-0.57812 0.76562-0.58203 0.75391-0.59375 0.75391-0.60156 0.74609-0.61328 0.73828-0.62109 0.73047-0.63672 0.73437-0.63281 0.71484-0.64453 0.71094-0.64453 0.69922-0.65625 0.6875-0.66406 0.68359-0.66016 0.67188-0.67188 0.66406-0.67969 0.65625-0.68359 0.64453-0.6875 0.64062-0.69531 0.62109-0.69922 0.61719-0.70313 0.61328-0.71094 0.59766-0.71484 0.58984-0.72656 0.58594-0.72656 0.57031-0.73047 0.5625-0.74609 0.55469-0.74219 0.54297-0.74609 0.53516-0.76172 0.52734-0.75781 0.51562-0.76953 0.50781-0.76953 0.5-0.78125 0.48047-0.78125 0.48438-0.78516 0.46484-0.79687 0.46094-0.79688 0.44922-0.80859 0.44141-0.80859 0.43359-0.82031 0.42188-0.81641 0.41406-0.82422 0.39844-0.83594 0.39062-0.83594 0.38672-0.83984 0.375-0.84375 0.36328-0.85156 0.35156-0.85938 0.34766-0.85938 0.33594-0.86719 0.32422-0.875 0.3125-0.87109 0.30469-0.88672 0.30078-0.88281 0.28516-0.89453 0.27734-0.89453 0.26953-0.89844 0.25781-0.90625 0.24609-0.91016 0.23828-0.91797 0.23438-0.91406 0.21875-0.92969 0.21094-0.92578 0.19922-0.9375 0.19141-0.9375 0.18359-0.94531 0.16797-0.94141 0.16406-0.95703 0.15625-0.95703 0.14062-0.96094 0.13672-0.9375 0.11719-1 0.042969-0.99219-0.125-0.95312-0.29297-0.89453-0.44922-0.80859-0.59766-0.6875-0.71875-0.5625-0.82812-0.41406-0.91406-0.25-0.96484-0.085938-0.99609v-151.75l0.085938-1.0078 0.26172-0.97656 0.41797-0.91797 0.57031-0.83594 0.70312-0.71875 0.82031-0.59766 0.90234-0.44531 0.97266-0.28125 1.0039-0.11328zm5.0469 150.63 0.80469-0.17188 0.80078-0.17969 0.79297-0.1875 0.78906-0.20312 0.78125-0.20703 0.78125-0.21094 0.76953-0.22266 0.76953-0.22656 0.76563-0.23828 1.5078-0.5 1.4922-0.53125 0.74219-0.27344 0.73047-0.28906 0.72656-0.29297 0.72656-0.30469 0.71484-0.30859 0.71484-0.3125 0.71094-0.32812 0.70703-0.33594 0.69922-0.33984 0.69141-0.34766 0.69531-0.35937 0.68359-0.36328 0.68359-0.37109 0.67578-0.37891 0.67578-0.39062 0.66406-0.39844 0.66797-0.40625 1.3125-0.83594 1.2969-0.86719 0.64453-0.44922 0.63281-0.45703 0.63672-0.45703 0.62891-0.47266 0.62109-0.47656 0.625-0.48828 0.61328-0.5 0.61328-0.50391 0.60547-0.51172 0.60938-0.51953 0.59375-0.53125 0.59766-0.53516 0.58984-0.54688 0.58594-0.55469 0.58594-0.5625 1.1484-1.1562 0.57031-0.58594 0.57031-0.60156 0.55859-0.60547 0.55859-0.61328 0.55078-0.625 0.54688-0.62891 0.53125-0.62891 0.52734-0.63281 0.51953-0.64063 0.50391-0.64453 0.50781-0.64844 0.48438-0.64844 0.48437-0.65625 0.47266-0.66016 0.46484-0.66797 0.45703-0.66797 0.44922-0.67578 0.4375-0.67969 0.42969-0.68359 0.42188-0.6875 0.41406-0.6875 0.40234-0.69922 0.39453-0.69922 0.39063-0.70703 0.37891-0.71094 0.36719-0.71484 0.36328-0.71484 0.35547-0.72656 0.34375-0.72656 0.33594-0.73438 0.32812-0.74219 0.32031-0.74219 0.30859-0.74609 0.30078-0.75 0.29297-0.75781 0.28906-0.76562 0.27734-0.76562 0.26953-0.77344 0.26172-0.77734 0.25391-0.78125 0.24609-0.78906 0.23047-0.79297 0.22656-0.79687 0.21875-0.80078 0.21094-0.80859 0.20312-0.8125 0.19141-0.82031 0.1875-0.82422 0.17188-0.82422 0.16797-0.83594 0.16406-0.83984 0.14453-0.84375 0.14844-0.85156 0.12891-0.85156 0.125-0.86328 0.11719-0.86719 0.10938-0.87109 0.097656-0.875 0.09375-0.88281 0.082032-0.89062 0.074218-0.89453 0.066406-0.89453 0.054688-0.90625 0.046875-0.91016 0.039063-0.91406 0.03125-0.92188 0.023437-0.92969 0.015625-0.92578v-1.7422l-0.011719-0.78906-0.015625-0.79297-0.023437-0.78125-0.027344-0.77344-0.03125-0.76953-0.042969-0.76562-0.042968-0.76172-0.10938-1.5-0.066406-0.74219-0.070312-0.73828-0.074219-0.72656-0.085937-0.72656-0.085938-0.72266-0.09375-0.70703-0.10156-0.71094-0.10547-0.69922-0.11328-0.69531-0.11719-0.69531-0.125-0.67969-0.13281-0.67969-0.13281-0.67187-0.14062-0.66797-0.14844-0.66016-0.15625-0.65625-0.15625-0.65234-0.16406-0.64453-0.17578-0.64063-0.17188-0.63281-0.18359-0.62891-0.19141-0.625-0.1875-0.61719-0.20312-0.60547-0.20312-0.60938-0.21484-0.60156-0.21484-0.59766-0.22266-0.58594-0.22656-0.58203-0.23438-0.58203-0.23828-0.57422-0.24219-0.57031-0.25-0.5625-0.26172-0.55469-0.26172-0.55078-0.26562-0.55078-0.26953-0.53906-0.28125-0.53906-0.28125-0.53516-0.29297-0.52734-0.29297-0.51953-0.60937-1.0312-0.3125-0.50391-0.32031-0.50391-0.32031-0.5-0.33203-0.49219-0.33594-0.48828-0.33984-0.48047-0.34766-0.48047-0.35156-0.46875-0.35938-0.47266-0.36328-0.46094-0.36328-0.45703-0.36719-0.44141-0.37891-0.44141-0.39062-0.4375-0.40234-0.44531-0.41797-0.44141-0.42969-0.44141-0.44141-0.44141-0.45703-0.44531-0.47266-0.44141-0.48047-0.44531-0.5-0.44531-0.51562-0.44531-0.52344-0.44531-0.53906-0.44531-0.55078-0.44922-0.57031-0.44531-0.58203-0.44141-0.58984-0.44531-0.61328-0.44531-0.61719-0.44531-0.64062-0.44531-0.64453-0.44531-0.66797-0.44141-0.67578-0.44531-0.69141-0.44141-0.70703-0.44141-0.71875-0.44141-0.73047-0.44531-0.75-0.4375-0.75781-0.44141-0.77344-0.4375-0.79297-0.4375-0.80469-0.43359-0.8125-0.44141-0.82812-0.43359-0.84766-0.43359-0.85547-0.43359-0.86719-0.43359-0.89062-0.43359-0.89453-0.42969-0.91016-0.42578-0.92578-0.42969-0.9375-0.42969-0.95703-0.42578-0.96484-0.42578-0.98047-0.42188-0.99609-0.42188-1.0039-0.42188-1.0234-0.41797-1.0391-0.41797-1.043-0.41797-1.0664-0.41797-1.0703-0.41797-1.0898-0.41016-1.1016-0.41406-1.1172-0.41016-1.1328-0.40625-0.57031-0.20703zm-34.137-343.31 0.97656 0.27344 0.91406 0.44141 0.83203 0.58984 0.71094 0.72656 0.57422 0.83594 0.42578 0.92578 0.26172 0.98047 0.085937 1.0117v137.9l-0.085937 0.99219-0.25 0.96875-0.41016 0.90625-0.55859 0.83203-0.69141 0.71875-0.80078 0.59766-0.89062 0.44922-0.95312 0.29297-0.99219 0.12891-0.99609-0.035156-0.97656-0.21094-1.0742-0.32812-1.0859-0.33594-1.0664-0.33594-1.0625-0.33984-1.0586-0.34766-1.0391-0.35156-1.0352-0.35547-1.0273-0.35547-1.0195-0.36328-1.0078-0.36328-0.99609-0.37109-0.98828-0.36719-0.98047-0.37891-0.97266-0.37891-0.95703-0.38672-0.94922-0.38281-0.94531-0.39844-0.9375-0.39453-0.92188-0.39453-0.91406-0.40625-0.90625-0.41016-0.89453-0.41016-0.89062-0.41406-0.87891-0.42188-0.86719-0.42188-1.7109-0.85547-0.84375-0.43359-0.83203-0.44531-0.82422-0.44141-0.8125-0.44922-0.80469-0.44922-0.79688-0.46094-0.78516-0.45703-0.78125-0.46484-0.76953-0.47266-0.76172-0.47266-0.74609-0.47656-0.73828-0.48047-0.73047-0.48828-0.72656-0.48828-0.71094-0.49219-0.70703-0.5-0.69141-0.50391-0.68359-0.51172-0.67969-0.51562-0.66406-0.51172-0.65625-0.52344-0.64453-0.52344-0.64063-0.53125-0.62891-0.53906-0.61719-0.54297-0.60938-0.53906-0.60156-0.55469-0.58984-0.55469-0.58203-0.55469-0.57031-0.56641-0.5625-0.5625-0.55469-0.57422-0.53906-0.58203-0.53125-0.57812-0.52344-0.58594-0.51172-0.59375-0.5-0.59375-0.48828-0.59375-0.47656-0.59375-0.47266-0.60156-0.46094-0.60156-0.45703-0.61328-0.44141-0.61328-0.44531-0.61719-0.42969-0.625-0.42969-0.62891-0.41406-0.63281-0.40625-0.63672-0.40234-0.64062-0.39844-0.64844-0.38672-0.65234-0.38281-0.64844-0.36719-0.66406-0.36328-0.66016-0.35938-0.67188-0.34375-0.67188-0.34375-0.67969-0.33203-0.67578-0.32422-0.6875-0.32031-0.69141-0.30859-0.69141-0.30469-0.69922-0.29297-0.70312-0.28516-0.70703-0.27734-0.71094-0.26953-0.71484-0.26562-0.71875-0.25781-0.72656-0.24609-0.72656-0.24219-0.73047-0.23047-0.73047-0.22266-0.74609-0.21875-0.74219-0.21094-0.74219-0.19922-0.75391-0.19141-0.75391-0.1875-0.75781-0.17969-0.75781-0.16797-0.76953-0.16406-0.77344-0.15234-0.76953-0.14844-0.78125-0.13672-0.77734-0.13672-0.78125-0.125-0.79297-0.11328-0.79297-0.10938-0.79688-0.10156-0.79688-0.09375-0.80078-0.085938-0.80859-0.082031-0.80859-0.070312-0.81641-0.058594-0.81641-0.058594-0.82422-0.050781-0.82422-0.039062-0.82812-0.03125-0.82812-0.027344-0.83594-0.019532-0.83984-0.011718-0.83984v-1.7109l0.015625-0.85937 0.023437-0.85938 0.03125-0.85547 0.039063-0.85156 0.046875-0.84375 0.054687-0.84766 0.070313-0.84375 0.078125-0.84375 0.078125-0.83203 0.09375-0.83594 0.10156-0.82812 0.11328-0.82422 0.12109-0.83203 0.125-0.81641 0.14062-0.82031 0.14453-0.8125 0.16016-0.8125 0.16016-0.80859 0.17578-0.80469 0.18359-0.80078 0.19141-0.80469 0.19922-0.78906 0.21094-0.79297 0.21875-0.78906 0.22656-0.78906 0.23828-0.78125 0.24219-0.77344 0.26172-0.77734 0.26172-0.76953 0.27344-0.76953 0.28516-0.76562 0.28516-0.75781 0.30078-0.75781 0.30859-0.75391 0.32031-0.75 0.32422-0.74219 0.33594-0.74219 0.34766-0.73828 0.35156-0.73828 0.36328-0.72656 0.36719-0.72656 0.37891-0.72656 0.39062-0.71484 0.39844-0.71484 0.40625-0.71094 0.41797-0.71094 0.42188-0.69922 0.43359-0.69922 0.4375-0.69141 0.45312-0.69531 0.46094-0.68359 0.46484-0.68359 0.47656-0.67578 0.48438-0.67969 0.49219-0.67188 0.50391-0.66016 0.51172-0.66797 0.51953-0.65625 0.52344-0.65234 0.53906-0.64844 0.54297-0.64453 0.55078-0.64453 0.56641-0.63672 0.56641-0.64062 0.58203-0.62109 0.58594-0.625 0.58984-0.61328 0.60156-0.60547 0.60938-0.59766 0.61328-0.58984 0.61719-0.58594 0.62109-0.57422 0.63672-0.57031 0.64062-0.55859 0.64453-0.55469 0.64844-0.54688 0.66406-0.53516 0.66016-0.53125 0.67187-0.51953 0.67969-0.51562 0.6875-0.51172 0.6875-0.49609 0.69922-0.48828 0.70703-0.48438 0.70703-0.47656 0.71875-0.46484 0.71875-0.46094 0.73438-0.45703 0.73047-0.44531 0.74219-0.43359 0.75-0.42969 0.75391-0.42188 0.75781-0.41016 0.76562-0.40625 0.76953-0.39844 0.78125-0.39062 0.78516-0.37891 0.78516-0.375 0.79688-0.36719 0.80469-0.35937 0.80859-0.34375 0.8125-0.34375 0.81641-0.33594 0.82422-0.32422 0.83594-0.32031 0.83594-0.30859 0.83984-0.30469 0.85156-0.29688 0.85156-0.28906 0.86328-0.28125 0.86719-0.26953 0.86719-0.26172 0.87891-0.26172 0.88281-0.25 0.88672-0.23828 1.7969-0.46094 0.90625-0.21484 0.91016-0.21094 0.91797-0.20703 0.91797-0.19531 0.92969-0.18359 0.93359-0.17969 0.9375-0.17188 0.94922-0.16797 0.94922-0.16016 0.92578-0.14453 1.0117-0.070313zm-7.6953 13.055-0.79688 0.19141-0.78906 0.19922-0.78125 0.20703-0.78125 0.21094-0.76953 0.21484-0.76562 0.22266-0.75781 0.23438-0.75391 0.23438-0.75 0.24219-0.74219 0.25-0.73047 0.25391-0.72656 0.26563-0.72266 0.26562-0.71484 0.27734-0.71094 0.28125-0.70312 0.28125-0.69531 0.30078-0.6875 0.29687-0.69141 0.30469-0.67578 0.3125-0.67188 0.31641-0.66797 0.32422-0.65625 0.33203-0.65625 0.33594-0.64844 0.33984-0.64062 0.35156-0.63672 0.35547-0.63281 0.36328-0.625 0.36719-0.61719 0.375-0.61328 0.37891-0.60547 0.38281-0.60156 0.39844-0.59766 0.39453-0.58984 0.40625-0.58203 0.41406-0.57812 0.41797-0.57422 0.42188-0.56641 0.42969-0.5625 0.4375-0.55469 0.44531-0.55078 0.44531-0.54688 0.45312-0.53906 0.46875-0.53516 0.46484-1.0547 0.95313-0.51172 0.48828-0.51563 0.5-0.50391 0.5-0.50391 0.50781-0.49609 0.51172-0.49219 0.51953-0.48828 0.53125-0.47656 0.53125-0.47656 0.54297-0.47266 0.54688-0.46094 0.54688-0.45703 0.55469-0.44141 0.55078-0.44141 0.55469-0.42969 0.55859-0.42188 0.5625-0.41797 0.5625-0.40625 0.56641-0.40234 0.57031-0.77344 1.1484-0.375 0.57422-0.36719 0.57812-0.36328 0.58594-0.35156 0.58594-0.34375 0.58594-0.33984 0.58984-0.33203 0.59766-0.32031 0.59766-0.3125 0.59766-0.30859 0.60156-0.30078 0.60547-0.29297 0.60938-0.28516 0.60938-0.27734 0.61328-0.27344 0.61719-0.26562 0.62109-0.25391 0.62109-0.25 0.62891-0.23828 0.62891-0.23047 0.63672-0.23047 0.63281-0.21484 0.64062-0.21094 0.64062-0.20703 0.64453-0.19531 0.64844-0.19141 0.65234-0.17578 0.65625-0.17969 0.65625-0.16406 0.66797-0.16406 0.66016-0.29688 1.3438-0.13672 0.67188-0.12891 0.68359-0.125 0.68359-0.11328 0.68359-0.10938 0.69531-0.10156 0.69141-0.09375 0.69531-0.085938 0.70312-0.082031 0.70703-0.070312 0.70312-0.0625 0.71875-0.054688 0.71484-0.050781 0.71484-0.042969 0.72656-0.03125 0.72656-0.027344 0.73047-0.015625 0.73828-0.011719 0.73828-0.007812 0.74219 0.007812 0.74219 0.003907 0.73828 0.015625 0.73047 0.054687 1.4531 0.039063 0.72266 0.039062 0.71094 0.046875 0.71094 0.054688 0.71094 0.066406 0.69922 0.0625 0.69141 0.078125 0.69531 0.082031 0.6875 0.085938 0.68359 0.089843 0.67969 0.097657 0.67578 0.10547 0.66797 0.11328 0.66797 0.12109 0.66016 0.12109 0.65625 0.13281 0.64844 0.13281 0.65234 0.14844 0.64453 0.14453 0.63672 0.16016 0.63672 0.16016 0.62891 0.16406 0.625 0.17969 0.625 0.17969 0.61719 0.18359 0.61328 0.19531 0.61328 0.19531 0.60547 0.20312 0.60156 0.21484 0.59766 0.21484 0.58984 0.22266 0.58984 0.23437 0.58594 0.23047 0.58203 0.24609 0.57422 0.25 0.57422 0.25 0.57031 0.25781 0.57031 0.27344 0.55859 0.26953 0.55469 0.27734 0.55469 0.28516 0.55469 0.29297 0.54687 0.30078 0.54297 0.30078 0.53516 0.30859 0.53516 0.31641 0.53516 0.32422 0.52344 0.32812 0.52734 0.33594 0.51953 0.33984 0.51953 0.34766 0.51562 0.35938 0.51172 0.35547 0.50391 0.36719 0.50391 0.375 0.5 0.37891 0.49609 0.38672 0.49609 0.39453 0.48437 0.39844 0.48828 0.39844 0.47266 0.40625 0.47266 0.41797 0.47266 0.42969 0.46484 0.43359 0.46484 0.44531 0.46094 0.45312 0.46094 0.46875 0.46094 0.47656 0.45703 0.48438 0.45703 0.49219 0.44922 0.50391 0.44922 0.51562 0.44922 0.52344 0.44531 0.53125 0.44531 0.54297 0.44531 0.55469 0.4375 0.5625 0.4375 0.57422 0.4375 0.58594 0.43359 0.59375 0.42578 0.60156 0.42969 0.60937 0.42969 0.625 0.42188 0.63281 0.41797 0.64844 0.42188 0.65625 0.41016 0.66016 0.41797 0.67188 0.41406 0.6875 0.40625 0.69531 0.40625 0.69922 0.40234 0.71484 0.39844 0.72656 0.40234 0.73438 0.39453 0.74609 0.39844 0.75391 0.39062 1.5391 0.76953 0.78906 0.38281 0.79688 0.38281 0.80469 0.37109 0.81641 0.375 0.82812 0.375 0.83594 0.36719 0.84375 0.36328 0.85938 0.36328 0.86719 0.36328 0.87891 0.35938 0.88281 0.35156 0.89844 0.35156 0.90625 0.34766 0.91797 0.34766 0.92578 0.33984 0.9375 0.34375 0.94922 0.33594 0.35938 0.125v-122.68z" fill-rule="evenodd"/>
  <use x="70" y="648.421875" xlink:href="#x"/>
  <use x="91.628906" y="648.421875" xlink:href="#b"/>
  <use x="106.164062" y="648.421875" xlink:href="#a"/>
  <use x="126.15625" y="648.421875" xlink:href="#f"/>
  <use x="146.042969" y="648.421875" xlink:href="#c"/>
  <use x="160.132812" y="648.421875" xlink:href="#a"/>
  <use x="180.125" y="648.421875" xlink:href="#e"/>
  <use x="211.480469" y="648.421875" xlink:href="#j"/>
  <use x="232.582031" y="648.421875" xlink:href="#i"/>
  <use x="262.054688" y="648.421875" xlink:href="#h"/>
  <use x="284.863281" y="648.421875" xlink:href="#g"/>
  <use x="305.847656" y="648.421875" xlink:href="#e"/>
  <use x="326.945312" y="648.421875" xlink:href="#b"/>
  <use x="341.480469" y="648.421875" xlink:href="#a"/>
  <use x="361.46875" y="648.421875" xlink:href="#f"/>
  <use x="381.359375" y="648.421875" xlink:href="#w"/>
  <use x="409.164062" y="648.421875" xlink:href="#v"/>
  <use x="431.972656" y="648.421875" xlink:href="#u"/>
  <use x="452.222656" y="648.421875" xlink:href="#t"/>
  <use x="473.320312" y="648.421875" xlink:href="#a"/>
  <use x="493.308594" y="648.421875" xlink:href="#s"/>
  <use x="503.414062" y="648.421875" xlink:href="#a"/>
  <use x="70" y="677.894531" xlink:href="#r"/>
  <use x="82.824219" y="677.894531" xlink:href="#b"/>
  <use x="97.359375" y="677.894531" xlink:href="#d"/>
  <use x="117.605469" y="677.894531" xlink:href="#q"/>
  <use x="158.578125" y="677.894531" xlink:href="#c"/>
  <use x="172.667969" y="677.894531" xlink:href="#p"/>
  <use x="193.652344" y="677.894531" xlink:href="#a"/>
  <use x="223.902344" y="677.894531" xlink:href="#o"/>
  <use x="248.570312" y="677.894531" xlink:href="#d"/>
  <use x="268.816406" y="677.894531" xlink:href="#n"/>
  <use x="289.800781" y="677.894531" xlink:href="#g"/>
  <use x="321.042969" y="677.894531" xlink:href="#m"/>
  <use x="342.644531" y="677.894531" xlink:href="#b"/>
  <use x="357.179688" y="677.894531" xlink:href="#d"/>
  <use x="377.429688" y="677.894531" xlink:href="#l"/>
  <use x="387.53125" y="677.894531" xlink:href="#a"/>
  <use x="407.523437" y="677.894531" xlink:href="#k"/>
  <use x="424.992188" y="677.894531" xlink:href="#c"/>
 </g>
</svg>
