<svg width="60" height="77" viewBox="0 0 60 77" fill="none" xmlns="http://www.w3.org/2000/svg">
<path d="M59.9726 69.3986L55.8005 20.947C55.4869 17.2981 52.4818 14.546 48.812 14.546H40.9912V10.9042C40.9912 4.89205 36.0899 0 30.0646 0C24.0402 0 19.1388 4.89125 19.1388 10.9042V14.546H11.1889C7.51816 14.546 4.51392 17.298 4.20034 20.947L0.0279119 69.3986C-0.14455 71.4041 0.484576 73.248 1.84915 74.7321C3.21372 76.2151 5.0008 77 7.01667 77H52.983C55.0006 77 56.7868 76.2163 58.1505 74.7321C59.5148 73.2483 60.1439 71.4041 59.9723 69.3986H59.9726ZM34.6765 42.5616C33.8715 42.5616 33.2164 41.9079 33.2164 41.1045C33.2164 39.3345 31.7732 37.8942 29.9995 37.8942H29.9978C29.141 37.8942 28.3339 38.2288 27.7253 38.835C27.1167 39.4424 26.7817 40.2483 26.7817 41.1045C26.7817 42.8746 28.225 44.3148 29.9986 44.3148C33.3826 44.3148 36.1348 47.0623 36.1348 50.4384C36.1348 53.2377 34.2369 55.6782 31.5186 56.372L31.4587 56.3871V60.4124C31.4587 61.2157 30.8036 61.8695 29.9986 61.8695C29.1936 61.8695 28.5385 61.2158 28.5385 60.4124V56.3879L28.4787 56.3728C25.7603 55.679 23.8624 53.2385 23.8624 50.4392C23.8624 49.6359 24.5175 48.9821 25.3225 48.9821C26.1275 48.9821 26.7826 49.6359 26.7826 50.4392C26.7826 52.2093 28.2258 53.6495 29.9995 53.6495C31.7731 53.6495 33.2164 52.2093 33.2164 50.4392C33.2164 48.6692 31.7731 47.2289 29.9995 47.2289C26.6155 47.2289 23.8633 44.4815 23.8633 41.1053C23.8633 38.3061 25.7612 35.8656 28.4795 35.1717L28.5394 35.1567V32.0311C28.5394 31.2278 29.1945 30.574 29.9995 30.574C30.8045 30.574 31.4596 31.2278 31.4596 32.0311V35.1567L31.5194 35.1717C34.2378 35.8656 36.1357 38.3061 36.1357 41.1053C36.1366 41.9079 35.4815 42.5616 34.6765 42.5616L34.6765 42.5616ZM37.7512 10.9037V14.5455H22.3797V10.9037C22.3797 6.67409 25.8281 3.23367 30.0654 3.23367C34.3037 3.23367 37.7512 6.67497 37.7512 10.9037Z" fill="#1E0039"/>
</svg>
