<svg width="56" height="70" viewBox="0 0 56 70" fill="none" xmlns="http://www.w3.org/2000/svg">
<path fill-rule="evenodd" clip-rule="evenodd" d="M24.4106 5.0225C14.386 6.14848 7.16805 14.9995 7.17959 22.3975C7.17959 25.6744 7.14603 28.2213 7.17959 31.4976C7.28325 36.3175 6.17997 42.8447 3.58979 46.8976C3.18463 47.5182 2.45997 48.2897 1.41579 49.2116C0.51434 50.0075 0 51.1384 0 52.3244V55.298C0 56.4577 0.964051 57.3976 2.15349 57.3976H53.8465C55.0359 57.3976 56 56.4577 56 55.298V52.3244C56 51.1383 55.4857 50.0075 54.5842 49.2116C53.54 48.2897 52.8153 47.5182 52.4102 46.8976C49.82 42.8449 48.7167 36.3175 48.8204 31.4976C48.854 28.2213 48.8204 25.6744 48.8204 22.3975C48.8319 15 41.6143 6.14875 31.5894 5.0225V3.5C31.5894 1.1665 30.393 0 27.9996 0C25.6062 0 24.4098 1.1665 24.4098 3.5L24.4106 5.0225ZM28.0004 70C22.0527 70 17.231 65.2989 17.231 59.5H38.7698C38.7698 65.2989 33.948 70 28.0004 70Z" fill="url(#paint0_linear_344_942)"/>
<defs>
<linearGradient id="paint0_linear_344_942" x1="28" y1="0" x2="28" y2="70" gradientUnits="userSpaceOnUse">
<stop stop-color="#1E0039"/>
<stop offset="1" stop-color="#FF00A0"/>
</linearGradient>
</defs>
</svg>
