<svg width="31.38" height="26" viewBox="0 0 31.38 26" fill="none" xmlns="http://www.w3.org/2000/svg"><path d="M29.051 6.362h-0.074l-0.075 0.024c-0.025 0 -2.972 0.713 -5.819 0.466 -2.847 -0.245 -5.644 -1.45 -5.693 -1.45l-0.075 -0.023h-0.05c0.025 0.345 0.05 0.713 0.075 1.081 0.867 0.345 3.194 1.18 5.645 1.402 2.773 0.246 5.521 -0.345 6.066 -0.467a1.517 1.517 0 0 1 1.313 1.598c0 0.024 -0.247 3.564 -0.595 6.342 -0.693 5.283 -4.729 9.979 -8.293 9.659 -2.946 -0.246 -5.645 -3.957 -6.339 -8.234 -0.247 0.394 -0.52 0.762 -0.792 1.106 0.965 4.326 3.862 7.84 7.056 8.111 0.148 0.024 0.273 0.024 0.421 0.024 4.011 0 8.194 -4.866 8.938 -10.544 0.372 -2.803 0.594 -6.366 0.619 -6.391 0.05 -1.402 -0.965 -2.605 -2.327 -2.703" fill="black"/><path d="M16.124 8.558c-0.119 -2.993 -0.499 -6.69 -0.499 -6.69 -0.118 -1.131 -1.094 -1.962 -2.163 -1.861 0 0 -2.806 1.308 -5.729 1.56 -2.925 0.276 -5.92 -0.479 -5.92 -0.479C0.741 1.19 -0.067 2.197 0.004 3.328c0 0 0.262 3.973 0.57 6.689 0.666 5.911 4.994 10.94 8.702 10.587 3.732 -0.377 7.109 -6.086 6.847 -12.046M3.285 8.13c-0.048 -0.628 0.642 -1.208 1.569 -1.282 0.928 -0.076 1.688 0.351 1.76 0.98 0.048 0.628 -0.642 1.208 -1.569 1.282 -0.927 0.076 -1.713 -0.351 -1.76 -0.98M8.992 16.579c-1.807 0.176 -4.137 -0.906 -4.328 -3.395 0 0 1.047 1.661 4.161 1.383 3.115 -0.302 3.876 -2.137 3.876 -2.137 0.213 2.49 -1.902 3.974 -3.709 4.149m2.663 -8.073c-0.928 0.076 -1.688 -0.351 -1.76 -0.98s0.642 -1.208 1.569 -1.282c0.928 -0.076 1.688 0.351 1.76 0.98s-0.642 1.182 -1.569 1.282" fill="black"/><path d="M17.931 20.711s1.061 -1.815 4.167 -1.497c3.132 0.316 3.889 2.304 3.889 2.304 0.202 -2.68 -1.919 -4.293 -3.712 -4.466s-4.143 0.979 -4.344 3.658" fill="black"/><path d="M21.161 13.273c0.05 -0.583 -0.644 -1.119 -1.551 -1.198s-1.686 0.328 -1.736 0.91c-0.051 0.583 0.644 1.12 1.551 1.199 0.908 0.08 1.685 -0.328 1.736 -0.911" fill="black"/><path d="M27.737 13.862c0.051 -0.583 -0.644 -1.119 -1.551 -1.199s-1.685 0.329 -1.736 0.911c-0.05 0.583 0.644 1.119 1.551 1.199s1.686 -0.329 1.736 -0.911" fill="black"/></svg>