<svg width="620pt" height="620pt" version="1.1" viewBox="0 0 620 620" xmlns="http://www.w3.org/2000/svg" xmlns:xlink="http://www.w3.org/1999/xlink"><defs><symbol id="w" overflow="visible"><path d="M16.621 -0.996c-0.858 0.443 -1.754 0.775 -2.685 0.996 -0.924 0.229 -1.893 0.345 -2.906 0.345 -3.011 0 -5.394 -0.837 -7.156 -2.518 -1.764 -1.688 -2.643 -3.972 -2.643 -6.851 0 -2.885 0.879 -5.168 2.643 -6.85 1.762 -1.688 4.145 -2.533 7.156 -2.533 1.013 0 1.982 0.118 2.905 0.346 0.932 0.221 1.827 0.554 2.685 0.996v3.737c-0.868 -0.581 -1.723 -1.01 -2.56 -1.287a8.443 8.443 0 0 0 -2.657 -0.415c-1.662 0 -2.969 0.537 -3.918 1.606 -0.951 1.062 -1.425 2.529 -1.425 4.4 0 1.865 0.474 3.332 1.426 4.402C8.435 -3.561 9.743 -3.032 11.403 -3.032c0.931 0 1.817 -0.131 2.657 -0.401 0.838 -0.276 1.692 -0.709 2.561 -1.301z"/></symbol><symbol id="c" overflow="visible"><path d="M12.164 -9.868a5.992 5.992 0 0 0 -1.149 -0.388 4.735 4.735 0 0 0 -1.12 -0.138c-1.118 0 -1.976 0.36 -2.575 1.08 -0.602 0.713 -0.899 1.73 -0.899 3.058V0H2.09v-13.562h4.331v2.228c0.554 -0.886 1.19 -1.529 1.91 -1.937 0.726 -0.415 1.594 -0.623 2.601 -0.623 0.145 0 0.305 0.01 0.471 0.027 0.173 0.012 0.422 0.035 0.747 0.07z"/></symbol><symbol id="a" overflow="visible"><path d="M15.625 -6.823v1.245H5.481c0.111 1.017 0.478 1.779 1.107 2.283 0.626 0.508 1.508 0.762 2.643 0.762a10.203 10.203 0 0 0 2.796 -0.402 14.798 14.798 0 0 0 2.948 -1.231v3.335a18.271 18.271 0 0 1 -3.073 0.872A15.948 15.948 0 0 1 8.831 0.345C6.374 0.345 4.464 -0.277 3.1 -1.523 1.745 -2.768 1.066 -4.515 1.066 -6.767c0 -2.214 0.668 -3.95 2.007 -5.217 1.336 -1.274 3.173 -1.91 5.508 -1.91 2.131 0 3.837 0.647 5.12 1.938 1.28 1.284 1.924 2.996 1.924 5.134zM11.169 -8.262c0 -0.82 -0.243 -1.481 -0.72 -1.979 -0.481 -0.505 -1.107 -0.762 -1.882 -0.762 -0.841 0 -1.523 0.236 -2.048 0.706s-0.855 1.149 -0.983 2.034z"/></symbol><symbol id="m" overflow="visible"><path d="M8.165 -6.103c-0.907 0 -1.588 0.151 -2.049 0.456 -0.453 0.305 -0.678 0.757 -0.678 1.356 0 0.554 0.183 0.989 0.554 1.301 0.367 0.305 0.875 0.457 1.522 0.457 0.82 0 1.509 -0.291 2.063 -0.872 0.56 -0.588 0.844 -1.321 0.844 -2.2v-0.499zm6.615 -1.633V0h-4.359v-2.007c-0.582 0.824 -1.239 1.422 -1.966 1.8 -0.729 0.367 -1.615 0.554 -2.657 0.554 -1.404 0 -2.542 -0.405 -3.418 -1.218 -0.879 -0.82 -1.314 -1.887 -1.314 -3.197 0 -1.585 0.543 -2.747 1.633 -3.487 1.097 -0.748 2.817 -1.121 5.162 -1.121h2.56v-0.345c0 -0.682 -0.273 -1.181 -0.816 -1.495 -0.546 -0.322 -1.391 -0.484 -2.533 -0.484 -0.934 0 -1.798 0.094 -2.601 0.277 -0.796 0.186 -1.532 0.463 -2.214 0.83v-3.307c0.92 -0.221 1.848 -0.391 2.781 -0.512a22.745 22.745 0 0 1 2.824 -0.181c2.443 0 4.207 0.484 5.287 1.453 1.086 0.962 1.633 2.53 1.633 4.706z"/></symbol><symbol id="b" overflow="visible"><path d="M6.823 -17.41v3.848h4.47v3.1H6.823v5.757c0 0.629 0.124 1.051 0.374 1.273s0.74 0.332 1.481 0.332h2.228V0H7.196C5.48 0 4.262 -0.353 3.543 -1.066c-0.713 -0.719 -1.066 -1.931 -1.066 -3.64v-5.757H0.332v-3.1h2.145v-3.847z"/></symbol><symbol id="l" overflow="visible"><path d="M11.307 -11.583v-7.266h4.359v18.848h-4.359v-1.965c-0.592 0.802 -1.245 1.391 -1.965 1.758S7.785 0.345 6.838 0.345c-1.671 0 -3.042 -0.664 -4.11 -1.993 -1.073 -1.329 -1.606 -3.034 -1.606 -5.121 0 -2.093 0.533 -3.806 1.605 -5.134 1.069 -1.329 2.439 -1.993 4.111 -1.993 0.942 0 1.771 0.19 2.492 0.568 0.726 0.381 1.387 0.962 1.979 1.744zM8.456 -2.795c0.921 0 1.626 -0.336 2.117 -1.01 0.489 -0.682 0.734 -1.668 0.734 -2.962 0 -1.29 -0.245 -2.274 -0.733 -2.949 -0.492 -0.682 -1.197 -1.024 -2.117 -1.024 -0.925 0 -1.63 0.343 -2.118 1.024 -0.492 0.675 -0.734 1.658 -0.734 2.949 0 1.293 0.243 2.28 0.734 2.961 0.487 0.675 1.193 1.01 2.117 1.01z"/></symbol><symbol id="k" overflow="visible"><path d="M9.3 -2.795c0.93 0 1.64 -0.337 2.131 -1.01 0.488 -0.682 0.733 -1.669 0.733 -2.963 0 -1.29 -0.245 -2.273 -0.733 -2.948 -0.491 -0.682 -1.2 -1.024 -2.131 -1.024 -0.934 0 -1.647 0.343 -2.145 1.024 -0.492 0.686 -0.733 1.668 -0.733 2.948 0 1.284 0.242 2.267 0.733 2.949 0.499 0.685 1.211 1.024 2.145 1.024zm-2.879 -8.788c0.599 -0.782 1.259 -1.364 1.979 -1.744 0.726 -0.377 1.564 -0.567 2.506 -0.567 1.678 0 3.051 0.664 4.124 1.993 1.069 1.329 1.605 3.041 1.605 5.134 0 2.087 -0.536 3.793 -1.605 5.121C13.957 -0.319 12.583 0.345 10.905 0.345 9.964 0.345 9.127 0.159 8.4 -0.207 7.681 -0.585 7.02 -1.169 6.421 -1.966V0H2.09v-18.849h4.331z"/></symbol><symbol id="j" overflow="visible"><path d="M0.305 -13.562h4.331L8.29 -4.359l3.1 -9.203h4.331L10.02 1.288c-0.574 1.501 -1.242 2.554 -2.006 3.155 -0.768 0.609 -1.771 0.914 -3.017 0.914H2.477v-2.852h1.356c0.737 0 1.274 -0.12 1.606 -0.359 0.338 -0.232 0.602 -0.647 0.788 -1.246l0.124 -0.373z"/></symbol><symbol id="i" overflow="visible"><path d="M13.244 -3.294H5.964L4.802 0H0.124l6.699 -18.074h5.55L19.069 0H14.393zM7.127 -6.643h4.941l-2.463 -7.196z"/></symbol><symbol id="h" overflow="visible"><path d="M12.676 -13.133v3.294a16.009 16.009 0 0 0 -2.685 -0.872 11.275 11.275 0 0 0 -2.45 -0.291c-0.824 0 -1.435 0.104 -1.841 0.305 -0.399 0.204 -0.595 0.523 -0.595 0.955 0 0.343 0.152 0.606 0.457 0.788 0.305 0.188 0.848 0.326 1.633 0.416l0.761 0.111c2.221 0.287 3.716 0.754 4.484 1.398 0.764 0.647 1.148 1.656 1.148 3.031 0 1.449 -0.536 2.539 -1.605 3.266 -1.063 0.72 -2.65 1.08 -4.761 1.08C6.318 0.345 5.387 0.277 4.429 0.138a22.373 22.373 0 0 1 -2.934 -0.636v-3.295c0.858 0.426 1.737 0.744 2.644 0.956 0.912 0.204 1.841 0.305 2.781 0.305 0.848 0 1.484 -0.115 1.91 -0.345 0.422 -0.239 0.638 -0.589 0.638 -1.052 0 -0.388 -0.15 -0.671 -0.443 -0.859 -0.298 -0.193 -0.883 -0.338 -1.758 -0.443l-0.762 -0.097c-1.931 -0.238 -3.28 -0.685 -4.055 -1.342 -0.775 -0.654 -1.162 -1.647 -1.162 -2.976 0 -1.439 0.487 -2.505 1.467 -3.197 0.986 -0.699 2.498 -1.051 4.539 -1.051 0.793 0 1.626 0.066 2.505 0.193 0.886 0.121 1.844 0.312 2.879 0.568z"/></symbol><symbol id="f" overflow="visible"><path d="M15.721 -8.262V0h-4.359v-6.297c0 -1.19 -0.027 -2.006 -0.083 -2.449s-0.149 -0.768 -0.276 -0.983a1.766 1.766 0 0 0 -0.692 -0.65 2.033 2.033 0 0 0 -0.983 -0.235c-0.906 0 -1.616 0.353 -2.131 1.051 -0.519 0.692 -0.775 1.657 -0.775 2.893v6.669H2.09v-18.848h4.331v7.266c0.654 -0.782 1.346 -1.364 2.076 -1.744 0.737 -0.377 1.55 -0.567 2.436 -0.567 1.568 0 2.757 0.484 3.57 1.453 0.81 0.962 1.218 2.352 1.218 4.18z"/></symbol><symbol id="v" overflow="visible"><path d="M0.872 -13.562H5.093L7.362 -4.22l2.284 -9.342h3.625l2.283 9.245 2.284 -9.245h4.207L18.475 0h-4.732l-2.284 -9.327L9.176 0H4.443z"/></symbol><symbol id="g" overflow="visible"><path d="M2.09 -13.562h4.331V0H2.09zm0 -5.287h4.331v3.543H2.09z"/></symbol><symbol id="e" overflow="visible"><path d="M15.721 -8.262V0h-4.359v-6.324c0 -1.169 -0.027 -1.98 -0.083 -2.422s-0.149 -0.768 -0.276 -0.983a1.766 1.766 0 0 0 -0.692 -0.65 2.033 2.033 0 0 0 -0.983 -0.235c-0.906 0 -1.616 0.353 -2.131 1.051 -0.519 0.692 -0.775 1.657 -0.775 2.893v6.669H2.09v-13.561h4.331v1.979c0.654 -0.782 1.346 -1.363 2.076 -1.744 0.737 -0.376 1.55 -0.567 2.436 -0.567 1.568 0 2.757 0.484 3.57 1.453 0.81 0.962 1.218 2.353 1.218 4.181z"/></symbol><symbol id="u" overflow="visible"><path d="M6.933 -14.559v11.03h1.674c1.91 0 3.367 -0.47 4.374 -1.412 1.004 -0.941 1.508 -2.314 1.508 -4.124 0 -1.789 -0.505 -3.149 -1.508 -4.083 -0.996 -0.941 -2.456 -1.411 -4.373 -1.411zm-4.65 -3.515h4.913c2.74 0 4.781 0.194 6.131 0.581 1.346 0.388 2.498 1.052 3.46 1.993a7.655 7.655 0 0 1 1.882 2.824c0.415 1.063 0.623 2.267 0.623 3.612 0 1.367 -0.207 2.585 -0.623 3.654a7.734 7.734 0 0 1 -1.882 2.837c-0.969 0.934 -2.131 1.599 -3.487 1.993C11.943 -0.194 9.908 0 7.196 0H2.283z"/></symbol><symbol id="t" overflow="visible"><path d="M11.002 -18.849v2.851H8.608c-0.609 0 -1.038 0.111 -1.287 0.332 -0.243 0.221 -0.36 0.608 -0.36 1.162v0.942h3.708v3.1H6.962V0H2.63v-10.462H0.47v-3.1H2.631v-0.942c0 -1.474 0.407 -2.567 1.231 -3.28 0.82 -0.709 2.097 -1.066 3.834 -1.066z"/></symbol><symbol id="d" overflow="visible"><path d="M8.538 -10.795c-0.961 0 -1.695 0.345 -2.2 1.038 -0.508 0.692 -0.762 1.688 -0.762 2.989s0.253 2.298 0.762 2.989c0.505 0.685 1.239 1.024 2.201 1.024 0.941 0 1.661 -0.339 2.158 -1.024 0.505 -0.692 0.762 -1.688 0.762 -2.989s-0.257 -2.298 -0.762 -2.989c-0.498 -0.692 -1.218 -1.038 -2.158 -1.038zm0 -3.1c2.332 0 4.156 0.633 5.467 1.895 1.308 1.257 1.966 3 1.966 5.232 0 2.225 -0.658 3.968 -1.966 5.231C12.695 -0.281 10.871 0.345 8.54 0.345c-2.346 0 -4.176 -0.626 -5.494 -1.882 -1.322 -1.263 -1.98 -3.006 -1.98 -5.231 0 -2.232 0.657 -3.975 1.98 -5.231 1.318 -1.263 3.148 -1.896 5.494 -1.896z"/></symbol><symbol id="s" overflow="visible"><path d="M14.656 -11.307c0.543 -0.837 1.194 -1.481 1.951 -1.924 0.755 -0.443 1.585 -0.664 2.492 -0.664 1.556 0 2.743 0.484 3.556 1.453 0.82 0.963 1.231 2.353 1.231 4.181V0h-4.359v-7.391c0.007 -0.117 0.014 -0.283 0.014 -0.498 0 -0.958 -0.146 -1.65 -0.43 -2.075 -0.276 -0.433 -0.73 -0.651 -1.356 -0.651 -0.824 0 -1.46 0.343 -1.91 1.024 -0.453 0.675 -0.686 1.655 -0.693 2.934v6.656h-4.359v-7.072c0 -1.501 -0.132 -2.467 -0.388 -2.893 -0.26 -0.432 -0.719 -0.65 -1.383 -0.65 -0.831 0 -1.475 0.343 -1.924 1.024 -0.453 0.675 -0.678 1.647 -0.678 2.92V0H2.062v-13.562H6.421v1.98c0.533 -0.765 1.143 -1.343 1.827 -1.73a4.593 4.593 0 0 1 2.283 -0.582c0.941 0 1.771 0.229 2.491 0.678 0.72 0.453 1.263 1.089 1.633 1.91z"/></symbol><symbol id="r" overflow="visible"><path d="M2.283 -18.074h5.204l6.574 12.4v-12.4h4.414V0h-5.204L6.699 -12.4V0H2.283z"/></symbol><symbol id="q" overflow="visible"><path d="M1.938 -5.287v-8.276h4.359v1.357c0 0.74 -0.006 1.661 -0.013 2.768 -0.011 1.107 -0.014 1.848 -0.014 2.214 0 1.1 0.027 1.888 0.083 2.367 0.062 0.48 0.159 0.826 0.291 1.037 0.183 0.288 0.419 0.509 0.706 0.664 0.283 0.149 0.612 0.221 0.983 0.221 0.903 0 1.612 -0.345 2.131 -1.037 0.515 -0.693 0.775 -1.655 0.775 -2.893v-6.699h4.331V0h-4.331v-1.965c-0.658 0.795 -1.35 1.38 -2.076 1.757C8.431 0.159 7.625 0.345 6.739 0.345c-1.56 0 -2.75 -0.478 -3.569 -1.439 -0.824 -0.958 -1.232 -2.356 -1.232 -4.193z"/></symbol><symbol id="p" overflow="visible"><path d="M2.283 -18.074h7.737c2.297 0 4.057 0.512 5.286 1.536 1.236 1.018 1.855 2.471 1.855 4.359 0 1.893 -0.62 3.35 -1.855 4.374 -1.228 1.024 -2.989 1.536 -5.286 1.536H6.933V0h-4.65zm4.65 3.377v5.051h2.588c0.903 0 1.599 -0.221 2.09 -0.664 0.498 -0.443 0.747 -1.066 0.747 -1.869 0 -0.81 -0.249 -1.432 -0.748 -1.869 -0.491 -0.431 -1.187 -0.65 -2.089 -0.65z"/></symbol><symbol id="o" overflow="visible"><path d="M2.09 -13.562h4.331V-0.249c0 1.816 -0.439 3.204 -1.314 4.166 -0.868 0.958 -2.132 1.439 -3.793 1.439H-0.83V2.505h0.761c0.82 0 1.383 -0.186 1.688 -0.554 0.312 -0.37 0.47 -1.104 0.47 -2.2zm0 -5.287h4.331v3.543H2.09z"/></symbol><symbol id="n" overflow="visible"><path d="M13.037 -13.133v3.529a6.742 6.742 0 0 0 -1.771 -0.899 5.871 5.871 0 0 0 -1.841 -0.291c-1.211 0 -2.156 0.356 -2.837 1.066 -0.675 0.702 -1.01 1.688 -1.01 2.962 0 1.267 0.335 2.252 1.01 2.961 0.682 0.702 1.626 1.052 2.837 1.052 0.671 0 1.314 -0.097 1.924 -0.291a5.679 5.679 0 0 0 1.688 -0.9v3.543c-0.675 0.249 -1.364 0.432 -2.062 0.554a11.55 11.55 0 0 1 -2.104 0.194C6.425 0.345 4.512 -0.28 3.127 -1.536 1.751 -2.788 1.066 -4.532 1.066 -6.767c0 -2.242 0.686 -3.989 2.062 -5.245 1.384 -1.252 3.298 -1.882 5.744 -1.882 0.709 0 1.412 0.066 2.104 0.194 0.692 0.12 1.377 0.311 2.062 0.567z"/></symbol></defs><g><path d="M285.2 35.588c-69.255 7.979 -119.12 70.694 -119.04 123.114 0 23.219 -0.232 41.265 0 64.481 0.717 34.152 -6.906 80.402 -24.8 109.12 -2.799 4.398 -7.806 9.864 -15.019 16.396a29.757 29.757 0 0 0 -9.781 22.056v21.07c0 8.217 6.661 14.877 14.877 14.877h357.12c8.217 0 14.877 -6.661 14.877 -14.877v-21.07a29.756 29.756 0 0 0 -9.781 -22.056c-7.214 -6.532 -12.22 -11.999 -15.019 -16.396 -17.894 -28.717 -25.517 -74.968 -24.8 -109.12 0.232 -23.215 0 -41.262 0 -64.481 0.08 -52.417 -49.783 -115.134 -119.04 -123.114V24.8c0 -16.535 -8.265 -24.8 -24.8 -24.8s-24.8 8.265 -24.8 24.8zM310 496c-41.089 0 -74.4 -33.311 -74.4 -74.4h148.8c0 41.089 -33.311 74.4 -74.4 74.4z" fill-rule="evenodd"/><use x="70" y="644" xlink:href="#w"/><use x="90.550781" y="644" xlink:href="#c"/><use x="104.359375" y="644" xlink:href="#a"/><use x="123.347656" y="644" xlink:href="#m"/><use x="142.242188" y="644" xlink:href="#b"/><use x="155.628906" y="644" xlink:href="#a"/><use x="174.617188" y="644" xlink:href="#l"/><use x="204.410156" y="644" xlink:href="#k"/><use x="224.453125" y="644" xlink:href="#j"/><use x="252.453125" y="644" xlink:href="#i"/><use x="274.121094" y="644" xlink:href="#h"/><use x="290.789062" y="644" xlink:href="#f"/><use x="310.71875" y="644" xlink:href="#v"/><use x="336.585938" y="644" xlink:href="#g"/><use x="346.1875" y="644" xlink:href="#e"/><use x="375.867188" y="644" xlink:href="#u"/><use x="399.109375" y="644" xlink:href="#g"/><use x="408.707031" y="644" xlink:href="#e"/><use x="428.640625" y="644" xlink:href="#a"/><use x="447.632812" y="644" xlink:href="#h"/><use x="464.296875" y="644" xlink:href="#f"/><use x="70" y="672" xlink:href="#t"/><use x="82.183594" y="672" xlink:href="#c"/><use x="95.992188" y="672" xlink:href="#d"/><use x="115.226562" y="672" xlink:href="#s"/><use x="154.152344" y="672" xlink:href="#b"/><use x="167.535156" y="672" xlink:href="#f"/><use x="187.46875" y="672" xlink:href="#a"/><use x="216.207031" y="672" xlink:href="#r"/><use x="239.640625" y="672" xlink:href="#d"/><use x="258.878906" y="672" xlink:href="#q"/><use x="278.8125" y="672" xlink:href="#e"/><use x="308.492188" y="672" xlink:href="#p"/><use x="329.015625" y="672" xlink:href="#c"/><use x="342.820312" y="672" xlink:href="#d"/><use x="362.058594" y="672" xlink:href="#o"/><use x="371.65625" y="672" xlink:href="#a"/><use x="390.648438" y="672" xlink:href="#n"/><use x="407.242188" y="672" xlink:href="#b"/></g></svg>