<?xml version="1.0" encoding="UTF-8" standalone="no" ?>
<!DOCTYPE svg PUBLIC "-//W3C//DTD SVG 1.1//EN" "http://www.w3.org/Graphics/SVG/1.1/DTD/svg11.dtd">
<svg xmlns="http://www.w3.org/2000/svg" xmlns:xlink="http://www.w3.org/1999/xlink" version="1.1" width="45" height="45" viewBox="0 0 1080 1080" xml:space="preserve">
<desc>Created with Fabric.js 5.2.4</desc>
<defs>
</defs>
<g transform="matrix(1 0 0 1 540 540)" id="439232f7-85ec-4d5d-9f1a-9d109af6c630"  >
<rect style="stroke: none; stroke-width: 1; stroke-dasharray: none; stroke-linecap: butt; stroke-dashoffset: 0; stroke-linejoin: miter; stroke-miterlimit: 4; fill: rgb(255,255,255); fill-rule: nonzero; opacity: 1; visibility: hidden;" vector-effect="non-scaling-stroke"  x="-540" y="-540" rx="0" ry="0" width="1080" height="1080" />
</g>
<g transform="matrix(1 0 0 1 540 540)" id="83c7c69f-48a3-46a8-8278-63e3946e56b5"  >
</g>
<g transform="matrix(1.33 0 0 1.33 572.22 410.68)"  >
<path style="stroke: none; stroke-width: 4; stroke-dasharray: none; stroke-linecap: butt; stroke-dashoffset: 0; stroke-linejoin: miter; stroke-miterlimit: 4; fill: rgb(0,0,0); fill-rule: nonzero; opacity: 1;" vector-effect="non-scaling-stroke"  transform=" translate(-310, -248)" d="M 483.6 406.702 C 484.91563626610167 406.70306142532826 486.17775082127383 406.1811708261602 487.10842149291443 405.25125039286837 C 488.03909216455503 404.32132995957653 488.5620004281668 403.05963669426836 488.562 401.74399999999997 L 488.562 380.83299999999997 C 488.562 377.57099999999997 486.95300000000003 374.51599999999996 484.265 372.66499999999996 C 476.058 367.01399999999995 469.993 361.30699999999996 466.01099999999997 355.054 C 447.912 326.00899999999996 438.097 278.969 438.962 237.91799999999998 C 439.062 227.70799999999997 439.08299999999997 218.29799999999997 439.049 205.86899999999997 C 439.03799999999995 203.04899999999998 439.03499999999997 201.17399999999998 439.01399999999995 195.51699999999997 C 438.98211381494065 188.1997088220788 438.96511377976236 180.8823603466839 438.9630000000005 173.56500000000042 C 439.039 120.42199999999997 383.33 64.47199999999997 319.92299999999994 64.50699999999996 L 300.078 64.50699999999996 C 236.67699999999996 64.47199999999997 180.96699999999998 120.42099999999996 181.04699999999997 173.58299999999997 C 181.04699999999997 180.08699999999996 181.03299999999996 185.28299999999996 180.99499999999998 195.51499999999996 C 180.97499999999997 201.17099999999996 180.97099999999998 203.04699999999997 180.95999999999998 205.86699999999996 C 180.92499999999998 218.29399999999995 180.94699999999997 227.70499999999996 181.04299999999998 237.75299999999996 C 181.91099999999997 278.96999999999997 172.09599999999998 326.01 153.92199999999997 355.17199999999997 C 150.01499999999996 361.306 143.94999999999996 367.01399999999995 135.74399999999997 372.66499999999996 C 133.05547602369927 374.51524949141685 131.4487965301407 377.5693239860379 131.44699999999997 380.83299999999997 L 131.44699999999997 401.74499999999995 C 131.44726489325663 403.06046341791944 131.97029026747816 404.3218997019816 132.9009321558386 405.2516038214098 C 133.83157404419907 406.181307940838 135.09353698354178 406.70306131222486 136.40899999999996 406.70199999999994 z M 334.8 50.468 C 404.055 58.447 453.92 121.162 453.84000000000003 173.582 C 453.84000000000003 196.801 454.07200000000006 214.844 453.84000000000003 238.063 C 453.12300000000005 272.215 460.74600000000004 318.465 478.64000000000004 347.183 C 481.31500000000005 351.387 486.00300000000004 355.795 492.70400000000006 360.407 C 499.42485542301995 365.0350443775344 503.43930062074907 372.6728105482511 503.44000000000005 380.83299999999997 L 503.44000000000005 401.74399999999997 C 503.44000000000005 412.70099999999996 494.5590000000001 421.582 483.60200000000003 421.582 L 382.91400000000004 421.582 C 376.02900000000005 455.554 346.00100000000003 481.122 309.99800000000005 481.122 C 273.99500000000006 481.122 243.96700000000004 455.55400000000003 237.08200000000005 421.582 L 136.39400000000006 421.582 C 125.43700000000007 421.582 116.55600000000007 412.701 116.55600000000007 401.74399999999997 L 116.55600000000007 380.83299999999997 C 116.55600000000007 372.676 120.56900000000007 365.03499999999997 127.29200000000007 360.407 C 133.99300000000008 355.79499999999996 138.68100000000007 351.387 141.35600000000008 347.183 C 159.25000000000009 318.466 166.87300000000008 272.215 166.1560000000001 238.063 C 165.9240000000001 214.844 166.1560000000001 196.801 166.1560000000001 173.582 C 166.07600000000008 121.16499999999999 215.93900000000008 58.44799999999999 285.1960000000001 50.46799999999999 L 285.1960000000001 39.68 C 285.1960000000001 23.145 293.46100000000007 14.879999999999999 309.9960000000001 14.879999999999999 C 326.5310000000001 14.879999999999999 334.7960000000001 23.145 334.7960000000001 39.68 z M 310 466.24 C 337.733 466.24 361.036 447.273 367.644 421.60200000000003 L 252.356 421.60200000000003 C 258.963 447.27400000000006 282.267 466.24 310 466.24 z M 300.081 49.6 L 319.91900000000004 49.6 L 319.91900000000004 39.681 C 319.91900000000004 31.363999999999997 318.31300000000005 29.761999999999997 310.00000000000006 29.761999999999997 C 301.68700000000007 29.761999999999997 300.0810000000001 31.363999999999997 300.0810000000001 39.681 z" stroke-linecap="round" />
</g>
</svg>