<svg width="24.117" height="30" viewBox="0 0 24.117 30" fill="none" xmlns="http://www.w3.org/2000/svg"><path d="m23.97 26 -1.726 -19.454a0.74 0.74 0 0 0 -0.746 -0.676h-3.64C17.853 2.633 15.22 0 11.985 0s-5.868 2.633 -5.874 5.868H2.472a0.749 0.749 0 0 0 -0.746 0.676L0 26v0.068c0 2.168 1.994 3.931 4.44 3.931h15.089c2.447 0 4.44 -1.764 4.44 -3.93zM11.984 1.49a4.391 4.391 0 0 1 4.384 4.377H7.601a4.391 4.391 0 0 1 4.384 -4.377m7.544 27.012H4.44c-1.615 0 -2.931 -1.074 -2.949 -2.41L3.154 7.358H6.11v2.614c0 0.41 0.336 0.746 0.746 0.746a0.747 0.747 0 0 0 0.746 -0.746v-2.613h8.768v2.614c0 0.41 0.336 0.746 0.746 0.746a0.747 0.747 0 0 0 0.745 -0.746V7.359h2.955l1.665 18.741c-0.019 1.329 -1.335 2.404 -2.95 2.404" fill="#868585"/><path d="M12.835 18.219h-1.707a1.123 1.123 0 1 1 0 -2.248h3.006a0.747 0.747 0 0 0 0.745 -0.746 0.747 0.747 0 0 0 -0.746 -0.746h-1.404v-1.037a0.747 0.747 0 0 0 -0.745 -0.745 0.747 0.747 0 0 0 -0.746 0.745v1.037h-0.106a2.618 2.618 0 0 0 -2.614 2.615 2.618 2.618 0 0 0 2.614 2.614h1.707a1.123 1.123 0 1 1 0 2.248H9.779a0.747 0.747 0 0 0 -0.746 0.746c0 0.409 0.336 0.746 0.746 0.746h1.459v1.062c0 0.409 0.336 0.746 0.746 0.746a0.747 0.747 0 0 0 0.745 -0.746v-1.062h0.143a2.613 2.613 0 0 0 2.576 -2.614 2.618 2.618 0 0 0 -2.614 -2.614" fill="#868585"/></svg>