<svg xmlns="http://www.w3.org/2000/svg" xmlns:xlink="http://www.w3.org/1999/xlink" version="1.1" x="0px" y="0px" viewBox="0 0 95 118.75" enable-background="new 0 0 95 95" xml:space="preserve"><g><path d="M71.029,20.129v-8.257c0-2.807-2.276-5.084-5.085-5.084H26.792c-2.809,0-5.085,2.277-5.085,5.084v33.05   c0,2.809,2.276,5.085,5.085,5.085h16.146l-14.191,35.2c-0.61,1.511,0.122,3.229,1.631,3.838c1.511,0.608,3.229-0.122,3.839-1.633   l13.12-32.542l13.121,32.542c0.61,1.511,2.327,2.241,3.838,1.633c1.511-0.609,2.242-2.327,1.633-3.838l-14.192-35.2h14.208   c2.809,0,5.085-2.276,5.085-5.085v-8.25l8.635,5.965l-0.03-28.479L71.029,20.129z M56.817,29.063   c-5.897,3.075-11.801,6.15-17.884,9.326c0-6.408,0-12.516,0-18.961c6.088,3.17,11.986,6.242,17.884,9.31   C56.817,28.846,56.817,28.952,56.817,29.063z"/><path d="M82.195,14.158c-0.571,0-1.036,0.463-1.036,1.036v26.407c0,0.573,0.464,1.037,1.036,1.037c0.573,0,1.036-0.464,1.036-1.037   V15.194C83.231,14.622,82.768,14.158,82.195,14.158z"/></g><text x="0" y="110" fill="#000000" font-size="5px" font-weight="bold" font-family="'Helvetica Neue', Helvetica, Arial-Unicode, Arial, Sans-serif">Created by Guilherme Furtado</text><text x="0" y="115" fill="#000000" font-size="5px" font-weight="bold" font-family="'Helvetica Neue', Helvetica, Arial-Unicode, Arial, Sans-serif">from the Noun Project</text></svg>