<?xml version="1.0" encoding="UTF-8"?>
<svg width="45" height="45" version="1.1" viewBox="0 0 700 700" fill="currentColor" xmlns="http://www.w3.org/2000/svg" xmlns:xlink="http://www.w3.org/1999/xlink">

 <g>
  <path d="m363.44 119.84h144.48v101.92h-144.48z"/>
  <path d="m192.08 311.36h144.48v-191.52h-144.48z"/>
  <path d="m363.44 248.64h144.48v191.52h-144.48z"/>
  <path d="m192.08 338.24h144.48v101.92h-144.48z"/>
  <use x="70" y="644" xlink:href="#x"/>
  <use x="90.550781" y="644" xlink:href="#b"/>
  <use x="104.359375" y="644" xlink:href="#a"/>
  <use x="123.347656" y="644" xlink:href="#g"/>
  <use x="142.242188" y="644" xlink:href="#e"/>
  <use x="155.628906" y="644" xlink:href="#a"/>
  <use x="174.617188" y="644" xlink:href="#d"/>
  <use x="204.410156" y="644" xlink:href="#l"/>
  <use x="224.453125" y="644" xlink:href="#k"/>
  <use x="252.453125" y="644" xlink:href="#c"/>
  <use x="272.382812" y="644" xlink:href="#j"/>
  <use x="292.429688" y="644" xlink:href="#g"/>
  <use x="311.320312" y="644" xlink:href="#i"/>
  <use x="340.5" y="644" xlink:href="#h"/>
  <use x="350.09375" y="644" xlink:href="#a"/>
  <use x="369.085938" y="644" xlink:href="#b"/>
  <use x="382.894531" y="644" xlink:href="#d"/>
  <use x="402.9375" y="644" xlink:href="#h"/>
  <use x="412.535156" y="644" xlink:href="#a"/>
  <use x="431.523437" y="644" xlink:href="#w"/>
  <use x="450.148437" y="644" xlink:href="#v"/>
  <use x="460.78125" y="644" xlink:href="#d"/>
  <use x="480.828125" y="644" xlink:href="#a"/>
  <use x="499.816406" y="644" xlink:href="#u"/>
  <use x="516.484375" y="644" xlink:href="#t"/>
  <use x="526.078125" y="644" xlink:href="#j"/>
  <use x="546.125" y="644" xlink:href="#c"/>
  <use x="70" y="672" xlink:href="#s"/>
  <use x="82.183594" y="672" xlink:href="#b"/>
  <use x="95.992188" y="672" xlink:href="#f"/>
  <use x="115.226562" y="672" xlink:href="#i"/>
  <use x="154.152344" y="672" xlink:href="#e"/>
  <use x="167.535156" y="672" xlink:href="#r"/>
  <use x="187.46875" y="672" xlink:href="#a"/>
  <use x="216.207031" y="672" xlink:href="#q"/>
  <use x="239.640625" y="672" xlink:href="#f"/>
  <use x="258.878906" y="672" xlink:href="#p"/>
  <use x="278.8125" y="672" xlink:href="#c"/>
  <use x="308.492188" y="672" xlink:href="#o"/>
  <use x="329.015625" y="672" xlink:href="#b"/>
  <use x="342.820312" y="672" xlink:href="#f"/>
  <use x="362.058594" y="672" xlink:href="#n"/>
  <use x="371.65625" y="672" xlink:href="#a"/>
  <use x="390.648438" y="672" xlink:href="#m"/>
  <use x="407.242188" y="672" xlink:href="#e"/>
 </g>
</svg>
