<svg xmlns="http://www.w3.org/2000/svg" xmlns:xlink="http://www.w3.org/1999/xlink" version="1.0" x="0px" y="0px" viewBox="0 0 100 125" enable-background="new 0 0 100 100" xml:space="preserve"><path d="M83.333,43.333c-2.461,0-4.59,1.349-5.742,3.333h-6.207c-0.541-3.491-1.904-6.701-3.903-9.432l4.385-4.385  c0.547,0.145,1.11,0.247,1.702,0.247c3.686,0,6.67-2.985,6.67-6.667c-0.003-3.682-2.984-6.668-6.666-6.667  c-3.688-0.002-6.667,2.985-6.667,6.667c0,0.592,0.101,1.157,0.247,1.704l-4.385,4.386c-2.734-1.999-5.943-3.364-9.434-3.904v-6.208  c1.986-1.155,3.334-3.281,3.334-5.742C56.667,12.983,53.682,10,50,10c-3.685,0-6.667,2.983-6.667,6.667  c0,2.461,1.349,4.587,3.333,5.742v6.208c-3.493,0.54-6.702,1.906-9.434,3.903l-4.385-4.385c0.146-0.547,0.249-1.112,0.249-1.706  c0-3.682-2.985-6.665-6.667-6.667c-3.683,0-6.667,2.985-6.667,6.667s2.983,6.668,6.667,6.668c0.592,0,1.157-0.103,1.704-0.249  l4.385,4.385c-1.997,2.731-3.363,5.941-3.903,9.434h-6.208c-1.155-1.984-3.281-3.333-5.742-3.333C12.983,43.333,10,46.318,10,50  c0,3.685,2.983,6.667,6.667,6.667c2.461,0,4.588-1.348,5.742-3.334h6.208c0.54,3.49,1.906,6.699,3.903,9.431l-4.386,4.388  c-0.547-0.146-1.112-0.247-1.704-0.247c-3.684,0-6.665,2.985-6.667,6.667c0.002,3.685,2.985,6.666,6.667,6.666  s6.668-2.981,6.667-6.666c0-0.593-0.103-1.159-0.248-1.706l4.385-4.388c2.731,1.998,5.941,3.365,9.434,3.906v6.207  c-1.984,1.152-3.333,3.278-3.333,5.742C43.333,87.015,46.315,90,50,90c3.682,0,6.667-2.985,6.667-6.667  c0-2.464-1.348-4.59-3.334-5.742v-6.207c3.49-0.541,6.699-1.908,9.431-3.906l4.392,4.388c-0.146,0.547-0.248,1.113-0.248,1.706  c-0.003,3.678,2.982,6.663,6.667,6.663c3.679,0,6.667-2.985,6.663-6.663c0-3.688-2.984-6.67-6.663-6.667  c-0.596,0-1.159,0.101-1.709,0.247l-4.388-4.388c1.998-2.731,3.365-5.94,3.906-9.431h6.207c1.152,1.986,3.281,3.334,5.742,3.334  C87.015,56.667,90,53.682,90,50S87.015,43.333,83.333,43.333z M50,65c-8.286,0-15-6.719-15-15c0-8.286,6.714-15,15-15  c8.281,0,15,6.714,15,15C65,58.281,58.281,65,50,65z"/><polygon points="45,58.333 58.333,50 45,41.667 "/><text x="0" y="115" fill="#000000" font-size="5px" font-weight="bold" font-family="'Helvetica Neue', Helvetica, Arial-Unicode, Arial, Sans-serif">Created by Danil Polshin</text><text x="0" y="120" fill="#000000" font-size="5px" font-weight="bold" font-family="'Helvetica Neue', Helvetica, Arial-Unicode, Arial, Sans-serif">from the Noun Project</text></svg>