<?xml version="1.0" encoding="UTF-8"?>
<svg width="1200pt" height="1200pt" version="1.1" viewBox="0 0 1200 1200" xmlns="http://www.w3.org/2000/svg">
 <path d="m1010.7 1024.3-57.172-665.31c-4.2969-50.105-45.477-87.895-95.766-87.895h-107.17v-50.008c0-82.555-67.164-149.73-149.73-149.73-82.555 0-149.72 67.164-149.72 149.73v50.008h-108.94c-50.301 0-91.469 37.789-95.766 87.895l-57.176 665.31c-2.3633 27.539 6.2578 52.859 24.957 73.238 18.699 20.363 43.188 31.141 70.812 31.141h629.89c27.648 0 52.125-10.762 70.812-31.141 18.695-20.375 27.316-45.699 24.965-73.238zm-346.64-368.51c-11.031 0-20.008-8.9766-20.008-20.008 0-24.305-19.777-44.082-44.082-44.082h-0.023437c-11.742 0-22.801 4.5938-31.141 12.918-8.3398 8.3398-12.93 19.406-12.93 31.164 0 24.305 19.777 44.082 44.082 44.082 46.371 0 84.086 37.727 84.086 84.086 0 38.438-26.008 71.949-63.258 81.477l-0.82031 0.20703v55.273c0 11.031-8.9766 20.008-20.008 20.008s-20.008-8.9766-20.008-20.008v-55.262l-0.82031-0.20703c-37.25-9.5273-63.258-43.039-63.258-81.477 0-11.031 8.9766-20.008 20.008-20.008s20.008 8.9766 20.008 20.008c0 24.305 19.777 44.082 44.082 44.082 24.305 0 44.082-19.777 44.082-44.082 0-24.305-19.777-44.082-44.082-44.082-46.371 0-84.086-37.727-84.086-84.086 0-38.438 26.008-71.949 63.258-81.477l0.82031-0.20703v-42.918c0-11.031 8.9766-20.008 20.008-20.008s20.008 8.9766 20.008 20.008v42.918l0.82031 0.20703c37.25 9.5273 63.258 43.039 63.258 81.477 0.011719 11.02-8.9648 19.996-19.996 19.996zm42.133-434.71v50.008h-210.64v-50.008c0-58.078 47.254-105.32 105.32-105.32 58.078 0 105.32 47.254 105.32 105.32z" fill="white"/>
</svg>
