<svg xmlns="http://www.w3.org/2000/svg" viewBox="0 0 128 160" x="0px" y="0px"><title>20</title><g data-name="1"><path d="M102.994,16.68927H25.00111a8.324,8.324,0,0,0-8.31184,8.31667V69.54339a8.32432,8.32432,0,0,0,8.31184,8.31833h8.502v8.31674a2.77545,2.77545,0,0,0,2.77494,2.77494H40.5584a24.143,24.143,0,0,0,.99165,2.36855l-3.03346,3.0318a2.77272,2.77272,0,0,0,0,3.921l7.8388,7.8437a2.77272,2.77272,0,0,0,3.921,0l3.03339-3.03345a24.57083,24.57083,0,0,0,2.37345.98675v4.47051a2.76746,2.76746,0,0,0,2.76845,2.76845H69.54339a2.76887,2.76887,0,0,0,2.7701-2.76845v-4.47051a24.9148,24.9148,0,0,0,2.37339-.98675l3.0318,3.03345a2.77471,2.77471,0,0,0,3.921,0l7.83881-7.8437a2.77718,2.77718,0,0,0,.0049-3.921L86.45,91.322a25.363,25.363,0,0,0,.98675-2.36855H91.717A2.77545,2.77545,0,0,0,94.492,86.17846V77.86172h8.502a8.32851,8.32851,0,0,0,8.31674-8.31833V25.00594a8.32816,8.32816,0,0,0-8.31674-8.31667ZM88.94856,83.40517h-3.5585a2.7691,2.7691,0,0,0-2.68066,2.07751,19.22253,19.22253,0,0,1-2.05969,4.94521,2.77444,2.77444,0,0,0,.42752,3.36829l2.52139,2.51974-3.91777,3.92261L77.15621,97.7123a2.77354,2.77354,0,0,0-3.36829-.42752,19.19063,19.19063,0,0,1-4.9403,2.05969A2.76837,2.76837,0,0,0,66.77,102.02672v3.74062H61.22665v-3.74062a2.7698,2.7698,0,0,0-2.07917-2.68225,19.21387,19.21387,0,0,1-4.9403-2.05969,2.77384,2.77384,0,0,0-3.36829.42752l-2.52464,2.52623-3.91778-3.92261,2.5214-2.51974a2.77483,2.77483,0,0,0,.42917-3.36829,19.22253,19.22253,0,0,1-2.05969-4.94521A2.771,2.771,0,0,0,42.605,83.40517H39.04654V77.84224H50.41621a14.078,14.078,0,0,0-.278,2.79283,13.86175,13.86175,0,1,0,27.44226-2.77335H88.94856v5.54345Zm-33.2653-2.7701a8.42607,8.42607,0,0,1,.47469-2.77335H71.8388a8.31618,8.31618,0,1,1-16.15554,2.77335Zm50.08408-11.09168a2.78034,2.78034,0,0,1-2.77335,2.77494H25.00111a2.77616,2.77616,0,0,1-2.76845-2.77494V25.00594a2.77477,2.77477,0,0,1,2.76845-2.77328H102.994a2.779,2.779,0,0,1,2.77335,2.77328ZM57.39182,55.47517a2.77875,2.77875,0,0,0,3.02365-.60309L71.50225,43.78365a2.77274,2.77274,0,0,0,0-3.921L60.41547,28.77578a2.77018,2.77018,0,0,0-4.73221,1.95892V52.91316a2.7826,2.7826,0,0,0,1.70856,2.562ZM61.22665,37.429l4.39572,4.39737-4.39572,4.39081ZM100.21905,64a2.75328,2.75328,0,0,1-2.76845,2.7554H30.54615A2.75365,2.75365,0,0,1,27.77605,64V58.45661a2.7717,2.7717,0,0,1,5.54339,0V61.2299H44.59483V58.45661a2.7717,2.7717,0,0,1,5.54339,0V61.2299H72.31349V58.45661a2.77412,2.77412,0,0,1,5.54823,0V61.2299h5.54345V58.45661a2.7717,2.7717,0,0,1,5.54339,0V61.2299h8.502A2.76887,2.76887,0,0,1,100.21905,64Z" fill-rule="evenodd"/></g><text x="0" y="143" fill="#000000" font-size="5px" font-weight="bold" font-family="'Helvetica Neue', Helvetica, Arial-Unicode, Arial, Sans-serif">Created by Gilang Kampus</text><text x="0" y="148" fill="#000000" font-size="5px" font-weight="bold" font-family="'Helvetica Neue', Helvetica, Arial-Unicode, Arial, Sans-serif">from the Noun Project</text></svg>