<?xml version="1.0" encoding="UTF-8"?>
<svg width="700pt" height="700pt" version="1.1" viewBox="0 0 700 700" xmlns="http://www.w3.org/2000/svg">
 <path d="m542.16 226.2c-105.89-114.93-278.43-114.93-384.32 0l-35 37.988c-8.2305 8.9375-8.2305 22.688 0 31.625l35 37.988c105.89 114.93 278.43 114.93 384.32 0l35-37.988c8.2305-8.9375 8.2305-22.688 0-31.625zm-192.16-62.867c-64.434 0-116.67 52.234-116.67 116.67s52.234 116.67 116.67 116.67 116.67-52.234 116.67-116.67-52.234-116.67-116.67-116.67zm0 163.34c25.773 0 46.668-20.895 46.668-46.668s-20.895-46.668-46.668-46.668-46.668 20.895-46.668 46.668 20.895 46.668 46.668 46.668z" fill-rule="evenodd"/>
</svg>
