<svg xmlns="http://www.w3.org/2000/svg" xmlns:xlink="http://www.w3.org/1999/xlink" xml:space="preserve" version="1.1" style="shape-rendering:geometricPrecision;text-rendering:geometricPrecision;image-rendering:optimizeQuality;" viewBox="0 0 60000 75000" x="0px" y="0px" fill-rule="evenodd" clip-rule="evenodd"><defs><style type="text/css">
   
    .fil0 {fill:black;fill-rule:nonzero}
   
  </style></defs><g><path class="fil0" d="M10439 40065c-11,-16 -21,-33 -29,-51 -352,-617 -680,-1248 -981,-1890 -883,-1881 -1552,-3875 -1960,-5927 -333,-63 -660,-153 -965,-279 -296,-122 -571,-278 -812,-476 -395,-154 -840,-256 -1286,-357 -1162,-266 -2323,-531 -2869,-1743 -3,-6 -6,-12 -8,-18 -406,-986 -332,-1698 -255,-2451 58,-564 118,-1153 -50,-1895 -20,-84 -5,-168 46,-219 76,-75 202,-47 282,64 547,754 1277,1223 1915,1633 295,190 572,368 810,557 352,281 577,581 737,927 154,331 239,691 318,1111 26,138 32,173 38,207 134,741 280,1544 979,2101 8,7 16,14 24,21 59,28 119,55 180,81 257,106 535,185 821,242 -463,-2602 -504,-5290 -32,-7952 11,-63 23,-126 35,-190 -377,-305 -730,-644 -1007,-1009 -196,-257 -355,-528 -461,-810 -266,-336 -604,-662 -942,-988 -882,-850 -1765,-1700 -1595,-2907 1,-6 2,-12 3,-18 172,-961 619,-1450 1092,-1967 354,-387 724,-791 974,-1438 27,-73 86,-128 158,-137 107,-13 203,79 215,206 78,868 470,1627 813,2290 159,307 307,595 415,869 160,406 197,757 153,1104 -43,333 -160,649 -316,1006 -51,117 -64,147 -77,176 -279,626 -582,1306 -265,2113 4,10 7,19 9,29 37,54 75,108 116,161 224,295 507,575 814,834 438,-2080 1196,-4136 2316,-6115 -148,-384 -272,-785 -341,-1175 -47,-267 -69,-529 -56,-778 -68,-352 -182,-726 -296,-1100 -297,-975 -594,-1950 -166,-2770 2,-4 4,-8 6,-12 363,-638 763,-819 1185,-1010 317,-144 647,-293 972,-669 36,-43 86,-60 132,-38 68,33 100,139 72,237 -189,668 -160,1382 -135,2006 12,289 23,559 13,803 -15,362 -87,634 -208,871 -116,228 -272,413 -462,613 -62,66 -78,82 -94,98 -337,349 -702,727 -731,1446 0,9 -1,17 -2,25 7,54 16,109 26,165 56,315 152,643 270,964 1018,-1728 2317,-3395 3927,-4963 -18,-422 -10,-847 39,-1237 34,-265 87,-514 165,-735 40,-353 48,-746 56,-1140 21,-1026 43,-2053 616,-2601 3,-3 6,-6 9,-8 471,-412 847,-392 1246,-370 298,16 610,33 978,-157 41,-22 87,-14 118,27 47,61 44,173 -5,250 -336,521 -506,1185 -655,1764 -69,268 -133,520 -208,738 -110,323 -244,537 -407,697 -156,154 -335,250 -545,344 -69,31 -86,38 -104,46 -371,161 -773,337 -992,978 -3,8 -6,15 -9,22 -9,53 -17,107 -24,162 -39,308 -49,646 -40,989 533,-506 1099,-1002 1698,-1486 1222,-986 2997,-1856 3885,-3089 562,-780 1124,-1561 1860,-1555 4,0 7,0 11,0 584,33 865,332 1163,647 223,236 455,483 842,611 44,14 75,54 77,109 4,83 -58,168 -136,190 -538,152 -1022,539 -1446,878 -196,157 -380,303 -553,417 -257,168 -475,234 -686,236 -203,2 -392,-57 -605,-142 -70,-28 -88,-35 -105,-42 -287,-117 -624,-340 -953,-142 -544,329 -2247,1966 -2973,2551 -133,108 -265,216 -395,325 9,-2 18,-4 26,-6 175,-41 345,-56 503,-33 232,-60 483,-169 734,-278 654,-284 1308,-568 1789,-82 2,2 5,5 7,7 372,409 447,843 528,1300 60,343 123,701 330,1061 24,40 30,94 11,142 -28,71 -99,102 -159,69 -409,-224 -868,-218 -1270,-213 -186,3 -360,5 -515,-14 -230,-28 -397,-115 -537,-252 -134,-131 -237,-304 -346,-514 -36,-69 -45,-86 -54,-104 -190,-371 -395,-774 -852,-830 -5,-1 -11,-2 -16,-3 -35,6 -71,13 -108,22 -238,56 -493,169 -742,309 -2,1 -5,2 -7,4 -1357,1214 -2510,2494 -3473,3820 168,-96 337,-163 502,-191 232,-143 473,-343 713,-544 626,-523 1253,-1046 1881,-693 3,2 6,3 9,5 493,309 678,744 873,1202 146,344 299,703 606,1015 35,35 54,90 46,147 -12,85 -81,142 -152,127 -488,-100 -975,62 -1400,204 -197,66 -381,127 -551,160 -251,48 -449,12 -631,-86 -174,-94 -325,-243 -491,-429 -54,-61 -68,-77 -82,-92 -291,-330 -606,-689 -1105,-593 -6,1 -12,2 -18,2 -36,18 -73,38 -109,59 -220,129 -444,314 -659,525 -1632,2475 -2633,5094 -3102,7740 -38,212 -72,424 -103,637l3 -7c129,-261 277,-489 447,-668 166,-351 306,-771 446,-1191 365,-1095 729,-2190 1620,-2339 4,-1 9,-2 13,-2 719,-82 1179,232 1665,564 364,249 744,508 1264,587 59,8 112,52 138,121 38,103 -2,222 -88,266 -588,304 -1017,891 -1393,1404 -174,237 -336,460 -501,638 -243,264 -479,393 -734,440 -244,45 -497,11 -788,-49 -95,-20 -120,-25 -144,-30 -512,-112 -1068,-234 -1551,291 -6,6 -12,12 -18,17 -28,50 -56,103 -83,157 -175,354 -315,784 -426,1231 -7,29 -19,54 -34,75 -197,2737 142,5471 909,8072 2,-24 3,-48 5,-71 25,-315 80,-610 174,-869 26,-420 2,-892 -23,-1363 -64,-1230 -128,-2460 661,-3072 4,-3 8,-6 12,-9 651,-457 1204,-402 1789,-343 438,44 896,89 1417,-110 59,-24 126,-10 175,42 74,77 81,211 16,299 -444,599 -631,1381 -795,2065 -76,316 -147,613 -236,869 -132,379 -307,625 -531,804 -215,172 -467,273 -765,369 -98,31 -123,39 -147,47 -528,164 -1100,342 -1361,1094 -3,9 -7,17 -11,26 -8,63 -15,127 -20,192 -31,394 -10,833 43,1276 283,802 606,1588 966,2355 294,625 610,1235 949,1828 633,895 1312,1750 2037,2558 -17,-45 -33,-90 -48,-135 -104,-307 -172,-612 -189,-907 -145,-405 -359,-830 -573,-1255 -557,-1107 -1114,-2215 -627,-3233 2,-5 5,-10 7,-15 420,-796 957,-1060 1524,-1339 425,-209 869,-428 1273,-910 45,-55 113,-81 180,-61 100,30 161,150 136,269 -170,810 -29,1644 96,2373 57,337 111,654 132,942 31,427 -33,756 -168,1050 -130,282 -324,520 -562,779 -78,85 -99,107 -118,128 -424,453 -884,945 -823,1793 1,10 1,20 0,30 18,63 38,126 59,190 142,417 362,848 616,1261 4,7 8,14 12,21 1482,1496 3127,2803 4911,3869 -175,-244 -319,-499 -419,-763 -292,-365 -663,-718 -1034,-1072 -968,-921 -1935,-1843 -1756,-3162 1,-7 2,-13 3,-20 183,-1050 668,-1588 1182,-2155 385,-425 786,-869 1056,-1577 30,-80 93,-140 172,-151 117,-15 222,85 236,224 89,947 521,1773 899,2494 175,334 338,647 458,946 176,442 219,825 172,1204 -45,364 -172,709 -340,1100 -55,128 -70,161 -84,192 -302,686 -629,1430 -279,2309 4,10 8,21 10,32 40,59 83,117 127,175 276,358 630,696 1014,1004 2632,1331 5531,2152 8630,2318 124,7 228,75 309,197 459,689 489,3160 -1494,2705 -2275,-521 -4599,-1446 -6820,-2706 -186,164 -374,315 -565,449 -371,262 -750,461 -1131,571 -487,358 -979,837 -1471,1315 -1283,1248 -2565,2495 -4047,1956 -7,-2 -15,-5 -22,-8 -1171,-489 -1681,-1322 -2219,-2203 -404,-660 -825,-1348 -1580,-1897 -86,-60 -141,-168 -135,-287 9,-177 148,-313 312,-304 1113,63 2164,-408 3082,-820 425,-191 823,-369 1195,-484 550,-170 1001,-155 1428,-7 409,142 780,402 1192,734 135,109 170,137 203,164 723,591 1507,1231 2601,892 13,-4 26,-7 39,-9 77,-48 154,-99 231,-153 106,-75 212,-156 318,-242 -745,-445 -1476,-927 -2188,-1445 -889,-646 -1749,-1346 -2568,-2096 -333,102 -667,180 -995,222 -405,52 -802,51 -1177,-22 -536,80 -1108,255 -1679,430 -1490,456 -2980,912 -4190,-150 -6,-5 -12,-10 -18,-16 -939,-890 -1187,-1776 -1449,-2712 -196,-701 -402,-1433 -947,-2195 -63,-85 -85,-195 -49,-288 54,-139 216,-188 362,-111 997,524 2075,593 3017,652 436,28 845,54 1213,119 545,97 951,302 1302,602 336,288 606,654 895,1096 95,145 119,182 142,218 505,782 1053,1629 2136,1823 13,2 25,5 38,9 82,-5 166,-14 250,-25 211,-27 426,-71 642,-128 -1617,-1554 -3059,-3303 -4231,-5207 -446,-33 -889,-105 -1301,-233 -361,-111 -701,-266 -1002,-473 -481,-138 -1018,-208 -1555,-279 -1401,-184 -2801,-367 -3547,-1744 -4,-7 -8,-14 -11,-21 -561,-1124 -531,-1979 -500,-2881 23,-676 48,-1382 -211,-2245 -30,-97 -19,-199 37,-265 84,-98 236,-78 341,44 710,833 1615,1307 2406,1722 366,192 709,371 1006,570 440,293 732,625 950,1017 209,376 340,794 467,1284 42,161 52,202 62,242 219,864 456,1801 1331,2384 10,7 20,15 30,23 72,27 146,52 221,75 292,90 604,150 924,187 -10,-17 -20,-34 -30,-52zm39122 0c11,-16 21,-33 29,-51 352,-617 680,-1248 981,-1890 884,-1881 1552,-3875 1960,-5927 333,-63 660,-153 965,-279 296,-122 571,-278 812,-476 395,-154 840,-256 1286,-357 1162,-266 2323,-531 2869,-1743 3,-6 6,-12 8,-18 406,-986 332,-1698 255,-2451 -58,-564 -118,-1153 50,-1895 20,-84 5,-168 -46,-219 -76,-75 -202,-47 -282,64 -547,754 -1277,1223 -1915,1633 -295,190 -572,368 -810,557 -352,281 -577,581 -737,927 -154,331 -239,691 -318,1111 -26,138 -32,173 -38,207 -134,741 -280,1544 -979,2101 -8,7 -16,14 -24,21 -59,28 -119,55 -180,81 -257,106 -535,185 -821,242 463,-2602 504,-5290 32,-7952 -11,-63 -23,-126 -35,-190 377,-305 730,-644 1007,-1009 196,-257 355,-528 461,-810 266,-336 604,-662 942,-988 882,-850 1765,-1700 1595,-2907 -1,-6 -2,-12 -3,-18 -172,-961 -619,-1450 -1092,-1967 -354,-387 -724,-791 -974,-1438 -27,-73 -86,-128 -158,-137 -107,-13 -203,79 -215,206 -78,868 -470,1627 -813,2290 -159,307 -307,595 -415,869 -160,406 -197,757 -153,1104 43,333 160,649 316,1006 51,117 64,147 77,176 279,626 582,1306 265,2113 -4,10 -7,19 -9,29 -37,54 -75,108 -116,161 -224,295 -507,575 -814,834 -438,-2080 -1196,-4136 -2316,-6115 148,-384 272,-785 341,-1175 47,-267 69,-529 56,-778 68,-352 182,-726 296,-1100 297,-975 594,-1950 166,-2770 -2,-4 -4,-8 -6,-12 -363,-638 -763,-819 -1185,-1010 -317,-144 -647,-293 -972,-669 -36,-43 -86,-60 -132,-38 -68,33 -100,139 -72,237 189,668 160,1382 135,2006 -12,289 -23,559 -13,803 15,362 87,634 208,871 116,228 272,413 462,613 62,66 78,82 94,98 337,349 702,727 731,1446 0,9 1,17 2,25 -7,54 -16,109 -26,165 -56,315 -152,643 -270,964 -1018,-1728 -2317,-3395 -3927,-4963 18,-422 10,-847 -39,-1237 -34,-265 -87,-514 -165,-735 -40,-353 -48,-746 -56,-1140 -21,-1026 -43,-2053 -616,-2601 -3,-3 -6,-6 -9,-8 -471,-412 -848,-392 -1246,-370 -298,16 -610,33 -978,-157 -41,-22 -87,-14 -118,27 -47,61 -44,173 5,250 336,521 506,1185 655,1764 69,268 133,520 208,738 110,323 244,537 407,697 156,154 335,250 545,344 69,31 86,38 104,46 371,161 773,337 992,978 3,8 6,15 9,22 9,53 17,107 24,162 39,308 49,646 40,989 -533,-506 -1099,-1002 -1698,-1486 -1222,-986 -2997,-1856 -3885,-3089 -562,-780 -1124,-1561 -1860,-1555 -4,0 -7,0 -11,0 -584,33 -865,332 -1163,647 -223,236 -455,483 -842,611 -44,14 -75,54 -77,109 -4,83 58,168 136,190 538,152 1022,539 1446,878 196,157 380,303 553,417 257,168 475,234 686,236 203,2 392,-57 605,-142 70,-28 88,-35 105,-42 287,-117 624,-340 953,-142 544,329 2247,1966 2973,2551 133,108 265,216 395,325 -9,-2 -18,-4 -27,-6 -175,-41 -345,-56 -503,-33 -232,-60 -483,-169 -734,-278 -654,-284 -1308,-568 -1789,-82 -2,2 -5,5 -7,7 -372,409 -447,843 -528,1300 -60,343 -123,701 -330,1061 -24,40 -30,94 -11,142 28,71 99,102 159,69 409,-224 868,-218 1270,-213 186,3 360,5 515,-14 230,-28 397,-115 537,-252 134,-131 237,-304 346,-514 36,-69 45,-86 54,-104 190,-371 395,-774 852,-830 5,-1 11,-2 16,-3 35,6 71,13 108,22 238,56 493,169 742,309 2,1 5,2 7,4 1357,1214 2510,2494 3473,3820 -168,-96 -337,-163 -502,-191 -232,-143 -473,-343 -713,-544 -626,-523 -1253,-1046 -1881,-693 -3,2 -6,3 -9,5 -493,309 -678,744 -873,1202 -146,344 -299,703 -606,1015 -35,35 -54,90 -46,147 12,85 81,142 152,127 488,-100 975,62 1400,204 197,66 381,127 551,160 251,48 449,12 631,-86 174,-94 325,-243 491,-429 54,-61 68,-77 82,-92 291,-330 606,-689 1105,-593 6,1 12,2 18,2 36,18 73,38 109,59 220,129 444,314 659,525 1632,2475 2633,5094 3102,7740 38,212 72,424 103,637l-3 -7c-129,-261 -277,-489 -447,-668 -166,-351 -306,-771 -446,-1191 -365,-1095 -729,-2190 -1620,-2339 -4,-1 -9,-2 -13,-2 -719,-82 -1179,232 -1665,564 -364,249 -744,508 -1264,587 -59,8 -112,52 -138,121 -38,103 2,222 88,266 588,304 1017,891 1393,1404 174,237 336,460 501,638 243,264 479,393 734,440 244,45 497,11 788,-49 95,-20 120,-25 144,-30 512,-112 1068,-234 1551,291 6,6 12,12 18,17 28,50 56,103 83,157 175,354 315,784 426,1231 7,29 19,54 34,75 197,2737 -142,5471 -909,8072 -2,-24 -3,-48 -5,-71 -25,-315 -80,-610 -174,-869 -26,-420 -2,-892 23,-1363 64,-1230 128,-2460 -661,-3072 -4,-3 -8,-6 -12,-9 -651,-457 -1204,-402 -1789,-343 -438,44 -896,89 -1417,-110 -59,-24 -126,-10 -175,42 -74,77 -81,211 -16,299 444,599 631,1381 795,2065 76,316 147,613 236,869 132,379 307,625 531,804 215,172 467,273 765,369 98,31 123,39 147,47 528,164 1100,342 1361,1094 3,9 7,17 11,26 8,63 15,127 20,192 31,394 10,833 -43,1276 -283,802 -606,1588 -966,2355 -294,625 -610,1235 -949,1828 -633,895 -1312,1750 -2037,2558 17,-45 33,-90 48,-135 104,-307 172,-612 189,-907 145,-405 359,-830 573,-1255 557,-1107 1114,-2215 627,-3233 -2,-5 -5,-10 -7,-15 -420,-796 -957,-1060 -1524,-1339 -425,-209 -869,-428 -1273,-910 -45,-55 -113,-81 -180,-61 -100,30 -161,150 -136,269 170,810 29,1644 -96,2373 -57,337 -111,654 -132,942 -31,427 33,756 168,1050 130,282 324,520 562,779 78,85 99,107 118,128 424,453 884,945 823,1793 -1,10 -1,20 0,30 -18,63 -38,126 -59,190 -142,417 -362,848 -616,1261 -4,7 -8,14 -12,21 -1482,1496 -3127,2803 -4911,3869 175,-244 319,-499 419,-763 292,-365 663,-718 1034,-1072 968,-921 1935,-1843 1756,-3162 -1,-7 -2,-13 -3,-20 -183,-1050 -668,-1588 -1182,-2155 -385,-425 -786,-869 -1056,-1577 -29,-80 -93,-140 -172,-151 -117,-15 -222,85 -236,224 -89,947 -521,1773 -899,2494 -175,334 -338,647 -458,946 -176,442 -219,825 -172,1204 45,364 172,709 340,1100 55,128 70,161 84,192 302,686 629,1430 279,2309 -4,10 -8,21 -10,32 -40,59 -83,117 -127,175 -276,358 -630,696 -1014,1004 -2632,1331 -5531,2152 -8630,2318 -124,7 -228,75 -309,197 -507,761 -551,3195 1689,2660 2213,-529 4468,-1437 6625,-2660 186,164 374,315 565,449 371,262 750,461 1131,571 487,358 979,837 1471,1315 1283,1248 2565,2495 4047,1956 7,-2 15,-5 22,-8 1171,-489 1681,-1322 2219,-2203 403,-660 825,-1348 1580,-1897 86,-60 141,-168 135,-287 -9,-177 -148,-313 -312,-304 -1113,63 -2164,-408 -3082,-820 -425,-191 -823,-369 -1195,-484 -550,-170 -1001,-155 -1428,-7 -409,142 -780,402 -1192,734 -135,109 -170,137 -203,164 -723,591 -1507,1231 -2601,892 -13,-4 -26,-7 -39,-9 -77,-48 -154,-99 -231,-153 -106,-75 -212,-156 -318,-242 745,-445 1476,-927 2188,-1445 889,-646 1749,-1346 2568,-2096 333,102 667,180 995,222 405,52 802,51 1177,-22 536,80 1108,255 1679,430 1490,456 2980,912 4190,-150 6,-5 12,-10 18,-16 939,-890 1187,-1776 1449,-2712 196,-701 402,-1433 947,-2195 63,-85 85,-195 49,-288 -54,-139 -216,-188 -362,-111 -997,524 -2075,593 -3017,652 -436,28 -845,54 -1213,119 -545,97 -951,302 -1302,602 -336,288 -606,654 -895,1096 -95,145 -119,182 -142,218 -505,782 -1053,1629 -2136,1823 -13,2 -25,5 -38,9 -82,-5 -166,-14 -250,-25 -211,-27 -426,-71 -642,-128 1617,-1554 3059,-3303 4231,-5207 446,-33 889,-105 1301,-233 361,-111 701,-266 1002,-473 481,-138 1018,-208 1555,-279 1401,-184 2801,-367 3547,-1744 4,-7 8,-14 11,-21 561,-1124 531,-1979 500,-2881 -23,-676 -48,-1382 211,-2245 30,-97 19,-199 -37,-265 -84,-98 -236,-78 -341,44 -710,833 -1615,1307 -2406,1722 -366,192 -709,371 -1006,570 -440,293 -732,625 -950,1017 -209,376 -340,794 -467,1284 -42,161 -52,202 -62,242 -219,864 -457,1801 -1331,2384 -10,7 -20,15 -30,23 -72,27 -146,52 -221,75 -292,90 -604,150 -924,187 10,-17 20,-34 30,-52zm-9232 -32607c-664,-207 -1343,-275 -1990,-640 723,-36 1293,117 1981,634 3,2 6,4 9,6zm5238 1606c-405,-658 -896,-1220 -1203,-1988 580,514 941,1060 1199,1976 1,4 2,8 4,12zm4900 5172c-218,-833 -556,-1622 -638,-2507 445,792 652,1496 638,2494 0,4 0,9 0,13zm4526 16451c693,-915 1266,-1972 2097,-2725 -507,1216 -1079,2022 -2084,2715 -4,3 -9,6 -13,9zm-2638 8497c896,-1008 1661,-2197 2708,-2997 -700,1386 -1443,2279 -2693,2988 -5,3 -11,6 -16,10zm-4583 6971c1243,-617 2412,-1480 3742,-1816 -1166,1094 -2216,1663 -3723,1813 -6,1 -13,2 -19,3zm-4614 -35067c-511,262 -982,649 -1540,767 462,-503 892,-748 1532,-766 3,0 5,0 8,-1zm4105 4101c-606,105 -1199,357 -1820,293 611,-378 1127,-492 1812,-295 3,1 6,2 9,2zm3766 8247c-719,-399 -1512,-627 -2146,-1221 888,108 1515,420 2137,1212 3,3 5,7 8,10zm-277 9012c-532,-757 -1198,-1392 -1577,-2289 801,570 1279,1196 1573,2275 1,5 3,9 4,14zm-3608 7700c-189,-1007 -551,-1977 -541,-3027 514,987 705,1842 542,3012 -1,5 -1,10 -2,15zm7143 -19351c120,-1070 57,-2177 386,-3204 206,1189 135,2110 -380,3190 -2,5 -4,9 -6,14zm-12236 30602c1377,-39 2759,-382 4133,-73 -1450,594 -2628,680 -4114,80 -6,-3 -13,-5 -19,-7zm-256 -6226c136,-1167 74,-2377 438,-3495 219,1300 136,2304 -431,3480 -2,5 -5,10 -7,15zm-22125 -37716c664,-207 1343,-275 1990,-640 -723,-36 -1293,117 -1981,634 -3,2 -6,4 -9,6zm-5238 1606c405,-658 896,-1220 1203,-1988 -580,514 -941,1060 -1199,1976 -1,4 -2,8 -4,12zm-4900 5172c218,-833 556,-1622 638,-2507 -445,792 -652,1496 -638,2494 0,4 0,9 0,13zm-4526 16451c-693,-915 -1266,-1972 -2097,-2725 507,1216 1079,2022 2084,2715 4,3 9,6 13,9zm2638 8497c-896,-1008 -1661,-2197 -2708,-2997 700,1386 1443,2279 2693,2988 5,3 11,6 16,10zm4583 6971c-1243,-617 -2412,-1480 -3742,-1816 1166,1094 2216,1663 3723,1813 6,1 13,2 19,3zm4614 -35067c511,262 982,649 1540,767 -462,-503 -892,-748 -1532,-766 -3,0 -5,0 -8,-1zm-4105 4101c606,105 1199,357 1820,293 -611,-378 -1127,-492 -1812,-295 -3,1 -6,2 -9,2zm-3766 8247c719,-399 1512,-627 2146,-1221 -888,108 -1515,420 -2137,1212 -3,3 -5,7 -8,10zm277 9012c532,-757 1198,-1392 1577,-2289 -801,570 -1279,1196 -1573,2275 -1,5 -3,9 -4,14zm3608 7700c189,-1007 551,-1977 541,-3027 -514,987 -705,1842 -542,3012 1,5 1,10 2,15zm-7143 -19351c-120,-1070 -57,-2177 -386,-3204 -206,1189 -135,2110 380,3190 2,5 4,9 6,14zm12236 30602c-1377,-39 -2759,-382 -4133,-73 1450,594 2628,680 4114,80 6,-3 13,-5 19,-7zm256 -6226c-136,-1167 -74,-2377 -438,-3495 -219,1300 -136,2304 431,3480 2,5 5,10 7,15z"/></g><text x="0" y="60015" fill="#000000" font-size="5px" font-weight="bold" font-family="'Helvetica Neue', Helvetica, Arial-Unicode, Arial, Sans-serif">Created by Olena Panasovska</text><text x="0" y="60020" fill="#000000" font-size="5px" font-weight="bold" font-family="'Helvetica Neue', Helvetica, Arial-Unicode, Arial, Sans-serif">from the Noun Project</text></svg>