<svg width="24" height="30.8" viewBox="0 0 24 30.8" fill="none" xmlns="http://www.w3.org/2000/svg"><path d="M23.989 27.76 22.32 8.379a2.787 2.787 0 0 0 -2.795 -2.56h-3.128V4.362C16.396 1.957 14.436 0 12.026 0s-4.37 1.957 -4.37 4.361v1.457h-3.18A2.787 2.787 0 0 0 1.68 8.378L0.011 27.76a2.73 2.73 0 0 0 0.728 2.133 2.742 2.742 0 0 0 2.067 0.907h18.386c0.807 0 1.522 -0.314 2.067 -0.907s0.797 -1.331 0.728 -2.133M13.871 17.025a0.584 0.584 0 0 1 -0.584 -0.583c0 -0.708 -0.578 -1.284 -1.287 -1.284h-0.001c-0.343 0 -0.665 0.134 -0.909 0.376a1.278 1.278 0 0 0 -0.377 0.908c0 0.708 0.577 1.284 1.287 1.284a2.454 2.454 0 0 1 2.455 2.449 2.448 2.448 0 0 1 -1.846 2.374l-0.024 0.006v1.61a0.584 0.584 0 0 1 -1.168 0v-1.61l-0.024 -0.006a2.448 2.448 0 0 1 -1.847 -2.374 0.584 0.584 0 0 1 1.168 0 1.287 1.287 0 0 0 2.573 0c0 -0.708 -0.577 -1.284 -1.286 -1.284a2.454 2.454 0 0 1 -2.455 -2.45 2.448 2.448 0 0 1 1.847 -2.373l0.024 -0.006v-1.251a0.584 0.584 0 0 1 1.168 0v1.25l0.024 0.006a2.448 2.448 0 0 1 1.846 2.373 0.584 0.584 0 0 1 -0.584 0.583m1.229 -12.663v1.457H8.952V4.361c0 -1.692 1.379 -3.068 3.074 -3.068 1.696 0 3.074 1.376 3.074 3.068" fill="#1E0039"/></svg>