<svg width="28.138" height="24" viewBox="0 0 28.138 24" fill="none" xmlns="http://www.w3.org/2000/svg"><path d="M20.404 1.411a6.303 6.303 0 0 1 4.478 1.861 6.369 6.369 0 0 1 0 8.984L14.07 22.588 3.258 12.257a6.369 6.369 0 0 1 0 -8.984 6.303 6.303 0 0 1 4.478 -1.862 6.378 6.378 0 0 1 2.095 0.356c1.132 0.398 2.106 1.15 2.846 2.096L14.069 5.646l1.392 -1.783c0.739 -0.946 1.714 -1.699 2.847 -2.096a6.378 6.378 0 0 1 2.094 -0.355m0 -1.411a7.691 7.691 0 0 0 -2.56 0.435c-1.343 0.472 -2.549 1.355 -3.488 2.559L14.069 3.359l-0.285 -0.364C12.844 1.791 11.639 0.907 10.295 0.435A7.691 7.691 0 0 0 7.736 0a7.682 7.682 0 0 0 -5.473 2.274c-3.018 3.027 -3.018 7.953 0 10.981l10.836 10.356a1.403 1.403 0 0 0 1.942 0l10.812 -10.331c3.043 -3.052 3.043 -7.978 0.024 -11.006A7.682 7.682 0 0 0 20.404 0" fill="black" style="fill:black;fill-opacity:1;"/></svg>