<svg width="26" height="21" viewBox="0 0 26 21" fill="none" xmlns="http://www.w3.org/2000/svg">
<path d="M2.06821 0C0.927499 0 9.15905e-05 0.969594 9.15905e-05 2.16171C-0.000114488 8.33872 9.15905e-05 14.5124 9.15905e-05 20.6911C9.15905e-05 20.8529 0.140854 20.9998 0.295629 21H25.7041C25.8589 21 25.9994 20.8529 25.9996 20.6911C26.0005 14.5119 25.9996 8.33706 25.9996 2.16171C25.9996 0.969373 25.0722 0 23.9315 0H2.06821ZM2.94534 0.617591H6.94309L9.09425 3.70582L6.9338 6.79405H2.93605L4.9673 3.87942C5.03757 3.77581 5.03757 3.62587 4.9673 3.52226L2.94534 0.617591ZM12.3998 0.617591H16.3976L18.5488 3.70582L16.3883 6.79405H12.3906L14.4218 3.87942C14.4921 3.77581 14.4921 3.62587 14.4218 3.52226L12.3998 0.617591ZM21.8544 0.617591H23.9318C24.7553 0.617591 25.409 1.30092 25.409 2.16171V6.79405H21.8453L23.8765 3.87942C23.9468 3.77581 23.9468 3.62587 23.8765 3.52226L21.8544 0.617591ZM0.59121 7.4117C7.95169 7.41148 17.1292 7.41191 25.4088 7.4117V20.3823H19.2042V17.294H23.9314V16.6764H12.1133V16.0589H2.06837V17.294H6.79552V20.3823H0.590999L0.59121 7.4117ZM2.06848 9.88234V11.1175H23.9315V10.4999H12.1134V9.88234H2.06848ZM2.06848 12.9706V14.2058H23.9315V13.5882H9.75027V12.9706H2.06848ZM7.38664 17.294H12.7048V20.3822H7.38664V17.294ZM13.2957 17.294H18.6139V20.3822H13.2957V17.294Z" fill="white"/>
</svg>
