<svg width="36" height="23" viewBox="0 0 36 23" fill="none" xmlns="http://www.w3.org/2000/svg">
<path d="M25.0557 11.1531L25.068 11.1345L25.066 11.1324L25.0557 11.1531Z" fill="#000639"/>
<path d="M34.5678 13.641C34.5678 13.641 34.2002 13.1409 33.3306 12.8075C33.3306 12.8075 33.2583 12.7854 33.1458 12.7493C32.3705 12.3857 31.6354 12.1528 31.6354 12.1528C31.4788 12.0965 31.3422 12.0403 31.2136 11.9861C30.6894 11.725 30.3098 11.4257 30.3098 11.4257C30.3098 11.4257 30.3058 11.4217 29.9021 11.018C30.6272 10.2668 31.1594 9.2465 31.3261 8.27038C31.4547 8.13782 31.5852 7.92492 31.6414 7.58549C31.7459 7.2079 31.8764 6.54711 31.6455 6.23982C31.6314 6.22375 31.6194 6.20969 31.6053 6.19563C31.8222 5.40028 32.0994 3.75735 31.1152 2.63662C31.0269 2.52415 30.4765 1.86537 29.2956 1.51589L28.7332 1.32107C27.8033 1.03386 27.2188 0.971598 27.1947 0.967581C27.1525 0.963564 27.1083 0.967581 27.0682 0.977623C27.036 0.987666 26.9256 1.01578 26.8412 1.00373C26.6183 0.971598 26.2849 1.08608 26.2246 1.11018C26.1483 1.14031 24.3487 1.86135 23.8044 3.53642C23.7542 3.67098 23.5353 4.38399 23.8245 6.13136C23.7823 6.15948 23.7441 6.19563 23.708 6.23982C23.475 6.54711 23.6056 7.20388 23.712 7.58348C23.7662 7.9189 23.8968 8.12979 24.0233 8.26435C24.1679 9.22842 24.6299 10.1563 25.2384 10.8673C25.2384 10.8673 25.7004 11.6667 25.7586 11.741C27.2228 13.9102 27.4076 18.0918 27.4257 18.5618L27.4277 18.5919L27.4257 18.624C27.4016 20.0862 26.6745 20.5944 26.2849 20.7631C26.0961 20.8474 25.8992 20.9217 25.7004 20.9981C25.7988 20.8535 25.8952 20.6024 25.9012 20.1585C25.9012 20.1585 25.7586 14.0146 24.5194 12.1809C24.5194 12.1809 24.1659 11.6988 23.3284 11.3795C23.3284 11.3795 23.2601 11.3574 23.1496 11.3233C22.4065 10.9738 21.6995 10.7508 21.6995 10.7508C21.5489 10.6966 21.4143 10.6444 21.2938 10.5902C20.7917 10.3391 20.4241 10.0519 20.4241 10.0519C20.4241 10.0519 20.4201 10.0479 20.0325 9.65823C20.7294 8.93518 21.2416 7.95505 21.4003 7.0191C21.5268 6.89257 21.6513 6.6857 21.7055 6.36032C21.804 5.99679 21.9305 5.36211 21.7076 5.06687C21.6955 5.05281 21.6835 5.03875 21.6714 5.02469C21.8803 4.25946 22.1454 2.68081 21.1994 1.60226C21.113 1.49581 20.5828 0.861132 19.45 0.525717L18.9077 0.340938C18.016 0.0657772 17.4536 0.00351481 17.4295 0.00150634C17.3893 -0.0025106 17.3472 0.00150642 17.307 0.0135572C17.2749 0.0215911 17.1704 0.0497097 17.0881 0.0396674C16.8752 0.00753186 16.5538 0.117998 16.4976 0.140091C16.4253 0.168209 14.696 0.861132 14.1718 2.47193C14.1236 2.60248 13.9147 3.28736 14.1919 4.96645C14.1497 4.99457 14.1135 5.02871 14.0814 5.07089C13.8584 5.36412 13.985 5.9988 14.0834 6.36233C14.1376 6.6857 14.2622 6.89056 14.3847 7.0171C14.5233 7.943 14.9671 8.83677 15.5536 9.51965L15.3869 9.77473L15.3829 9.75866L15.3769 9.7928C15.3789 9.78678 15.3849 9.77874 15.3869 9.77473L15.3849 9.77673L15.3769 9.7928C15.1419 10.5259 12.326 11.3815 12.326 11.3815C11.4905 11.7008 11.137 12.1829 11.137 12.1829C9.89975 14.0166 9.75514 20.1585 9.75514 20.1585C9.76117 20.5984 9.85557 20.8454 9.94996 20.99C9.75916 20.9197 9.56434 20.8474 9.38157 20.7671C8.99192 20.5984 8.26285 20.0862 8.24076 18.6261V18.5939V18.5618C8.25883 18.0918 8.44562 13.9142 9.88168 11.7812C9.96001 11.6727 10.2171 11.3514 10.6911 11.02C10.6911 11.02 10.6911 11.018 10.6891 11.018C11.4141 10.2668 11.9464 9.2465 12.1131 8.27038C12.2416 8.13782 12.3722 7.92492 12.4304 7.58549C12.5349 7.2079 12.6654 6.54711 12.4324 6.23982C12.4204 6.22375 12.4063 6.20969 12.3943 6.19563C12.6112 5.40028 12.8884 3.75735 11.9042 2.63662C11.8219 2.52415 11.2695 1.86537 10.0885 1.51589L9.52618 1.32107C8.59626 1.03386 8.01179 0.971598 7.98769 0.967581C7.94551 0.963564 7.90132 0.967581 7.86115 0.977623C7.82902 0.989674 7.71855 1.01779 7.63219 1.00574C7.41126 0.973606 7.07785 1.08809 7.0176 1.11219C6.94128 1.14031 5.14369 1.86135 4.59739 3.53842C4.54718 3.67299 4.33026 4.386 4.61747 6.13337C4.5753 6.16149 4.53513 6.19764 4.50098 6.24183C4.268 6.54912 4.40056 7.20589 4.50299 7.58549C4.55722 7.92091 4.68777 8.1318 4.8143 8.26636C4.95891 9.23043 5.42086 10.1583 6.03144 10.8693L5.85871 11.1345L5.85469 11.1164L5.84666 11.1525C5.84867 11.1465 5.85469 11.1385 5.8567 11.1325V11.1345L5.84666 11.1525C5.60363 11.9158 2.67528 12.8055 2.67528 12.8055C1.80562 13.1389 1.43807 13.639 1.43807 13.639C0.150635 15.5471 0 19.795 0 19.795C0.0160678 20.7631 0.435838 20.8655 0.435838 20.8655C3.39432 22.1851 8.0379 22.418 8.0379 22.418C8.28896 22.4261 8.51993 22.412 8.75292 22.398L8.75894 22.4221C8.75894 22.4221 10.5063 22.3317 12.5369 21.9601C14.9852 22.5526 17.4777 22.6791 17.4777 22.6791C17.7167 22.6852 17.9417 22.6711 18.1646 22.6571L18.1706 22.6812C18.1706 22.6812 20.7716 22.5486 23.2681 21.9199C25.3831 22.3237 27.2429 22.418 27.2429 22.418C27.4919 22.4261 27.7249 22.412 27.9579 22.398L27.9639 22.4221C27.9639 22.4221 32.6075 22.1871 35.566 20.8695C35.566 20.8695 35.9838 20.7671 35.9998 19.797C36.0059 19.799 35.8552 15.5511 34.5678 13.641Z" fill="#000639"/>
</svg>
