<svg xmlns="http://www.w3.org/2000/svg" viewBox="0 0 64 80" x="0px" y="0px"><title>1</title><path d="M54.6997,51.90784V8a3.955,3.955,0,0,0-3.89941-4H13.1958A3.95532,3.95532,0,0,0,9.29638,8V56a3.95532,3.95532,0,0,0,3.89942,4H53.70263a.99973.99973,0,0,0,1-1C54.69971,58.9854,54.70824,51.9201,54.6997,51.90784ZM13.1958,6H50.80029A1.954,1.954,0,0,1,52.6997,8V50.92236H13.835a4.51219,4.51219,0,0,0-2.53858.77857V8A1.95371,1.95371,0,0,1,13.1958,6ZM50.80029,58H13.835a2.539,2.539,0,0,1,.00008-5.07763H52.6997V56c.00845.01222.00007,1.98546.00294,2Z"/><path d="M16.09521,47.4707c10.55579-.0002,21.8545.00015,32.41016,0a1,1,0,0,0,0-2H46.34716V27.21094a.99973.99973,0,0,0-1-1H39.54834a.99973.99973,0,0,0-1,1V45.4707H36.1997V37.46191a.99974.99974,0,0,0-1-1H29.40087a1.00006,1.00006,0,0,0-1,1V45.4707H26.05175V32.958a1,1,0,0,0-1-1H19.25341a1.00005,1.00005,0,0,0-1,1V45.4707h-2.1582A1.00012,1.00012,0,0,0,16.09521,47.4707ZM40.54834,28.21094h3.79882V45.4707H40.54834Zm-10.14747,10.251H34.1997V45.4707H30.40087ZM20.25341,33.958h3.79834V45.4707H20.25341Z"/><path d="M32.30029,23.63477H29.47558a1.0001,1.0001,0,0,0,0,2h1.82466v1.062a1.00019,1.00019,0,0,0,2-.00007V25.48529a3.81548,3.81548,0,0,0-1-7.49994,1.8249,1.8249,0,0,1,.00008-3.64941h2.82414a1.00011,1.00011,0,0,0-.00005-2H33.30029v-1.062a1,1,0,1,0-2,0v1.21142a3.82084,3.82084,0,0,0,1.0001,7.5A1.82492,1.82492,0,0,1,32.30029,23.63477Z"/><text x="0" y="79" fill="#000000" font-size="5px" font-weight="bold" font-family="'Helvetica Neue', Helvetica, Arial-Unicode, Arial, Sans-serif">Created by metami septiana</text><text x="0" y="84" fill="#000000" font-size="5px" font-weight="bold" font-family="'Helvetica Neue', Helvetica, Arial-Unicode, Arial, Sans-serif">from the Noun Project</text></svg>