<svg  viewBox="0 0 63 119" fill="none" xmlns="http://www.w3.org/2000/svg">
<path d="M8.44985 59.497L61.9654 5.99758C62.2915 5.67134 62.5502 5.28403 62.7267 4.85778C62.9032 4.43153 62.994 3.97467 62.994 3.5133C62.994 3.05193 62.9032 2.59507 62.7267 2.16882C62.5502 1.74256 62.2915 1.35526 61.9654 1.02902C61.6392 0.702782 61.2521 0.443995 60.826 0.267435C60.3999 0.0908752 59.9432 -3.43749e-09 59.482 0C59.0208 3.4375e-09 58.5641 0.0908752 58.138 0.267435C57.7119 0.443995 57.3247 0.702782 56.9986 1.02902L1.03463 57.0127C0.706789 57.338 0.446578 57.725 0.269002 58.1514C0.0914258 58.5778 0 59.0351 0 59.497C0 59.9589 0.0914258 60.4163 0.269002 60.8426C0.446578 61.269 0.706789 61.656 1.03463 61.9813L56.9986 117.965C57.3237 118.293 57.7106 118.553 58.1368 118.731C58.5631 118.909 59.0202 119 59.482 119C59.9437 119 60.4009 118.909 60.8271 118.731C61.2533 118.553 61.6402 118.293 61.9654 117.965C62.2932 117.64 62.5534 117.253 62.731 116.826C62.9086 116.4 63 115.943 63 115.481C63 115.019 62.9086 114.561 62.731 114.135C62.5534 113.709 62.2932 113.322 61.9654 112.996L8.44985 59.497Z" fill="url(#paint0_linear_2245_591)"/>
<defs>
<linearGradient id="paint0_linear_2245_591" x1="31.5" y1="0" x2="31.5" y2="119" gradientUnits="userSpaceOnUse">
<stop stop-color="#6101B7"/>
<stop offset="1" stop-color="#FF00A0"/>
</linearGradient>
</defs>
</svg>
