<svg width="35.69" height="30" viewBox="0 0 35.69 30" fill="none" xmlns="http://www.w3.org/2000/svg"><path d="M33.257 2.94c-3.057 -3.231 -8.97 -4.583 -14.736 0.08a1.086 1.086 0 0 1 -1.355 0C11.403 -1.645 5.487 -0.291 2.431 2.94 -0.694 6.246 -1.483 12.298 4.179 17.777l11.912 11.522a2.498 2.498 0 0 0 1.755 0.702 2.528 2.528 0 0 0 1.756 -0.702l11.912 -11.522c5.661 -5.477 4.873 -11.531 1.746 -14.837m-2.757 13.858 -11.912 11.523a1.081 1.081 0 0 1 -1.49 0l-11.912 -11.523C0.165 11.935 0.712 6.802 3.486 3.872 4.878 2.402 6.976 1.398 9.397 1.398c2.125 0 4.495 0.773 6.854 2.68a2.543 2.543 0 0 0 3.188 0c5.043 -4.081 10.152 -2.968 12.765 -0.208 2.772 2.93 3.321 8.064 -1.701 12.926z" fill="#868585"/></svg>