<?xml version="1.0" encoding="UTF-8" standalone="no" ?>
<!DOCTYPE svg PUBLIC "-//W3C//DTD SVG 1.1//EN" "http://www.w3.org/Graphics/SVG/1.1/DTD/svg11.dtd">
<svg xmlns="http://www.w3.org/2000/svg" xmlns:xlink="http://www.w3.org/1999/xlink" version="1.1" width="45" height="45" viewBox="0 0 1080 1080" stroke="white" xml:space="preserve">
<desc>Created with Fabric.js 5.2.4</desc>
<defs>
</defs>
<rect x="0" y="0" width="100%" height="100%" fill="transparent"></rect>
<g transform="matrix(1 0 0 1 540 540)" id="aa6c5cfe-7db5-4732-95c8-1dab197c134c"  >
</g>
<g transform="matrix(1 0 0 1 540 540)" id="f79384c8-427c-4563-8da1-4fd9c9e82d44"  >
<rect style="stroke: none; stroke-width: 1; stroke-dasharray: none; stroke-linecap: butt; stroke-dashoffset: 0; stroke-linejoin: miter; stroke-miterlimit: 4; fill: rgb(255,255,255); fill-rule: nonzero; opacity: 1; visibility: hidden;" vector-effect="non-scaling-stroke"  x="-540" y="-540" rx="0" ry="0" width="1080" height="1080" />
</g>
<g transform="matrix(1.33 0 0 1.33 580.71 435.14)"  >
<path style="stroke: none; stroke-width: 1; stroke-dasharray: none; stroke-linecap: butt; stroke-dashoffset: 0; stroke-linejoin: miter; stroke-miterlimit: 4; fill: rgb(255,255,255); fill-rule: nonzero; opacity: 1;" vector-effect="non-scaling-stroke"  transform=" translate(-350.07, -279.97)" d="M 136.15 39.199 C 133.4742 39.710719999999995 131.5523 42.074 131.6031 44.800599999999996 L 131.6031 430.1506 C 131.587476 432.3108 132.8101 434.2834 134.75150000000002 435.2287 L 303.80150000000003 520.1037 C 305.52810000000005 521.01776 307.61010000000005 520.96698 309.29370000000006 519.96698 C 310.9734000000001 518.96308 312.0085000000001 517.1583800000001 312.02420000000006 515.2013800000001 L 312.02420000000006 148.0513800000001 C 312.03982400000007 145.8951800000001 310.81720000000007 143.9185800000001 308.8758000000001 142.97718000000012 L 184.62580000000008 82.77418000000011 C 183.27810000000008 82.12574000000012 181.7313000000001 82.03590000000011 180.3211000000001 82.52809000000012 C 178.9070000000001 83.02028000000011 177.75080000000008 84.05539000000012 177.1023000000001 85.39919000000012 C 175.7468000000001 88.20389000000011 176.9226100000001 91.57109000000011 179.7273000000001 92.92649000000011 L 300.8273000000001 151.37549000000013 L 300.8273000000001 506.10549000000015 L 142.80730000000008 426.82849000000016 L 142.80730000000008 50.39849000000015 L 417.0273000000001 50.39849000000015 L 417.0273000000001 139.82449000000014 C 417.00776800000006 141.32449000000014 417.5898000000001 142.76979000000014 418.64060000000006 143.83619000000013 C 419.69140000000004 144.90259000000012 421.12890000000004 145.50419000000014 422.62890000000004 145.50419000000014 C 424.12890000000004 145.50419000000014 425.56640000000004 144.90263000000013 426.6172 143.83619000000013 C 427.668 142.76979000000014 428.25 141.32449000000014 428.2305 139.82449000000014 L 428.2305 44.80149000000014 C 428.2305 41.70769000000014 425.72270000000003 39.199890000000146 422.6289 39.199890000000146 L 137.19889999999998 39.199890000000146 C 136.85124 39.168640000000146 136.49967999999998 39.168640000000146 136.14809999999997 39.199890000000146 z M 471.98 172.37900000000002 C 469.6519 172.48056000000003 467.6284 174.0157 466.9019 176.2306 L 458.1519 200.55460000000002 L 379.0539 200.55460000000002 C 377.5539 200.53116300000002 376.1086 201.11319000000003 375.0422 202.16400000000002 C 373.9758 203.2187 373.3742 204.6562 373.3742 206.15230000000003 C 373.3742 207.65230000000003 373.97576 209.08980000000003 375.0422 210.14060000000003 C 376.10859999999997 211.19530000000003 377.5539 211.77340000000004 379.0539 211.75390000000004 L 462.1789 211.75390000000004 C 464.5266 211.74999400000004 466.6203 210.28120000000004 467.4289 208.07810000000003 L 474.9523 186.73010000000005 L 552.4793 237.48010000000005 L 474.9523 288.23010000000005 L 467.4289 266.8781000000001 C 466.62031 264.67500000000007 464.5266 263.2062000000001 462.1789 263.2023000000001 L 379.0539 263.2023000000001 C 377.5539 263.1827690000001 376.1086 263.7608900000001 375.0422 264.8156000000001 C 373.9758 265.86640000000006 373.3742 267.30390000000006 373.3742 268.80390000000006 C 373.3742 270.30390000000006 373.97576 271.73750000000007 375.0422 272.79220000000004 C 376.10859999999997 273.843 377.5539 274.425 379.0539 274.40160000000003 L 458.1519 274.40160000000003 L 466.9019 298.7296 C 467.48784 300.3077 468.75350000000003 301.5421 470.35110000000003 302.0851 C 471.9449 302.62807000000004 473.6988 302.42104 475.12840000000006 301.52651000000003 L 565.9524 242.20251000000002 C 567.5696 241.17521000000002 568.5462 239.39391 568.5462 237.47981000000001 C 568.5462 235.56181 567.56964 233.78061000000002 565.9524 232.75321000000002 L 475.1284 173.42921 C 474.21043 172.76905000000002 473.1089 172.40191000000002 471.98 172.37841 z M 421.92900000000003 323.059 C 419.11260000000004 323.41447000000005 417.00710000000004 325.82070000000004 417.0267 328.6567 L 417.0267 424.5587 L 355.9527 424.5587 C 354.4527 424.535263 353.0113 425.11728999999997 351.941 426.1681 C 350.8746 427.2228 350.27299999999997 428.6603 350.27299999999997 430.15639999999996 C 350.27299999999997 431.65639999999996 350.87456 433.09389999999996 351.941 434.14469999999994 C 353.01129999999995 435.19939999999997 354.4527 435.7774999999999 355.9527 435.7579999999999 L 422.6287 435.7579999999999 C 425.72249999999997 435.7579999999999 428.2303 433.25019999999995 428.2303 430.1563999999999 L 428.2303 328.6563999999999 C 428.242019 327.0430999999999 427.55452 325.5001999999999 426.3475 324.4297999999999 C 425.14050000000003 323.35559999999987 423.53110000000004 322.85559999999987 421.9295 323.0586999999999 z" stroke-linecap="round" />
</g>
</svg>