<?xml version="1.0" encoding="UTF-8" standalone="no" ?>
<!DOCTYPE svg PUBLIC "-//W3C//DTD SVG 1.1//EN" "http://www.w3.org/Graphics/SVG/1.1/DTD/svg11.dtd">
<svg xmlns="http://www.w3.org/2000/svg" xmlns:xlink="http://www.w3.org/1999/xlink" version="1.1" width="1080" height="1080" viewBox="0 0 1080 1080" xml:space="preserve">
<desc>Created with Fabric.js 5.2.4</desc>
<defs>
</defs>
<g transform="matrix(1 0 0 1 540 540)" id="284f162e-f620-40e4-9e3f-e021f71505d3"  >
<rect style="stroke: none; stroke-width: 1; stroke-dasharray: none; stroke-linecap: butt; stroke-dashoffset: 0; stroke-linejoin: miter; stroke-miterlimit: 4; fill: rgb(255,255,255); fill-rule: nonzero; opacity: 1; visibility: hidden;" vector-effect="non-scaling-stroke"  x="-540" y="-540" rx="0" ry="0" width="1080" height="1080" />
</g>
<g transform="matrix(1 0 0 1 540 540)" id="cec45967-2373-4364-a1bc-c34d55ab5e6f"  >
</g>
<g transform="matrix(1.33 0 0 1.33 545.64 439.64)"  >
<path style="stroke: none; stroke-width: 1; stroke-dasharray: none; stroke-linecap: butt; stroke-dashoffset: 0; stroke-linejoin: miter; stroke-miterlimit: 4; fill: rgb(0,0,0); fill-rule: evenodd; opacity: 1;" vector-effect="non-scaling-stroke"  transform=" translate(-350.01, -280)" d="M 524.69 239.56 L 175.33000000000004 239.56 C 168.98620000000005 239.56 163.84600000000003 234.4194 163.84600000000003 228.08 C 163.84600000000003 221.73620000000003 168.98660000000004 216.596 175.33000000000004 216.596 L 524.69 216.596 C 531.0298 216.596 536.1700000000001 221.7366 536.1700000000001 228.08 C 536.1700000000001 234.4198 531.0294000000001 239.56 524.69 239.56 z M 600.167 23.610000000000014 L 99.82700000000006 23.610000000000014 C 94.10430000000005 24.285780000000013 88.82700000000006 27.035800000000012 84.99500000000006 31.340500000000013 C 81.16300000000007 35.64520000000002 79.04190000000006 41.203800000000015 79.03410000000007 46.96950000000001 L 79.03410000000007 409.17949999999996 C 79.04191200000007 415.41389999999996 81.52240000000006 421.3905 85.93250000000006 425.80049999999994 C 90.33870000000006 430.20669999999996 96.31550000000006 432.69109999999995 102.54950000000007 432.6988999999999 L 210.53950000000006 432.6988999999999 C 204.08640000000005 479.6128999999999 183.05150000000006 509.5578999999999 146.39850000000007 524.1369 C 143.57040000000006 525.2619 141.94150000000008 528.2384999999999 142.51180000000008 531.2266999999999 C 143.08211000000009 534.2149999999999 145.69150000000008 536.3829 148.73450000000008 536.3907999999999 L 149.1993400000001 536.3907999999999 C 232.0863400000001 530.4884999999999 309.6693400000001 493.4457999999999 366.37934000000007 432.7007999999999 L 597.4493400000001 432.7007999999999 C 603.6876400000001 432.7007999999999 609.6683400000002 430.2202999999999 614.0823400000002 425.8101999999999 C 618.4925400000002 421.3999999999999 620.9768400000002 415.4191999999999 620.9807400000002 409.1811999999999 L 620.9807400000002 46.9711999999999 C 620.9729280000003 41.2094999999999 618.8557400000002 35.6471999999999 615.0237400000002 31.3421999999999 C 611.1917400000002 27.0374999999999 605.9182400000002 24.2874999999999 600.1917400000002 23.6116999999999 z M 524.69 203.88000000000002 L 175.33000000000004 203.88000000000002 C 168.84560000000005 203.77844000000002 162.59600000000003 206.28230000000002 157.97500000000005 210.82920000000001 C 153.35390000000004 215.3761 150.75230000000005 221.58720000000002 150.75230000000005 228.0712 C 150.75230000000005 234.5517 153.35390000000004 240.7662 157.97500000000005 245.3132 C 162.59610000000006 249.8601 168.84600000000006 252.364 175.33000000000004 252.26239999999999 L 524.69 252.26239999999999 C 533.2408 252.12568 541.085 247.4851 545.3230000000001 240.0554 C 549.5613000000001 232.62959999999998 549.5613000000001 223.51239999999999 545.3230000000001 216.0824 C 541.0847000000001 208.6527 533.2410000000001 204.0124 524.69 203.8794 z M 524.69 314.54 L 175.33000000000004 314.54 C 168.98620000000005 314.54 163.84600000000003 309.3994 163.84600000000003 303.05600000000004 C 163.84600000000003 296.7162 168.98660000000004 291.576 175.33000000000004 291.576 L 524.69 291.576 C 531.0298 291.576 536.1700000000001 296.7166 536.1700000000001 303.05600000000004 C 536.1700000000001 309.3998 531.0294000000001 314.54 524.69 314.54 z M 524.69 278.86800000000005 C 533.3306 278.86800000000005 541.315 283.47740000000005 545.6350000000001 290.96200000000005 C 549.9553000000001 298.44640000000004 549.9553000000001 307.66900000000004 545.6350000000001 315.153 C 541.3147000000001 322.6335 533.3300000000002 327.247 524.69 327.247 L 175.33000000000004 327.247 C 166.68550000000005 327.247 158.70100000000005 322.63370000000003 154.38100000000003 315.153 C 150.06070000000003 307.6686 150.06070000000003 298.446 154.38100000000003 290.96200000000005 C 158.70130000000003 283.47760000000005 166.68600000000004 278.86800000000005 175.33000000000004 278.86800000000005 z M 175.33000000000004 141.60800000000006 L 380 141.60800000000006 L 379.996094 141.60800000000006 C 386.23829400000005 141.74862000000007 391.223094 146.85020000000006 391.223094 153.09200000000007 C 391.223094 159.33380000000008 386.238694 164.43600000000006 379.996094 164.57600000000008 L 175.32609400000004 164.57600000000008 C 172.23229400000005 164.65021900000008 169.24409400000005 163.47050000000007 167.02919400000005 161.30650000000009 C 164.81829400000004 159.14630000000008 163.57219400000005 156.18540000000007 163.57219400000005 153.0917000000001 C 163.57219400000005 149.9980000000001 164.81829400000007 147.0370000000001 167.02919400000005 144.8769000000001 C 169.24399400000004 142.7128000000001 172.23229400000005 141.5331000000001 175.32609400000004 141.6074000000001 z M 175.33000000000004 177.28400000000005 C 166.68550000000005 177.28400000000005 158.70100000000005 172.67460000000005 154.38100000000003 165.19000000000005 C 150.06070000000003 157.70560000000006 150.06070000000003 148.48700000000005 154.38100000000003 141.00200000000007 C 158.70130000000003 133.51760000000007 166.68600000000004 128.90800000000007 175.33000000000004 128.90800000000007 L 380 128.90800000000007 L 379.996094 128.90800000000007 C 388.640594 128.90800000000007 396.62509400000005 133.51740000000007 400.94509400000004 141.00200000000007 C 405.26509400000003 148.48660000000007 405.265394 157.70500000000007 400.94509400000004 165.19000000000005 C 396.62479400000007 172.67500000000004 388.64009400000003 177.28400000000005 379.996094 177.28400000000005 z" stroke-linecap="round" />
</g>
</svg>