<svg width="52" height="41" viewBox="0 0 52 41" fill="none" xmlns="http://www.w3.org/2000/svg">
<path d="M1.21857 24.9486H3.77896V30.851C3.77896 31.3379 4.08386 31.7636 4.51037 31.9461C4.63241 32.0068 4.81527 32.068 4.99812 32.068C5.30301 32.068 5.60791 31.9461 5.85156 31.7029L12.5576 24.9485H14.9351V31.7029C14.9351 32.3723 15.4836 32.9198 16.1542 32.9198H38.4052L45.7818 40.3435C46.0255 40.5868 46.3304 40.7086 46.6352 40.7086C46.8181 40.7086 46.9401 40.7086 47.123 40.5868C47.6107 40.4042 47.8544 39.9781 47.8544 39.4917L47.8548 32.9809H50.7809C51.4515 32.9809 52 32.4334 52 31.764V6.99798C52 6.32861 51.4514 5.78109 50.7809 5.78109H34.0164V1.21732C34.0164 0.547946 33.4678 0.000424457 32.7973 0.000424457L1.21912 0C0.548524 0 0 0.547554 0 1.2169V23.7315C0 24.4013 0.548982 24.9488 1.21912 24.9488L1.21857 24.9486ZM49.6222 30.5468H46.6961C46.0255 30.5468 45.477 31.0943 45.477 31.7637V36.6318L39.8078 30.9118C39.5641 30.6686 39.2592 30.5468 38.9543 30.5468H17.3739V8.21472H49.5616V30.5468L49.6222 30.5468ZM2.4378 2.434H31.5775V5.78087H16.1542C15.4836 5.78087 14.9351 6.32842 14.9351 6.99776V22.5146H12.0699C11.765 22.5146 11.4601 22.6364 11.2164 22.8796L6.21734 27.8695V23.7319C6.21734 23.0626 5.66878 22.515 4.99822 22.515H2.43782L2.4378 2.434Z" fill="url(#paint0_linear_2155_29)"/>
<defs>
<linearGradient id="paint0_linear_2155_29" x1="26" y1="0" x2="26" y2="40.7086" gradientUnits="userSpaceOnUse">
<stop stop-color="#FF00A0"/>
<stop offset="1" stop-color="#1E0039"/>
</linearGradient>
</defs>
</svg>
