<svg width="86" height="68" viewBox="0 0 86 68" fill="none" xmlns="http://www.w3.org/2000/svg">
<path d="M2.01533 41.2611H6.24982V51.0229C6.24982 51.8281 6.75407 52.5322 7.45946 52.834C7.6613 52.9344 7.96371 53.0355 8.26612 53.0355C8.77037 53.0355 9.27462 52.834 9.67758 52.4318L20.7683 41.2611H24.7003V52.4318C24.7003 53.5388 25.6075 54.4443 26.7166 54.4443H63.5163L75.716 66.722C76.119 67.1243 76.6233 67.3257 77.1275 67.3257C77.4299 67.3257 77.6318 67.3257 77.9342 67.1243C78.7408 66.8224 79.1438 66.1176 79.1438 65.3131L79.1445 54.5454H83.9838C85.0928 54.5454 86 53.6398 86 52.5328V11.5736C86 10.4665 85.0928 9.56103 83.9838 9.56103H56.2579V2.01326C56.2579 0.906218 55.3507 0.000701987 54.2417 0.000701987L2.01624 0C0.907175 0 0 0.90557 0 2.01256V39.2482C0 40.356 0.907931 41.2615 2.01624 41.2615L2.01533 41.2611ZM82.0674 50.5197H77.2282C76.1191 50.5197 75.2119 51.4253 75.2119 52.5323V60.5834L65.8359 51.1233C65.4329 50.7211 64.9287 50.5196 64.4244 50.5196H28.7337V13.5859H81.9673V50.5196L82.0674 50.5197ZM4.03175 4.02546H52.2243V9.56067H26.7165C25.6075 9.56067 24.7003 10.4662 24.7003 11.5732V37.2356H19.9617C19.4574 37.2356 18.9532 37.4371 18.5502 37.8394L10.2825 46.0919V39.249C10.2825 38.1419 9.3753 37.2364 8.26628 37.2364H4.03179L4.03175 4.02546Z" fill="#868585"/>
</svg>
