<svg width="25.043" height="24" viewBox="0 0 25.043 24" fill="none" xmlns="http://www.w3.org/2000/svg"><path fill-rule="evenodd" clip-rule="evenodd" d="M20.594 9.735H4.449a0.522 0.522 0 0 1 -0.53 -0.518c0 -0.286 0.238 -0.518 0.53 -0.518h16.144c0.292 0 0.53 0.232 0.53 0.518a0.522 0.522 0 0 1 -0.53 0.518M24.081 0H0.961C0.696 0.031 0.453 0.154 0.275 0.349S0 0.793 0 1.053v16.329c0 0.282 0.115 0.55 0.318 0.749 0.205 0.198 0.48 0.311 0.768 0.311h4.991c-0.298 2.115 -1.271 3.464 -2.963 4.122a0.282 0.282 0 0 0 -0.181 0.32 0.292 0.292 0 0 0 0.288 0.233h0.021c3.829 -0.266 7.416 -1.936 10.036 -4.675h10.678c0.288 0 0.565 -0.112 0.769 -0.311 0.203 -0.198 0.318 -0.469 0.318 -0.749V1.053c0 -0.26 -0.098 -0.51 -0.275 -0.704A1.096 1.096 0 0 0 24.083 0m-3.487 8.126H4.449a1.137 1.137 0 0 0 -0.801 0.313c-0.214 0.206 -0.334 0.485 -0.334 0.777s0.12 0.573 0.334 0.777c0.214 0.206 0.502 0.318 0.801 0.313h16.144c0.394 -0.005 0.758 -0.215 0.953 -0.55 0.196 -0.334 0.196 -0.746 0 -1.081a1.127 1.127 0 0 0 -0.953 -0.55m0 4.989H4.449a0.522 0.522 0 0 1 -0.53 -0.518c0 -0.286 0.238 -0.518 0.53 -0.518h16.144c0.292 0 0.53 0.232 0.53 0.518a0.522 0.522 0 0 1 -0.53 0.518m0 -1.608c0.399 0 0.768 0.209 0.967 0.545 0.2 0.338 0.2 0.753 0 1.091a1.127 1.127 0 0 1 -0.967 0.545H4.449c-0.399 0 -0.768 -0.209 -0.967 -0.545a1.064 1.064 0 0 1 0 -1.091c0.199 -0.337 0.569 -0.545 0.967 -0.545zM4.449 5.32h9.458a0.522 0.522 0 0 1 0.519 0.518c0 0.282 -0.23 0.511 -0.519 0.518H4.449a0.543 0.543 0 0 1 -0.383 -0.147 0.511 0.511 0 0 1 0 -0.741 0.543 0.543 0 0 1 0.383 -0.147m0 1.608c-0.399 0 -0.768 -0.208 -0.967 -0.545a1.064 1.064 0 0 1 0 -1.09c0.199 -0.338 0.569 -0.546 0.967 -0.546h9.458c0.4 0 0.769 0.209 0.968 0.546s0.199 0.752 0 1.09a1.127 1.127 0 0 1 -0.968 0.545z" fill="#1E0039"/></svg>