<?xml version="1.0" encoding="UTF-8"?>
<svg width="700pt" height="700pt" version="1.1" fill="white" viewBox="0 0 700 700" xmlns="http://www.w3.org/2000/svg" xmlns:xlink="http://www.w3.org/1999/xlink">
 
 <g>
  <path d="m524.69 239.56h-349.36c-6.3438 0-11.484-5.1406-11.484-11.48 0-6.3438 5.1406-11.484 11.484-11.484h349.36c6.3398 0 11.48 5.1406 11.48 11.484 0 6.3398-5.1406 11.48-11.48 11.48zm75.477-215.95h-500.34c-5.7227 0.67578-11 3.4258-14.832 7.7305-3.832 4.3047-5.9531 9.8633-5.9609 15.629v362.21c0.007812 6.2344 2.4883 12.211 6.8984 16.621 4.4062 4.4062 10.383 6.8906 16.617 6.8984h107.99c-6.4531 46.914-27.488 76.859-64.141 91.438-2.8281 1.125-4.457 4.1016-3.8867 7.0898 0.57031 2.9883 3.1797 5.1562 6.2227 5.1641h0.46484c82.887-5.9023 160.47-42.945 217.18-103.69h231.07c6.2383 0 12.219-2.4805 16.633-6.8906 4.4102-4.4102 6.8945-10.391 6.8984-16.629v-362.21c-0.007812-5.7617-2.125-11.324-5.957-15.629-3.832-4.3047-9.1055-7.0547-14.832-7.7305zm-75.477 180.27h-349.36c-6.4844-0.10156-12.734 2.4023-17.355 6.9492-4.6211 4.5469-7.2227 10.758-7.2227 17.242 0 6.4805 2.6016 12.695 7.2227 17.242 4.6211 4.5469 10.871 7.0508 17.355 6.9492h349.36c8.5508-0.13672 16.395-4.7773 20.633-12.207 4.2383-7.4258 4.2383-16.543 0-23.973-4.2383-7.4297-12.082-12.07-20.633-12.203zm0 110.66h-349.36c-6.3438 0-11.484-5.1406-11.484-11.484 0-6.3398 5.1406-11.48 11.484-11.48h349.36c6.3398 0 11.48 5.1406 11.48 11.48 0 6.3438-5.1406 11.484-11.48 11.484zm0-35.672c8.6406 0 16.625 4.6094 20.945 12.094 4.3203 7.4844 4.3203 16.707 0 24.191-4.3203 7.4805-12.305 12.094-20.945 12.094h-349.36c-8.6445 0-16.629-4.6133-20.949-12.094-4.3203-7.4844-4.3203-16.707 0-24.191 4.3203-7.4844 12.305-12.094 20.949-12.094zm-349.36-137.26h204.67-0.003906c6.2422 0.14062 11.227 5.2422 11.227 11.484s-4.9844 11.344-11.227 11.484h-204.67c-3.0938 0.074219-6.082-1.1055-8.2969-3.2695-2.2109-2.1602-3.457-5.1211-3.457-8.2148s1.2461-6.0547 3.457-8.2148c2.2148-2.1641 5.2031-3.3438 8.2969-3.2695zm0 35.676c-8.6445 0-16.629-4.6094-20.949-12.094-4.3203-7.4844-4.3203-16.703 0-24.188 4.3203-7.4844 12.305-12.094 20.949-12.094h204.67-0.003906c8.6445 0 16.629 4.6094 20.949 12.094s4.3203 16.703 0 24.188-12.305 12.094-20.949 12.094z" fill-rule="evenodd"/>

 </g>
</svg>
