<svg xmlns="http://www.w3.org/2000/svg" xmlns:xlink="http://www.w3.org/1999/xlink" version="1.1" x="0px" y="0px" viewBox="0 0 95 118.75" enable-background="new 0 0 95 95" xml:space="preserve"><g><path d="M24.242,50.994c0-0.232-0.391-0.419-0.869-0.419c-0.477,0-1.204-0.271-1.615-0.6c-0.412-0.329-0.965-0.329-1.228,0   c-0.264,0.328-0.155,0.6,0.239,0.6s0.947,0.187,1.228,0.419c0.28,0.229,0.899,0.418,1.376,0.418   C23.852,51.412,24.242,51.222,24.242,50.994z"/><path d="M27.296,51.831c-0.297-0.229-0.593-0.58-0.659-0.777c0,0,0,0-0.598,0.358c-0.6,0.359-0.6,0.359-0.6,0.359   c-0.658,0.286-1.736,0.985-2.395,1.556c0,0,0,0,1.197,0c0.719,0,0.719,0,0.719,0c0.988,0,2.038,0,2.335,0   c0.296,0,0.538-0.241,0.538-0.537C27.834,52.493,27.592,52.062,27.296,51.831z"/><path d="M42.011,9.633c0.286,0.011,0.456,0.053,0.192-0.011C42.129,9.604,42.068,9.61,42.011,9.633z"/><path d="M53.938,32.463c0,0.028,0,0.028,0,0.028c-0.376,0.56-0.683,1.288-0.683,1.618c0,0.328,0.059,0.773,0.133,0.988   c0.072,0.214,0.469,0.092,0.879-0.271c0.412-0.362,0.883-0.739,1.047-0.838c0.165-0.099,0.299-0.505,0.299-0.899c0,0,0,0,0-0.239   s-0.418-0.837-0.537-1.077c-0.121-0.239-0.478-0.718-0.509-1.077c-0.03-0.359-0.03-0.359-0.03-0.359   c-0.23-0.494-0.66-0.899-0.953-0.899c0,0,0,0-0.063,0s-0.122,0.66-0.242,0.839c-0.119,0.181-0.119,0.181-0.119,0.181   c0.197,0.593,0.549,1.481,0.778,1.977C53.938,32.434,53.938,32.434,53.938,32.463z"/><path d="M51.543,33.87c0.299-0.06,0.299-0.06,0.299-0.06c0.297-0.165,0.647-0.69,0.779-1.167c0.131-0.479,0.212-1.139,0.18-1.468   c0,0,0,0-0.42,0.24c-0.418,0.239-0.838,0.358-0.838,0.718C51.543,32.492,51.244,33.93,51.543,33.87z"/><path d="M75.73,65.6c-0.888,1.161-1.74,2.229-1.893,2.374c-0.151,0.144-0.619,0.826-1.041,1.52c0,0,0,0-0.119,0.24   c-0.12,0.239-0.12,0.239-0.12,0.239c0.329,0.458,0.69,0.838,0.802,0.838s0.344,0.025,0.516,0.059c0,0,0,0,0.12-0.059   c0.12-0.061,0.239-0.12,0.358-0.421c0.121-0.298,0.24-0.359,0.3-0.837c0.06-0.479,0.897-1.856,0.958-2.095   c0.061-0.241,0.061-0.241,0.061-0.241c0.295-0.986,0.754-2.415,1.018-3.173c0,0,0,0-0.479,0.778C75.73,65.6,75.73,65.6,75.73,65.6z   "/><path d="M47.5,5.071c-23.396,0-42.429,19.034-42.429,42.43S24.104,89.929,47.5,89.929c23.395,0,42.429-19.033,42.429-42.429   S70.895,5.071,47.5,5.071z M70.011,13.834c1.252,0.84,2.454,1.748,3.603,2.719c-0.157,0.284-0.201,0.504-0.051,0.612   c0.328,0.24-0.359,1.49-0.855,2.296l-1.166-0.979c0,0-1.078-2.872-1.438-3.233C69.877,15.024,69.936,14.322,70.011,13.834z    M61.123,42.192l0.733-1.011h0.942l1.916,0.651l-0.119-1.437h0.838l1.676,1.486h2.994c0,0-0.359,1.149-0.599,1.591   c-0.239,0.445-1.796,0.875-1.796,0.875h-2.156l-1.077-0.12l-1.317,0.837l-1.302-0.598c0,0-1.571-1.317-1.692-1.677   c-0.119-0.358-1.915-0.599-2.274-0.719s-0.958-0.359-2.396,0c0,0-0.598,0.479-1.676,0.719c-1.077,0.241,1.078-1.438,1.676-1.609   c0.6-0.171,0.839-1.265,1.198-2.103s1.915,0,1.915,0h0.959c0,0,1.077,0.718,1.437,1.317c0.358,0.599-0.239,0.359-0.479,0.785   C60.285,41.608,61.123,42.192,61.123,42.192z M66.392,37.881c0,0,0.838-0.359,1.197-0.782c0.358-0.424,1.077,0,1.077,0l0.658-1.612   c0,0,0.659,1.197,0.779,1.557c0.119,0.359,1.438,0.958,1.438,0.958l-0.719,0.711l-1.916-0.007c0,0-0.838,0.014-1.797,0   L66.392,37.881z M70.702,46.382c0,0,0.599,0.839,0.839,1.621c0.238,0.783,1.676,2.092,1.915,3.249s0,2.074,0,2.074   s-1.078-1.316-1.437-1.915c-0.359-0.599-1.438-1.676-1.916-2.035c-0.479-0.358-0.599-2.994-0.599-2.994   C69.955,46.382,70.702,46.382,70.702,46.382z M43.018,24.37c0,0,0,0,0.023-0.02c0.197-0.147,0.197-0.147,0.197-0.147   c-0.067,0.053-0.127,0.101-0.177,0.138c0.084-0.065,0.124-0.099-0.021,0.01c-0.023,0.02-0.053,0.046-0.082,0.07   c0.016-0.012,0.031-0.024,0.047-0.037c-0.026,0.021-0.045,0.037-0.049,0.039c0,0,0.002,0,0.002-0.002   c-0.026,0.021-0.051,0.041-0.074,0.059C42.907,24.46,42.992,24.391,43.018,24.37z M6.994,48.069c0.078,0.069,0.125,0.11,0.125,0.11   s-0.055,0.039-0.123,0.104C6.996,48.211,6.995,48.14,6.994,48.069z M7.025,49.195c0.029,0.021,0.057,0.042,0.094,0.063   c0.838,0.479,0,0.119,0.838,0.479s0.838,0.359,0.838,0.359s-0.119-0.239,0-0.719c0.119-0.479,0.6,0.359,0.119-0.479   c-0.479-0.839-0.238,0.12-0.479-0.839C8.196,47.1,8.196,47.1,8.196,47.1s-0.239-0.599,0.12-0.599s0.807,1.318,0.807,1.318   s0.63,1.438,0.99,1.677c0.359,0.239,0.359,0.239,0.359,0.239s0.479,0.479,0.598,0.958s-0.598,0.599,0,0.958   c0.598,0.358-0.24-0.359,0.598,0.358c0.84,0.719,1.318,0.598,1.678,0.838s0.479-0.718,0.838,0s-0.718,0,0.359,0.718   c1.077,0.721,1.676,1.08,1.676,1.08s0.119-0.719,0.84,0c0.717,0.717,1.555,0.837,1.555,0.837s0.12,0.361,0.719,0.839   c0.6,0.479,0-0.239,0.6,0.479c0.599,0.717,0.599,0.717,0.599,0.717l1.077,0.719h0.479c0.36,0.599,0.36,0.599,0.36,0.599   l0.958,1.196v0.84c0,0-0.6-0.84-0.6,0c0,0.838,0.12,0.119,0,0.838c-0.119,0.718-0.119,0.718-0.119,0.718l0.719,0.96v0.837v0.839   c0,0,0.718,0.838,1.077,1.076c0.358,0.239-0.599-0.598,0.358,0.239c0.958,0.839,0.958,0.839,0.958,0.839l1.318,1.198v0.479   c0,0,0.837-0.599,1.196,0c0.359,0.6,0.838,1.198,0.838,1.198v0.479c0,0,0.48-0.958,0.719,0c0.24,0.957,0,1.436,0,1.436   s0.72,0.599,0.839,0.958c0.12,0.359-0.239,0.718,0,1.078c0.239,0.359,0.599,1.917,0.599,1.917l0.957,1.915c0,0-0.238,0.717,0,1.076   c0.24,0.359,0.6,1.078,0.6,1.078s-0.838,0.718,0,1.557c0.839,0.839,0.359,0,0.839,0.839c0.479,0.839,0.838,1.677,0.838,1.677   l1.557,1.795l1.018,0.765C20.316,82.204,7.77,67.197,7.025,49.195z M47.5,88.012c-3.139,0-6.195-0.357-9.132-1.037h0.243   l-1.197-2.395c0,0,0.239-0.718-0.12-1.077s-0.359-0.359-0.359-0.359l-0.358-0.6v-0.837c0,0,0.479-0.6,0-0.839   c-0.479-0.24-0.479,0.479-0.479-0.24c0-0.719,0-0.719,0-0.719s0.599-0.478,0.838-0.837c0.24-0.359-0.12,0.478,0.24-0.359   c0.358-0.838,0.599-1.916,0.599-1.916l0.838-0.718v-0.719v-0.838c0,0-0.121-0.358,0-0.84c0.119-0.479,0-1.197,0-1.197   s0.358-0.238,0.719-0.479c0.358-0.239,1.316-1.077,1.316-1.077s-0.599-0.358,0-0.718c0.6-0.359,0.959-0.719,0.838-1.198   c-0.119-0.479,0.121,0.72-0.119-0.479c-0.239-1.198-0.359-1.077-0.359-1.916c0-0.84-0.479-0.121,0-0.84   c0.479-0.717,1.197-2.095,1.197-2.095s-0.838-0.896-1.197-1.017c-0.359-0.119-0.719-0.36-1.317-0.601   c-0.599-0.238-2.274-0.837-2.274-0.837s-0.838-0.359-1.197-0.479c-0.36-0.12-1.557-1.797-1.557-1.797s-0.12,0-1.199-0.359   c-1.077-0.359-1.316-0.479-1.676-0.837c-0.359-0.359-1.316-1.198-1.316-1.198l-0.239-0.598c0,0-0.36,0.358-1.438,0.239   c-1.077-0.12-2.035-0.959-2.035-0.959s-0.599,0-1.079,0.239c-0.479,0.239-1.316,0.839-1.316,0.839l-0.838,0.239l-1.557-0.119   l-1.078-0.598l-0.598-1.319c0,0-0.12-0.598-0.479-0.839c-0.358-0.238-1.317-0.957-1.317-0.957l0.479-1.437   c0,0-0.479-0.599-0.957-0.358c-0.479,0.238-1.197,1.076-1.197,1.076s-0.359,0.239-0.719,0.12c-0.359-0.12-0.959-0.359-1.557-0.958   c-0.599-0.598-0.719-1.197-0.719-1.556c0-0.359,0.719-1.916,0.719-1.916l2.035-1.438h1.197l1.318-0.599l1.316,1.678l1.078,1.316   c0,0,1.316-0.838,1.018-1.196c-0.3-0.361-0.779-1.079-0.779-1.079s0.599-0.958,0.779-1.317c0.18-0.359,0.419-0.478,0.898-1.196   c0.479-0.719,0.718-1.078,0.957-1.437c0.24-0.36,1.197-2.036,1.197-2.036l0.959-0.72l0.838-1.077l0.598-0.598h0.958l1.678-0.839   h1.077l-0.958-1.196l-0.599-0.72c0.599-0.6,2.274-0.957,2.274-0.957s1.677-0.959,1.558-0.6s-1.438,2.037-1.438,2.037l0.957,0.718   c0,0,1.079,0.239,1.318-0.119c0.24-0.359,0.359-1.198,0.359-1.198l-0.359-1.517c0,0,0-1.119,0-1.718   c0-0.598-0.239-2.154-0.599-1.915c-0.358,0.24-0.72-1.076-0.72-1.076v-1.678l-1.316,1.197c0,0-0.957-0.12-0.838-0.479   c0.119-0.359,0.719-0.719,0.719-0.719l-1.317-1.079c0,0-1.437-0.957-1.677-0.599c-0.239,0.359-0.599,1.317-0.599,1.317   l-0.599,1.318v0.839l-0.479,1.197l-1.438,1.437l-0.719,1.436c0,0-0.238-1.795-0.238-2.154s-1.557-1.795-1.557-1.795l-0.359-1.438   c0,0,0.479-0.958,0.479-1.317c0-0.358,0.599-1.077,1.078-1.556c0.479-0.479,1.676-1.438,2.035-1.676   c0.359-0.239,1.197-0.719,1.197-0.719l-0.238,2.035l1.555-0.239l-0.239-1.077l1.318-0.719l0.718-1.917c0,0,0.719-1.676,1.078-1.438   c0.358,0.24,1.197,1.319,1.197,1.319l-1.318,2.633h-1.076l-0.359,1.078c0,0,0.599,0.12,1.078,0.479   c0.479,0.359,1.316,1.316,1.316,1.316l1.438-1.076v-0.958h1.077l0.719-1.557l-0.24-1.078c0,0,0-0.359,0.12-0.837   c0.12-0.48,0.12-0.48,0.12-0.48l-0.479-0.86v-1.175v-0.958l-0.719-1.315h-2.273l-3.714-1.798h-0.958l-1.648-0.825   c2.846-1.753,5.926-3.161,9.179-4.174c-0.376,0.266-0.585,0.505-0.585,0.705c0,0.847,0.257,1.972,0.569,2.497   c0.313,0.527,0.864,1.013,1.228,1.078c0,0,0,0,0.479-0.121c0.479-0.118,1.437-1.316,1.675-1.674   c0.24-0.359,1.917-1.317,2.396-1.557c0.216-0.109,0.216-0.109,0.216-0.109c0.302,0,0.603-0.014,0.667-0.029c0,0,0,0,0.074,0.019   c0.264,0.063,0.264,0.063,0.264,0.063c-0.252-0.027-0.651,0.315-0.891,0.766c0,0,0,0-0.81,0.606   c-0.958,0.719-0.958,0.719-0.958,0.719c-0.264,0.688-0.264,1.657,0,2.155c0,0,0,0,0.359,0.599s0.359,0.599,0.359,0.599   c0.065,0.33,0.119,0.707,0.119,0.84c0,0,0,0,0,0.359s-0.119,1.436-0.119,1.795s-0.719,2.276-0.719,2.635s-0.211,1.328-0.469,2.514   c0,0,0,0-0.724,0.479s-0.114,0.838,0,1.437c0.114,0.598-0.833,0.479,0,1.197c0.833,0.719,0.474,0,0.833,0.719s0.12,0.24,0.838,0   c0.674-0.224,0.674-0.224,0.674-0.224c1.084-1.339,1.946-2.413,1.922-2.399c0.017-0.012,0.033-0.024,0.057-0.043   c0.006-0.006,0.012-0.01,0.017-0.015c0.004-0.003,0.119-0.09,0.272-0.208c0,0,0,0,0.291-0.225c1.557-1.196,0.6-0.599,1.557-1.196   c0.959-0.599-0.238-0.239,0.959-0.599c1.197-0.36,1.197-0.36,1.197-0.36c0.79-0.396,1.868-1.365,2.395-2.156c0,0,0,0,0.12-0.358   c0.12-0.359,0.358-0.359,0-0.838c-0.358-0.479-0.839,0.719-0.358-0.479c0.479-1.196,0.259-1.196,0.549-1.675   c0.288-0.479-0.529,0.238,0-1.079c0.528-1.317,0.528-1.317,0.528-1.317c0.198-0.328,0.036-0.813-0.36-1.077c0,0,0,0,0.719-0.479   c0.719-0.479,0.908-0.749,1.139-1.076c0.23-0.33,0.149-0.869-0.18-1.197c0,0,0,0,0.598-0.359c0.6-0.359,0.479,0.256,0.839-0.71   c0.358-0.968,0-0.128,0.358-0.968c0.118-0.273,0.197-0.458,0.25-0.582c5.853,0.924,11.294,3.104,16.037,6.254   c-0.148,0.203-0.372,0.45-0.695,0.675c-0.695,0.479,0.215,1.438,0,1.917c-0.217,0.479,0,1.196,0,1.196s1.652,1.317,2.196,1.556   c0.253,0.111,0.596,0.512,0.96,0.979c-0.043,0.062-0.068,0.099-0.068,0.099s-0.107,0.12-0.892,0.479s-2.196,1.077-2.196,1.077   s-1.461,0.48-1.581,0c-0.12-0.479-1.197-0.718-1.197-0.718s-0.479-0.479-1.077-0.719c-0.6-0.24-1.318-0.839-1.318-0.839   s-1.077-0.359-1.557,0.12c-0.479,0.479-1.915,0.84-2.154,1.677c-0.24,0.838-0.6,1.678-0.719,2.155   c-0.121,0.479-1.557,2.275-2.036,2.753c-0.479,0.479-1.077,1.438-0.719,1.917c0.36,0.479,1.317,1.677,1.677,1.438   c0.359-0.24,0.359-0.24,0.359-0.24l1.677,1.197c0,0,1.379-2.953,1.288-2.973c-0.092-0.021-0.539-1.699,0.044-2.057   c0.583-0.359,0.942-2.156,1.302-1.797s-0.479,2.993-0.479,2.993l2.036,0.86c0,0,1.436-0.699,0.838,0   c-0.598,0.697-1.676,1.417-1.796,1.775c-0.12,0.359-1.944,2.395-1.944,2.395h-1.527c0,0-1.318-0.479-2.156,0   c-0.838,0.479-2.516,2.155-2.516,2.155v1.677c0,0-1.196-0.719-1.436,0s0,1.612,0,1.612l0.479,1.021c0,0-0.234,0.452-1.135,0.585   c-0.9,0.134-1.141-0.72-1.379,0.007c-0.24,0.726,0,1.804,0,1.804l-0.107,1.37c0,0,0.586-1.862,0.466,0s0.839,0.306-0.12,1.862   c-0.957,1.556,0,0.359-0.957,1.556c-0.958,1.197-0.958,1.687-1.677,2.699c-0.72,1.015-0.942,2.092-1.369,2.39   c-0.427,0.301,0.067,0.541,0,1.019c-0.067,0.479,0,1.915,0,1.915s0.89,1.797,1.13,2.156c0.239,0.361,0.359,0.72,0.839,1.318   c0.478,0.599,0.478,0.599,0.478,0.599s1.078-0.359,1.438,0s0.359,0.359,0.359,0.359s1.317,0,1.677,0c0.358,0,0.599,0.239,0.957,0   c0.358-0.241,1.317-0.599,1.317-0.599l1.438,0.703l1.197,0.494c0.359,0.956-0.24,2.154,0.119,2.633   c0.359,0.479,1.198,1.678,1.558,1.678c0.358,0,0.929,0.479,0.929,0.479v2.272l-0.57,1.317l-0.119,0.721c0,0-0.239,1.196,0,1.916   c0.238,0.718,0.371,2.394,0.784,2.752c0.413,0.359,0.651,1.557,0.651,1.557l0.959,2.037c0,0,2.154-0.719,2.874-0.958   c0.718-0.239,1.317-0.84,1.796-2.037c0.479-1.196,0.527-2.513,0.982-2.872c0.454-0.359,1.053-0.959,1.532-1.558   s1.556-2.035,1.676-2.516c0.12-0.478-0.239-3.472-0.239-3.472s-0.239-0.838,0.239-1.317c0.479-0.479,2.036-2.155,2.275-2.633   c0.239-0.48,1.797-2.395,1.916-2.755c0.12-0.359,0.358-2.037,0-1.798c-0.359,0.242-1.796,0.959-1.796,0.959s-1.078-1.558-0.6-1.438   c0.479,0.121,2.396-0.277,3.474-1.036c1.077-0.759,2.514-2.435,2.514-2.435v-1.853c0,0-0.599-0.423-0.958-0.542   c-0.358-0.12-1.436-0.24-1.436-0.24l-0.959-0.839c0,0-2.395-1.556-1.557-1.437s4.07,1.437,4.07,1.437s2.037,0.119,2.396,0   c0.359-0.12,2.395,1.327,2.754,1.621c0.359,0.296,1.316,1.732,1.795,2.39c0.479,0.66,1.438,1.897,1.438,1.897   s0.006,0.025,0.016,0.069C85.312,72.417,68.194,88.012,47.5,88.012z"/></g><text x="0" y="110" fill="#000000" font-size="5px" font-weight="bold" font-family="'Helvetica Neue', Helvetica, Arial-Unicode, Arial, Sans-serif">Created by Guilherme Furtado</text><text x="0" y="115" fill="#000000" font-size="5px" font-weight="bold" font-family="'Helvetica Neue', Helvetica, Arial-Unicode, Arial, Sans-serif">from the Noun Project</text></svg>