<svg width="34" height="22" viewBox="0 0 34 22" fill="none" xmlns="http://www.w3.org/2000/svg">
<path d="M23.6637 10.5335L23.6754 10.5159L23.6734 10.514L23.6637 10.5335Z" fill="white"/>
<path d="M32.6474 12.8832C32.6474 12.8832 32.3002 12.4109 31.4789 12.096C31.4789 12.096 31.4106 12.0751 31.3044 12.041C30.5722 11.6976 29.8779 11.4776 29.8779 11.4776C29.7299 11.4245 29.601 11.3714 29.4796 11.3202C28.9845 11.0736 28.626 10.7909 28.626 10.7909C28.626 10.7909 28.6222 10.7871 28.2409 10.4059C28.9257 9.69642 29.4283 8.7328 29.5858 7.81091C29.7072 7.68572 29.8305 7.48465 29.8836 7.16408C29.9822 6.80746 30.1055 6.18338 29.8874 5.89316C29.8741 5.87798 29.8627 5.86471 29.8494 5.85143C30.0543 5.10026 30.3161 3.5486 29.3866 2.49014C29.3031 2.38391 28.7834 1.76174 27.668 1.43168L27.1369 1.24768C26.2586 0.976424 25.7066 0.91762 25.6839 0.913826C25.644 0.910032 25.6023 0.913826 25.5644 0.923311C25.534 0.932795 25.4297 0.959352 25.35 0.94797C25.1395 0.91762 24.8246 1.02574 24.7677 1.04851C24.6956 1.07696 22.996 1.75794 22.4819 3.33995C22.4345 3.46704 22.2277 4.14043 22.5009 5.79073C22.4611 5.81728 22.425 5.85143 22.3909 5.89316C22.1708 6.18338 22.2941 6.80367 22.3947 7.16218C22.4459 7.47896 22.5692 7.67813 22.6887 7.80522C22.8253 8.71573 23.2616 9.59209 23.8363 10.2636C23.8363 10.2636 24.2726 11.0186 24.3276 11.0887C25.7104 13.1374 25.8849 17.0867 25.902 17.5306L25.9039 17.559L25.902 17.5894C25.8793 18.9703 25.1926 19.4502 24.8246 19.6096C24.6463 19.6892 24.4604 19.7594 24.2726 19.8315C24.3655 19.6949 24.4566 19.4578 24.4623 19.0386C24.4623 19.0386 24.3276 13.236 23.1572 11.5042C23.1572 11.5042 22.8234 11.0489 22.0324 10.7473C22.0324 10.7473 21.9679 10.7264 21.8635 10.6942C21.1617 10.3641 20.494 10.1536 20.494 10.1536C20.3517 10.1024 20.2246 10.053 20.1108 10.0018C19.6366 9.76471 19.2895 9.49345 19.2895 9.49345C19.2895 9.49345 19.2857 9.48966 18.9196 9.12166C19.5778 8.43878 20.0615 7.5131 20.2114 6.62915C20.3309 6.50965 20.4485 6.31427 20.4997 6.00697C20.5926 5.66364 20.7121 5.06422 20.5016 4.78538C20.4902 4.7721 20.4788 4.75882 20.4674 4.74554C20.6647 4.02283 20.9151 2.53187 20.0217 1.51324C19.9401 1.41271 19.4393 0.813291 18.3695 0.496511L17.8573 0.321997C17.0151 0.0621229 16.484 0.00331954 16.4612 0.00142265C16.4233 -0.00237112 16.3834 0.00142273 16.3455 0.0128041C16.3151 0.0203916 16.2165 0.0469481 16.1387 0.0374636C15.9377 0.00711342 15.6342 0.111442 15.581 0.132308C15.5128 0.158864 13.8795 0.813291 13.3844 2.3346C13.3389 2.45789 13.1416 3.10473 13.4034 4.69053C13.3636 4.71709 13.3294 4.74934 13.2991 4.78917C13.0885 5.06612 13.208 5.66553 13.301 6.00887C13.3522 6.31427 13.4698 6.50775 13.5855 6.62726C13.7164 7.50172 14.1356 8.34584 14.6895 8.99078L14.5321 9.23168L14.5283 9.21651L14.5226 9.24876C14.5245 9.24307 14.5302 9.23548 14.5321 9.23168L14.5302 9.23358L14.5226 9.24876C14.3006 9.94112 11.6412 10.7492 11.6412 10.7492C10.8521 11.0508 10.5183 11.5061 10.5183 11.5061C9.34977 13.2379 9.21319 19.0386 9.21319 19.0386C9.21888 19.454 9.30803 19.6873 9.39719 19.8239C9.21698 19.7575 9.03299 19.6892 8.86037 19.6134C8.49237 19.454 7.8038 18.9703 7.78294 17.5913V17.5609V17.5306C7.80001 17.0867 7.97642 13.1412 9.33269 11.1267C9.40667 11.0242 9.64948 10.7207 10.0971 10.4078C10.0971 10.4078 10.0971 10.4059 10.0952 10.4059C10.78 9.69642 11.2827 8.7328 11.4401 7.81091C11.5615 7.68572 11.6848 7.48465 11.7398 7.16408C11.8385 6.80746 11.9618 6.18338 11.7417 5.89316C11.7304 5.87798 11.7171 5.86471 11.7057 5.85143C11.9106 5.10026 12.1723 3.5486 11.2429 2.49014C11.1651 2.38391 10.6434 1.76174 9.52807 1.43168L8.99694 1.24768C8.11869 0.976424 7.56669 0.91762 7.54393 0.913826C7.50409 0.910032 7.46236 0.913826 7.42442 0.923311C7.39407 0.934692 7.28974 0.961248 7.20818 0.949867C6.99952 0.919517 6.68464 1.02764 6.62773 1.0504C6.55565 1.07696 4.85793 1.75794 4.34198 3.34184C4.29456 3.46894 4.08969 4.14233 4.36095 5.79262C4.32111 5.81918 4.28318 5.85332 4.25093 5.89506C4.03089 6.18528 4.15608 6.80556 4.25283 7.16408C4.30404 7.48086 4.42734 7.68003 4.54684 7.80712C4.68342 8.71763 5.1197 9.59399 5.69636 10.2655L5.53323 10.5159L5.52943 10.4988L5.52184 10.5329C5.52374 10.5273 5.52943 10.5197 5.53133 10.514V10.5159L5.52184 10.5329C5.29232 11.2538 2.52666 12.0941 2.52666 12.0941C1.7053 12.409 1.35817 12.8813 1.35817 12.8813C0.142267 14.6833 0 18.6953 0 18.6953C0.0151751 19.6096 0.411625 19.7063 0.411625 19.7063C3.20574 20.9526 7.59135 21.1726 7.59135 21.1726C7.82846 21.1802 8.0466 21.1669 8.26664 21.1536L8.27233 21.1764C8.27233 21.1764 9.92263 21.091 11.8404 20.7401C14.1527 21.2997 16.5067 21.4192 16.5067 21.4192C16.7325 21.4249 16.9449 21.4116 17.1555 21.3983L17.1612 21.4211C17.1612 21.4211 19.6176 21.2959 21.9755 20.7022C23.9729 21.0834 25.7294 21.1726 25.7294 21.1726C25.9646 21.1802 26.1847 21.1669 26.4047 21.1536L26.4104 21.1764C26.4104 21.1764 30.796 20.9545 33.5901 19.7101C33.5901 19.7101 33.9847 19.6134 33.9998 18.6972C34.0055 18.6991 33.8633 14.6871 32.6474 12.8832Z" fill="white"/>
</svg>
