<svg width="24" height="24" viewBox="0 0 24 24" fill="none" xmlns="http://www.w3.org/2000/svg">
<path d="M12 0C11.2835 0 10.7028 0.580725 10.7028 1.29721V10.7028H1.29721C0.580725 10.7028 0 11.2835 0 12C0 12.7165 0.580725 13.2972 1.29721 13.2972H10.7028V22.7028C10.7028 23.4193 11.2835 24 12 24C12.7165 24 13.2972 23.4193 13.2972 22.7028V13.2972H22.7028C23.4193 13.2972 24 12.7165 24 12C24 11.2835 23.4193 10.7028 22.7028 10.7028H13.2972V1.29721C13.2972 0.580725 12.7165 0 12 0Z" fill="#1E0039"/>
</svg>
