<svg width="51" height="51" viewBox="0 0 51 51" fill="none" xmlns="http://www.w3.org/2000/svg">
<path d="M25.5 0C23.9775 0 22.7434 1.23404 22.7434 2.75656V22.7434H2.75656C1.23404 22.7434 0 23.9775 0 25.5C0 27.0225 1.23404 28.2566 2.75656 28.2566H22.7434V48.2434C22.7434 49.766 23.9775 51 25.5 51C27.0225 51 28.2566 49.766 28.2566 48.2434V28.2566H48.2434C49.766 28.2566 51 27.0225 51 25.5C51 23.9775 49.766 22.7434 48.2434 22.7434H28.2566V2.75656C28.2566 1.23404 27.0225 0 25.5 0Z" fill="white"/>
</svg>
