<svg width="49" height="49" viewBox="0 0 49 49" fill="none" xmlns="http://www.w3.org/2000/svg">
<path fill-rule="evenodd" clip-rule="evenodd" d="M22.3281 0C21.7232 0 21.2333 0.490317 21.2329 1.0948V21.0004H1.32733H1.32771C0.722827 21.0004 0.23291 21.4907 0.23291 22.0952V26.075C0.23291 26.6799 0.722846 27.1698 1.32771 27.1702H21.2333V47.0807H21.2329C21.2333 47.6852 21.7232 48.1755 22.3281 48.1755H26.308C26.9125 48.1755 27.4027 47.6852 27.4027 47.0807V27.1702H47.3132C47.9181 27.1698 48.408 26.6799 48.408 26.075V22.0952C48.408 21.4907 47.9181 21.0004 47.3132 21.0004H27.4027V1.0948C27.4027 0.490298 26.9124 0 26.308 0H22.3281Z" fill="#1E0039"/>
</svg>
