<?xml version="1.0" encoding="UTF-8"?>
<svg width="1200pt" height="1200pt" version="1.1" viewBox="0 0 1200 1200" xmlns="http://www.w3.org/2000/svg">
 <path d="m126.71 504.14h377.44v-377.44c0-33.703 27.516-61.219 61.219-61.219h69.328c33.703 0 61.219 27.516 61.219 61.219v377.44h377.39c33.703 0 61.219 27.516 61.219 61.219v69.328c0 33.703-27.516 61.219-61.219 61.219h-377.39v377.39c0 33.703-27.516 61.219-61.219 61.219h-69.328c-33.703 0-61.219-27.516-61.219-61.219v-377.39h-377.44c-33.703 0-61.219-27.516-61.219-61.219v-69.328c0-33.703 27.516-61.219 61.219-61.219" fill-rule="evenodd" fill="white"/>
</svg>
