<svg xmlns="http://www.w3.org/2000/svg" xmlns:xlink="http://www.w3.org/1999/xlink" version="1.1" x="0px" y="0px" viewBox="0 0 64 80" style="enable-background:new 0 0 64 64;" xml:space="preserve"><g><g><g><g><g><path d="M49.71,26.61H14.29c-0.54,0-0.97-0.43-0.97-0.97c0-0.54,0.43-0.97,0.97-0.97h35.41c0.54,0,0.97,0.43,0.97,0.97       C50.68,26.17,50.24,26.61,49.71,26.61z"/></g><g><path d="M49.71,10.43H14.29c-0.54,0-0.97-0.43-0.97-0.97c0-0.54,0.43-0.97,0.97-0.97h35.41c0.54,0,0.97,0.43,0.97,0.97       C50.68,10,50.24,10.43,49.71,10.43z"/></g><g><path d="M14.29,31.93c-0.54,0-0.97-0.43-0.97-0.97V3.22c0-0.71-0.57-1.28-1.28-1.28c-0.71,0-1.29,0.57-1.29,1.28v27.74       c0,0.54-0.43,0.97-0.97,0.97c-0.54,0-0.97-0.43-0.97-0.97V3.22C8.82,1.44,10.26,0,12.04,0c1.77,0,3.22,1.44,3.22,3.22v27.74       C15.26,31.5,14.83,31.93,14.29,31.93z"/></g><g><path d="M54.22,31.93c-0.54,0-0.97-0.43-0.97-0.97V3.22c0-0.71-0.58-1.28-1.29-1.28c-0.71,0-1.28,0.57-1.28,1.28v27.74       c0,0.54-0.43,0.97-0.97,0.97c-0.54,0-0.97-0.43-0.97-0.97V3.22c0-1.78,1.44-3.22,3.22-3.22c1.78,0,3.23,1.44,3.23,3.22v27.74       C55.18,31.5,54.75,31.93,54.22,31.93z"/></g></g><g><path d="M54.67,37.77H9.33c-2.14,0-3.89-1.74-3.89-3.89c0-2.14,1.74-3.89,3.89-3.89h45.34c2.14,0,3.89,1.74,3.89,3.89      C58.56,36.03,56.82,37.77,54.67,37.77z M9.33,31.93c-1.07,0-1.95,0.87-1.95,1.95c0,1.07,0.87,1.95,1.95,1.95h45.34      c1.07,0,1.95-0.87,1.95-1.95c0-1.07-0.87-1.95-1.95-1.95H9.33z"/></g></g><g><g><path d="M15.76,64c-0.55,0-1.1-0.16-1.59-0.48c-0.72-0.48-1.17-1.26-1.24-2.13c-0.06-0.87,0.27-1.71,0.92-2.29l25.41-23.01      c0.4-0.36,1.01-0.33,1.37,0.07c0.36,0.4,0.33,1.01-0.07,1.37L15.16,60.53c-0.2,0.18-0.31,0.45-0.29,0.72      c0.01,0.16,0.08,0.45,0.38,0.66c0.34,0.23,0.79,0.2,1.09-0.07l28.44-25.75c0.4-0.36,1.01-0.33,1.37,0.07      c0.36,0.4,0.33,1.01-0.07,1.37L17.64,63.27C17.11,63.75,16.44,64,15.76,64z"/></g><g><path d="M32,44.94c-0.23,0-0.46-0.08-0.65-0.25l-7.92-7.18c-0.4-0.36-0.43-0.97-0.07-1.37c0.36-0.4,0.97-0.43,1.37-0.07      l7.92,7.18c0.4,0.36,0.43,0.97,0.07,1.37C32.53,44.84,32.26,44.94,32,44.94z"/></g><g><path d="M29.25,47.44c-0.23,0-0.46-0.08-0.65-0.25l-10.68-9.67c-0.4-0.36-0.43-0.97-0.07-1.37c0.36-0.4,0.97-0.43,1.37-0.07      l10.68,9.67c0.4,0.36,0.43,0.97,0.07,1.37C29.77,47.33,29.51,47.44,29.25,47.44z"/></g><g><path d="M48.24,64c-0.68,0-1.35-0.25-1.89-0.73l-15.01-13.6c-0.4-0.36-0.43-0.97-0.07-1.37c0.36-0.4,0.97-0.43,1.37-0.07      l15.01,13.6c0.3,0.27,0.74,0.3,1.09,0.07c0.31-0.21,0.37-0.5,0.38-0.66c0.02-0.27-0.09-0.53-0.29-0.72L34.1,47.19      c-0.4-0.36-0.43-0.97-0.07-1.37c0.36-0.4,0.97-0.43,1.37-0.07l14.74,13.34c0.65,0.59,0.99,1.42,0.92,2.29      c-0.06,0.87-0.51,1.64-1.24,2.13C49.35,63.84,48.79,64,48.24,64z"/></g></g></g><g><g><path d="M23.65,21.83c-0.15,0-0.31-0.04-0.45-0.11l-1.95-1.02l-1.95,1.02c-0.33,0.17-0.72,0.14-1.02-0.07     c-0.3-0.22-0.45-0.58-0.39-0.95l0.37-2.17l-1.58-1.54c-0.26-0.26-0.36-0.64-0.25-0.99c0.11-0.35,0.42-0.61,0.78-0.66l2.18-0.32     l0.97-1.97c0.33-0.66,1.41-0.66,1.74,0l0.97,1.97l2.18,0.32c0.37,0.05,0.67,0.31,0.78,0.66c0.11,0.35,0.02,0.74-0.25,0.99     l-1.58,1.54l0.37,2.17c0.06,0.36-0.09,0.73-0.39,0.95C24.05,21.76,23.85,21.83,23.65,21.83z M19.45,16.97l0.54,0.52     c0.23,0.22,0.33,0.54,0.28,0.86l-0.13,0.74l0.66-0.35c0.28-0.15,0.62-0.15,0.9,0l0.66,0.35l-0.13-0.74     c-0.05-0.31,0.05-0.64,0.28-0.86l0.53-0.52l-0.74-0.11c-0.32-0.05-0.59-0.24-0.73-0.53l-0.33-0.67l-0.33,0.67     c-0.14,0.29-0.41,0.48-0.73,0.53L19.45,16.97z"/></g><g><path d="M34.4,21.83c-0.15,0-0.31-0.04-0.45-0.11L32,20.69l-1.95,1.02c-0.33,0.17-0.72,0.14-1.02-0.07     c-0.3-0.22-0.45-0.58-0.39-0.95l0.37-2.17l-1.58-1.54c-0.26-0.26-0.36-0.64-0.25-0.99c0.11-0.35,0.42-0.61,0.78-0.66l2.18-0.32     l0.97-1.97c0.33-0.66,1.41-0.66,1.74,0l0.97,1.97l2.18,0.32c0.36,0.05,0.67,0.31,0.78,0.66c0.11,0.35,0.02,0.74-0.25,0.99     l-1.58,1.54l0.37,2.17c0.06,0.36-0.09,0.73-0.39,0.95C34.8,21.76,34.6,21.83,34.4,21.83z M32,18.63c0.15,0,0.31,0.04,0.45,0.11     l0.66,0.35l-0.13-0.74c-0.05-0.31,0.05-0.64,0.28-0.86l0.54-0.52l-0.74-0.11c-0.32-0.05-0.59-0.24-0.73-0.53L32,15.66l-0.33,0.67     c-0.14,0.29-0.41,0.48-0.73,0.53l-0.74,0.11l0.54,0.52c0.23,0.22,0.33,0.54,0.28,0.86l-0.13,0.74l0.66-0.35     C31.69,18.66,31.85,18.63,32,18.63z"/></g><g><path d="M40.35,21.83c-0.2,0-0.4-0.06-0.57-0.19c-0.3-0.22-0.45-0.58-0.39-0.95l0.37-2.17l-1.58-1.54     c-0.26-0.26-0.36-0.64-0.25-0.99c0.11-0.35,0.42-0.61,0.78-0.66l2.18-0.32l0.97-1.97c0.33-0.66,1.41-0.66,1.74,0l0.97,1.97     l2.18,0.32c0.37,0.05,0.67,0.31,0.78,0.66c0.11,0.35,0.02,0.74-0.25,0.99l-1.58,1.54l0.37,2.17c0.06,0.36-0.09,0.73-0.39,0.95     c-0.3,0.22-0.69,0.25-1.02,0.07l-1.95-1.02l-1.95,1.02C40.66,21.79,40.51,21.83,40.35,21.83z M42.75,18.63     c0.15,0,0.31,0.04,0.45,0.11l0.66,0.35l-0.13-0.74c-0.05-0.31,0.05-0.64,0.28-0.86l0.54-0.52l-0.74-0.11     c-0.32-0.05-0.59-0.24-0.73-0.53l-0.33-0.67l-0.33,0.67c-0.14,0.29-0.41,0.48-0.73,0.53l-0.74,0.11l0.53,0.52     c0.23,0.22,0.33,0.54,0.28,0.86l-0.13,0.74l0.66-0.35C42.44,18.66,42.6,18.63,42.75,18.63z"/></g></g></g><text x="0" y="79" fill="#000000" font-size="5px" font-weight="bold" font-family="'Helvetica Neue', Helvetica, Arial-Unicode, Arial, Sans-serif">Created by Icon Shop</text><text x="0" y="84" fill="#000000" font-size="5px" font-weight="bold" font-family="'Helvetica Neue', Helvetica, Arial-Unicode, Arial, Sans-serif">from the Noun Project</text></svg>