<svg width="53.333" height="24" viewBox="0 0 53.333 24" fill="none" xmlns="http://www.w3.org/2000/svg"><path d="M25.333 23.539c0 -6.093 -4.303 -11.193 -10.02 -12.416a5.88 5.88 0 0 0 3.219 -5.241C18.533 2.639 15.901 0 12.668 0 9.433 0 6.8 2.637 6.8 5.88c0 2.288 1.313 4.271 3.221 5.243C4.303 12.345 0 17.445 0 23.539V24h25.333zM7.723 5.881A4.96 4.96 0 0 1 12.667 0.92a4.96 4.96 0 0 1 4.945 4.96A4.96 4.96 0 0 1 12.667 10.839a4.96 4.96 0 0 1 -4.944 -4.957M0.929 23.077c0.243 -6.28 5.415 -11.316 11.737 -11.316s11.495 5.036 11.737 11.316z" fill="black"/><path d="M28 23.539V24h25.333v-0.461c0 -6.093 -4.303 -11.193 -10.02 -12.416a5.88 5.88 0 0 0 3.219 -5.241C46.533 2.639 43.901 0 40.668 0c-3.235 0 -5.867 2.637 -5.867 5.88 0 2.288 1.313 4.271 3.221 5.243 -5.72 1.223 -10.023 6.323 -10.023 12.416m7.721 -17.657a4.96 4.96 0 0 1 4.947 -4.96 4.96 4.96 0 0 1 4.943 4.96A4.96 4.96 0 0 1 40.666 10.839a4.96 4.96 0 0 1 -4.945 -4.957m4.947 5.88c6.321 0 11.493 5.035 11.736 11.316H28.929c0.243 -6.28 5.413 -11.316 11.737 -11.316" fill="black"/><path d="m25.445 8.64 -2.195 -2.149H30.666v-0.981h-7.416l2.195 -2.149 -0.708 -0.693L21.333 6 24.737 9.333z" fill="black"/><path d="m27.888 8.693 2.195 2.149H22.667v0.981h7.416l-2.195 2.149 0.709 0.693L32 11.333 28.596 8z" fill="black"/></svg>