<svg viewBox="0 0 63 119" xmlns="http://www.w3.org/2000/svg">
  <path
    d="M3.51803 119C3.0577 119.003 2.60138 118.914 2.17522 118.74C1.74906 118.566 1.36146 118.309 1.03463 117.985C0.706789 117.66 0.446578 117.273 0.269002 116.846C0.0914258 116.42 0 115.962 0 115.5C0 115.038 0.0914258 114.581 0.269002 114.155C0.446578 113.728 0.706789 113.341 1.03463 113.016L54.5501 59.5071L1.03463 5.9986C0.375989 5.33961 0.00597092 4.44584 0.00597092 3.5139C0.00597092 3.05244 0.0968107 2.59551 0.273308 2.16919C0.449806 1.74286 0.708503 1.35549 1.03463 1.0292C1.36075 0.702901 1.74792 0.44407 2.17402 0.26748C2.60012 0.0908907 3.05682 0 3.51803 0C4.44948 0 5.34279 0.370213 6.00142 1.0292L61.9654 57.0224C62.2932 57.3478 62.5534 57.7348 62.731 58.1613C62.9086 58.5877 63 59.0451 63 59.5071C63 59.9691 62.9086 60.4265 62.731 60.853C62.5534 61.2794 62.2932 61.6665 61.9654 61.9918L6.00142 117.985C5.67459 118.309 5.28699 118.566 4.86084 118.74C4.43468 118.914 3.97835 119.003 3.51803 119Z"
    fill="url(#paint0_linear_2245_589)"
  />
  <defs>
    <linearGradient id="paint0_linear_2245_589" x1="31.5" y1="0" x2="31.5" y2="119" gradientUnits="userSpaceOnUse">
      <stop stop-color="#6101B7"/>
      <stop offset="1" stop-color="#FF00A0"/>
    </linearGradient>
  </defs>
</svg>
