<svg width="50" height="70" viewBox="0 0 50 70" fill="none" xmlns="http://www.w3.org/2000/svg">
<path fill-rule="evenodd" clip-rule="evenodd" d="M7.49692 0C3.38095 0 0 3.31925 0 7.36011V67.5709C0.000178468 67.9359 0.0997258 68.2942 0.288335 68.6087C0.476945 68.9232 0.74776 69.1826 1.07274 69.3598C1.39772 69.5371 1.76506 69.6258 2.13671 69.6169C2.50836 69.6079 2.87083 69.5016 3.18657 69.3089L25 56.0245L46.8134 69.3089C47.1292 69.5016 47.4916 69.6079 47.8633 69.6169C48.2349 69.6258 48.6023 69.5371 48.9273 69.3598C49.2522 69.1826 49.5231 68.9232 49.7117 68.6087C49.9003 68.2942 49.9998 67.9359 50 67.5709V7.36011C50 3.31925 46.6191 0 42.5031 0H7.49692ZM7.49692 4.09567H42.5031C44.3824 4.09567 45.8282 5.51511 45.8282 7.36011V63.8984L26.093 51.8835C25.7643 51.6849 25.3859 51.5798 25 51.5798C24.6141 51.5798 24.2357 51.6849 23.907 51.8835L4.17179 63.8984V7.36011C4.17179 5.51511 5.61764 4.09567 7.49692 4.09567Z" fill="#868585"/>
</svg>
