<svg width="64" height="64" viewBox="0 0 64 64" fill="none" xmlns="http://www.w3.org/2000/svg">
<path opacity="0.75" d="M62.1153 25.775L54.982 24.5634C54.5782 23.2846 54.0398 22.0735 53.4342 20.8619L57.6065 15.0072C58.2121 14.1322 58.145 12.9211 57.4047 12.1807L51.6842 6.46024C50.9439 5.71995 49.7328 5.58524 48.8577 6.25839L43.003 10.4307C41.859 9.82512 40.5803 9.2867 39.3015 8.88298L38.1575 1.81714C37.9557 0.74028 37.0807 0 36.0038 0H27.9283C26.8514 0 25.9769 0.740292 25.7745 1.81714L24.5634 8.95051C23.2846 9.35422 22.0735 9.89265 20.8619 10.4982L15.0072 6.32593C14.1322 5.72036 12.9211 5.78749 12.1807 6.52778L6.46024 12.2483C5.71995 12.9886 5.58524 14.1996 6.25839 15.0748L10.4307 20.9295C9.82512 22.0735 9.2867 23.3522 8.88298 24.6309L1.81714 25.7749C0.74028 25.9768 0 26.8518 0 27.9287V36.0042C0 37.0811 0.740292 37.9556 1.81714 38.158L8.95051 39.3691C9.35422 40.6478 9.89265 41.8589 10.4982 43.0705L6.32593 48.9253C5.72036 49.8003 5.78749 51.0113 6.52778 51.7517L12.2483 57.4722C12.9886 58.2125 14.1996 58.3472 15.0748 57.6741L20.9295 53.5018C22.0735 54.1073 23.3522 54.6458 24.6309 55.0495L25.842 62.1829C26.0439 63.2597 26.9189 64 27.9958 64H36.0713C37.1482 64 38.0227 63.2597 38.2251 62.1829L39.3691 54.9818C40.6478 54.5781 41.8589 54.0397 43.0705 53.4341L48.9252 57.6064C49.8003 58.212 51.0113 58.1449 51.7517 57.4046L57.4722 51.6841C58.2125 50.9438 58.3472 49.7327 57.6741 48.8576L53.5018 43.0029C54.1073 41.8589 54.6458 40.5802 55.0495 39.3014L62.1829 38.0903C63.2597 37.8884 64 37.0134 64 35.9366L63.9995 27.9281C63.9324 26.8517 63.1921 25.9767 62.1152 25.7748L62.1153 25.775ZM31.9662 43.4741C25.5731 43.4741 20.4582 38.2921 20.4582 31.9661C20.4582 25.573 25.6402 20.458 31.9662 20.458C38.2923 20.458 43.4743 25.5729 43.4743 31.9661C43.4743 38.3593 38.3595 43.4741 31.9662 43.4741Z" fill="#868585"/>
</svg>
