<svg xmlns="http://www.w3.org/2000/svg" viewBox="0 0 64 80" x="0px" y="0px"><title>mic, microphone, sound, sport,</title><g><path d="M38,55H35V50H29v5H26a3,3,0,0,0,0,6H38a3,3,0,0,0,0-6Z"/><path d="M37,25a1,1,0,0,0,1,1h7V24H38A1,1,0,0,0,37,25Z"/><path d="M27,35a1,1,0,0,0-1-1H19v2h7A1,1,0,0,0,27,35Z"/><path d="M27,25a1,1,0,0,0-1-1H19v2h7A1,1,0,0,0,27,25Z"/><path d="M27,15a1,1,0,0,0-1-1H19v2h7A1,1,0,0,0,27,15Z"/><path d="M37,35a1,1,0,0,0,1,1h7V34H38A1,1,0,0,0,37,35Z"/><path d="M37,15a1,1,0,0,0,1,1h7V14H38A1,1,0,0,0,37,15Z"/><path d="M35.45,2h-6.9A9.57,9.57,0,0,0,19,11.55V12h7a3,3,0,0,1,0,6H19v4h7a3,3,0,0,1,0,6H19v4h7a3,3,0,0,1,0,6H19v.45A9.57,9.57,0,0,0,28.55,48h6.9A9.57,9.57,0,0,0,45,38.45V38H38a3,3,0,0,1,0-6h7V28H38a3,3,0,0,1,0-6h7V18H38a3,3,0,0,1,0-6h7v-.45A9.57,9.57,0,0,0,35.45,2Z"/></g><text x="0" y="79" fill="#000000" font-size="5px" font-weight="bold" font-family="'Helvetica Neue', Helvetica, Arial-Unicode, Arial, Sans-serif">Created by Sob Studio</text><text x="0" y="84" fill="#000000" font-size="5px" font-weight="bold" font-family="'Helvetica Neue', Helvetica, Arial-Unicode, Arial, Sans-serif">from the Noun Project</text></svg>