<?xml version="1.0" encoding="UTF-8" standalone="no" ?>
<!DOCTYPE svg PUBLIC "-//W3C//DTD SVG 1.1//EN" "http://www.w3.org/Graphics/SVG/1.1/DTD/svg11.dtd">
<svg xmlns="http://www.w3.org/2000/svg" xmlns:xlink="http://www.w3.org/1999/xlink" version="1.1" width="1080" height="1080" viewBox="0 0 1080 1080" xml:space="preserve">
<desc>Created with Fabric.js 5.2.4</desc>
<defs>
</defs>
<g transform="matrix(1 0 0 1 540 540)" id="ee9730e8-ebf2-4aa2-8a1d-054ca8caaf01"  >
<rect style="stroke: none; stroke-width: 1; stroke-dasharray: none; stroke-linecap: butt; stroke-dashoffset: 0; stroke-linejoin: miter; stroke-miterlimit: 4; fill: rgb(255,255,255); fill-rule: nonzero; opacity: 1; visibility: hidden;" vector-effect="non-scaling-stroke"  x="-540" y="-540" rx="0" ry="0" width="1080" height="1080" />
</g>
<g transform="matrix(1 0 0 1 540 540)" id="fe30751b-da1e-440b-9098-137d221dfa0e"  >
</g>
<g transform="matrix(1.33 0 0 1.33 569.65 412.47)"  >
<path style="stroke: none; stroke-width: 1; stroke-dasharray: none; stroke-linecap: butt; stroke-dashoffset: 0; stroke-linejoin: miter; stroke-miterlimit: 4; fill: rgb(0,0,0); fill-rule: nonzero; opacity: 1;" vector-effect="non-scaling-stroke"  transform=" translate(-350.02, -262.85)" d="M 584.75 209.61 C 584.09375 207.5944 582.3594 206.1217 580.2695 205.8014 L 424.6495 183.4034 L 355.0405 42.11340000000001 C 354.10691 40.179800000000014 352.1499 38.95320000000001 350.0014 38.95320000000001 C 347.8529 38.95320000000001 345.8959 40.17980000000001 344.96229999999997 42.11340000000001 L 275.3533 183.17340000000002 L 119.73329999999999 205.5714 C 117.64349999999999 205.89171000000002 115.90909999999998 207.3683 115.25279999999998 209.38000000000002 C 114.64732999999998 211.36440000000002 115.18639399999998 213.51670000000001 116.65509999999998 214.98160000000001 L 229.27509999999998 324.7416 L 202.67309999999998 480.0816 C 202.26294 482.2222 203.13794 484.4097 204.9114 485.67929999999996 C 206.63019999999997 486.93319999999994 208.9075 487.10509999999994 210.7942 486.12852 L 350.00419999999997 412.82352 L 489.2142 486.01451999999995 C 490.01108 486.42467999999997 490.89390000000003 486.63560999999993 491.7923 486.63170999999994 C 492.9759 486.6356159999999 494.1361 486.26451999999995 495.09700000000004 485.56530999999995 C 496.8704 484.29580999999996 497.7454 482.11220999999995 497.3353 479.96761 L 470.73330000000004 325.06760999999995 L 583.3533 215.30760999999995 L 583.3533 215.31151599999995 C 584.865 213.82321599999995 585.4041 211.61621599999995 584.7556 209.60061599999995 z M 460.82 319.20000000000005 C 459.5036 320.47730000000007 458.8981 322.32110000000006 459.195 324.12970000000007 L 484.394 470.78970000000004 L 352.624 401.5167 C 350.96380000000005 400.69639 349.0185 400.69639 347.3584 401.5167 L 215.5884 470.78970000000004 L 240.73340000000002 324.0697 L 240.72949400000002 324.065793 C 241.03027400000002 322.257193 240.42480400000002 320.417393 239.108394 319.139993 L 132.708394 215.199993 L 279.98839399999997 193.80899300000002 L 279.984488 193.80899300000002 C 281.828288 193.551183 283.421988 192.398793 284.242288 190.72699300000002 L 349.984288 57.27699300000003 L 415.839288 190.72699300000002 C 416.659598 192.39889300000002 418.25338800000003 193.551193 420.097088 193.80899300000002 L 567.377088 215.199993 z" stroke-linecap="round" />
</g>
</svg>