<?xml version="1.0" encoding="UTF-8"?>
<svg width="700pt" height="700pt" version="1.1" viewBox="0 0 700 700" xmlns="http://www.w3.org/2000/svg" xmlns:xlink="http://www.w3.org/1999/xlink">

 <g>
  <path d="m468.61 453.6h-237.22c-3.0898 0-5.5977-2.5078-5.5977-5.6016v-247.07c0-3.0938 2.5078-5.6016 5.5977-5.6016h237.22c1.4844 0 2.9102 0.58984 3.957 1.6406 1.0508 1.0508 1.6406 2.4727 1.6406 3.9609v247.07c0 1.4844-0.58984 2.9102-1.6406 3.9609-1.0469 1.0508-2.4727 1.6406-3.957 1.6406zm-231.62-11.203h226.02v-235.87h-226.02z"/>
  <path d="m483.39 206.53h-266.78c-3.0938 0-5.6016-2.5078-5.6016-5.5977v-49.395c0-3.0938 2.5078-5.5977 5.6016-5.5977h266.78c1.4883 0 2.9102 0.58984 3.9609 1.6406 1.0508 1.0469 1.6406 2.4727 1.6406 3.957v49.395c0 1.4844-0.58984 2.9062-1.6406 3.957-1.0508 1.0508-2.4727 1.6406-3.9609 1.6406zm-261.24-11.199h255.64v-38.191h-255.59z"/>
  <path d="m419.16 157.14h-138.32c-3.0938 0-5.6016-2.5078-5.6016-5.6016v-39.535c0-3.0938 2.5078-5.6016 5.6016-5.6016h138.32c1.4844 0 2.9102 0.58984 3.9609 1.6406 1.0508 1.0508 1.6406 2.4766 1.6406 3.9609v39.535c0 1.4844-0.58984 2.9102-1.6406 3.9609-1.0508 1.0508-2.4766 1.6406-3.9609 1.6406zm-132.78-11.199h127.18v-28.336h-127.12z"/>
  <path d="m275.86 409.14c-3.0938 0-5.5977-2.5078-5.5977-5.6016v-158.14c0-3.0898 2.5039-5.5977 5.5977-5.5977s5.6016 2.5078 5.6016 5.5977v158.14c0 1.4844-0.58984 2.9102-1.6406 3.9609-1.0508 1.0508-2.4766 1.6406-3.9609 1.6406z"/>
  <path d="m325.3 409.14c-3.0938 0-5.6016-2.5078-5.6016-5.6016v-158.14c0-3.0898 2.5078-5.5977 5.6016-5.5977s5.5977 2.5078 5.5977 5.5977v158.14c0 1.4844-0.58984 2.9102-1.6367 3.9609-1.0508 1.0508-2.4766 1.6406-3.9609 1.6406z"/>
  <path d="m374.7 409.14c-3.0938 0-5.5977-2.5078-5.5977-5.6016v-158.14c0-3.0898 2.5039-5.5977 5.5977-5.5977s5.6016 2.5078 5.6016 5.5977v158.14c0 1.4844-0.58984 2.9102-1.6406 3.9609-1.0508 1.0508-2.4766 1.6406-3.9609 1.6406z"/>
  <path d="m424.14 409.14c-3.0938 0-5.6016-2.5078-5.6016-5.6016v-158.14c0-3.0898 2.5078-5.5977 5.6016-5.5977s5.5977 2.5078 5.5977 5.5977v158.14c0 1.4844-0.58984 2.9102-1.6367 3.9609-1.0508 1.0508-2.4766 1.6406-3.9609 1.6406z"/>
 </g>
</svg>
