<svg xmlns="http://www.w3.org/2000/svg" xmlns:xlink="http://www.w3.org/1999/xlink" version="1.1" x="0px" y="0px" viewBox="0 0 64 80" style="enable-background:new 0 0 64 64;" xml:space="preserve"><g><g><path d="M48,33.7c2.3,0,4.2,1.9,4.2,4.2s-1.9,4.2-4.2,4.2s-4.2-1.9-4.2-4.2S45.7,33.7,48,33.7z M32,33.7c2.3,0,4.2,1.9,4.2,4.2    s-1.9,4.2-4.2,4.2s-4.2-1.9-4.2-4.2S29.7,33.7,32,33.7z M16,33.7c2.3,0,4.2,1.9,4.2,4.2s-1.9,4.2-4.2,4.2s-4.2-1.9-4.2-4.2    S13.7,33.7,16,33.7z M9,50.6c0-3.6,2.9-6.5,6.5-6.5h0.9c3.6,0,6.5,2.9,6.5,6.5V52H9V50.6z M25,50.6c0-3.6,2.9-6.5,6.5-6.5h0.9    c3.6,0,6.5,2.9,6.5,6.5V52H25V50.6z M55,52H41v-1.4c0-3.6,2.9-6.5,6.5-6.5h0.9c3.6,0,6.5,2.9,6.5,6.5V52z"/></g><path d="M50.7,12H13.3c-1.2,0-2.2,1-2.2,2.2V29c0,1.2,1,2.2,2.2,2.2h37.3c1.2,0,2.2-1,2.2-2.2V14.2C52.8,13,51.9,12,50.7,12z    M37.3,21.8L30,27c-0.2,0.1-0.3,0.2-0.5,0.2c-0.1,0-0.3,0-0.4-0.1c-0.3-0.2-0.5-0.5-0.5-0.8V15.8c0-0.3,0.2-0.6,0.5-0.8   c0.3-0.2,0.7-0.1,0.9,0.1l7.3,5.3c0.2,0.2,0.4,0.4,0.4,0.7S37.6,21.6,37.3,21.8z"/></g><text x="0" y="79" fill="#000000" font-size="5px" font-weight="bold" font-family="'Helvetica Neue', Helvetica, Arial-Unicode, Arial, Sans-serif">Created by Andre Buand</text><text x="0" y="84" fill="#000000" font-size="5px" font-weight="bold" font-family="'Helvetica Neue', Helvetica, Arial-Unicode, Arial, Sans-serif">from the Noun Project</text></svg>