<svg width="26" height="26" viewBox="0 0 26 26" fill="none" xmlns="http://www.w3.org/2000/svg">
<path d="M5.87389 14.0706C5.87389 13.9995 5.75409 13.9422 5.60763 13.9422C5.46148 13.9422 5.23873 13.8591 5.1128 13.7583C4.98657 13.6575 4.81713 13.6575 4.73655 13.7583C4.65566 13.8588 4.68906 13.9422 4.80978 13.9422C4.9305 13.9422 5.09994 13.9995 5.18603 14.0706C5.27182 14.1407 5.46148 14.1986 5.60763 14.1986C5.75439 14.1986 5.87389 14.1404 5.87389 14.0706Z" fill="#1E0039"/>
<path d="M6.80961 14.327C6.71861 14.2568 6.62792 14.1493 6.60769 14.0889C6.60769 14.0889 6.60769 14.0889 6.42447 14.1986C6.24063 14.3086 6.24063 14.3086 6.24063 14.3086C6.03903 14.3962 5.70873 14.6104 5.50682 14.7854C5.50682 14.7854 5.50682 14.7854 5.87357 14.7854C6.09387 14.7854 6.09387 14.7854 6.09387 14.7854C6.39659 14.7854 6.7183 14.7854 6.8093 14.7854C6.89999 14.7854 6.97414 14.7115 6.97414 14.6208C6.97445 14.5298 6.9003 14.3978 6.80961 14.327Z" fill="#1E0039"/>
<path d="M11.3182 1.39777C11.4058 1.40114 11.4579 1.41401 11.377 1.3944C11.3543 1.38888 11.3357 1.39072 11.3182 1.39777Z" fill="#1E0039"/>
<path d="M14.9726 8.39275C14.9726 8.40133 14.9726 8.40133 14.9726 8.40133C14.8574 8.57291 14.7633 8.79597 14.7633 8.89708C14.7633 8.99758 14.7814 9.13392 14.804 9.1998C14.8261 9.26537 14.9477 9.22799 15.0734 9.11676C15.1996 9.00585 15.3439 8.89034 15.3942 8.86001C15.4447 8.82967 15.4858 8.70528 15.4858 8.58456C15.4858 8.58456 15.4858 8.58456 15.4858 8.51133C15.4858 8.4381 15.3577 8.25488 15.3212 8.18134C15.2842 8.10811 15.1748 7.96135 15.1653 7.85136C15.1561 7.74136 15.1561 7.74136 15.1561 7.74136C15.0856 7.59 14.9539 7.46591 14.8641 7.46591C14.8641 7.46591 14.8641 7.46591 14.8448 7.46591C14.8255 7.46591 14.8074 7.66813 14.7707 7.72298C14.7342 7.77843 14.7342 7.77843 14.7342 7.77843C14.7946 7.96013 14.9024 8.2322 14.9726 8.38418C14.9726 8.38418 14.9726 8.38387 14.9726 8.39275Z" fill="#1E0039"/>
<path d="M14.2388 8.82387C14.3304 8.80549 14.3304 8.80549 14.3304 8.80549C14.4214 8.75493 14.5286 8.59408 14.5691 8.44793C14.6092 8.30116 14.634 8.09894 14.6242 7.99814C14.6242 7.99814 14.6242 7.99814 14.4955 8.07167C14.3674 8.1449 14.2388 8.18136 14.2388 8.29166C14.2388 8.40166 14.1471 8.84225 14.2388 8.82387Z" fill="#1E0039"/>
<path d="M21.6495 18.5457C21.3774 18.9015 21.1164 19.2287 21.0695 19.2731C21.0232 19.3173 20.8798 19.5262 20.7506 19.7388C20.7506 19.7388 20.7506 19.7388 20.7141 19.8124C20.6773 19.8856 20.6773 19.8856 20.6773 19.8856C20.7781 20.0259 20.8887 20.1424 20.9231 20.1424C20.9574 20.1424 21.0285 20.15 21.0812 20.1604C21.0812 20.1604 21.0812 20.1604 21.1179 20.1424C21.1547 20.1237 21.1911 20.1056 21.2276 20.0134C21.2647 19.9221 21.3011 19.9034 21.3195 19.7569C21.3379 19.6102 21.5944 19.1883 21.6131 19.115C21.6317 19.0412 21.6317 19.0412 21.6317 19.0412C21.7221 18.7391 21.8628 18.3012 21.9437 18.069C21.9437 18.069 21.9436 18.069 21.7969 18.3074C21.6495 18.5457 21.6495 18.5457 21.6495 18.5457Z" fill="#1E0039"/>
<path d="M13 0C5.8316 0 0 5.83191 0 13.0003C0 20.1687 5.8316 26 13 26C20.1681 26 26 20.1684 26 13C26 5.8316 20.1681 0 13 0ZM19.8972 2.68493C20.2808 2.9423 20.6491 3.22051 21.0012 3.51802C20.9531 3.60503 20.9396 3.67244 20.9856 3.70553C21.0861 3.77907 20.8756 4.16206 20.7236 4.40901L20.3663 4.10905C20.3663 4.10905 20.036 3.22909 19.9257 3.11848C19.8562 3.04954 19.8743 2.83445 19.8972 2.68493ZM17.174 11.3737L17.3986 11.0639H17.6872L18.2743 11.2634L18.2378 10.8231H18.4946L19.0081 11.2784H19.9254C19.9254 11.2784 19.8154 11.6304 19.7419 11.7658C19.6687 11.9022 19.1916 12.0339 19.1916 12.0339H18.531L18.201 11.9972L17.7975 12.2536L17.3986 12.0704C17.3986 12.0704 16.9173 11.6669 16.8802 11.5566C16.8437 11.4469 16.2934 11.373 16.1834 11.3363C16.0734 11.2995 15.8899 11.2263 15.4493 11.3363C15.4493 11.3363 15.2661 11.483 14.9358 11.5566C14.6058 11.6304 15.2661 11.116 15.4493 11.0636C15.6332 11.0112 15.7064 10.676 15.8164 10.4192C15.9264 10.1625 16.4031 10.4192 16.4031 10.4192H16.697C16.697 10.4192 17.0269 10.6392 17.1372 10.8228C17.2469 11.0063 17.064 10.9328 16.9905 11.0633C16.9172 11.1947 17.174 11.3737 17.174 11.3737ZM18.7884 10.0528C18.7884 10.0528 19.0452 9.9428 19.1552 9.81319C19.2648 9.68328 19.4851 9.81319 19.4851 9.81319L19.6867 9.31929C19.6867 9.31929 19.8887 9.68604 19.9254 9.79634C19.9619 9.90634 20.366 10.0899 20.366 10.0899L20.1457 10.3077L19.5587 10.3056C19.5587 10.3056 19.3019 10.3099 19.0081 10.3056L18.7884 10.0528ZM20.109 12.6575C20.109 12.6575 20.2925 12.9145 20.366 13.1541C20.4389 13.394 20.8795 13.7951 20.9528 14.1496C21.026 14.5041 20.9528 14.7851 20.9528 14.7851C20.9528 14.7851 20.6225 14.3818 20.5125 14.1983C20.4025 14.0148 20.0719 13.6848 19.9254 13.5748C19.7787 13.4651 19.7419 12.6575 19.7419 12.6575C19.8801 12.6575 20.109 12.6575 20.109 12.6575ZM11.6267 5.9131C11.6267 5.9131 11.6267 5.9131 11.6338 5.90697C11.6941 5.86193 11.6941 5.86193 11.6941 5.86193C11.6736 5.87817 11.6552 5.89288 11.6399 5.90422C11.6657 5.8843 11.6779 5.87388 11.6335 5.90728C11.6264 5.91341 11.6172 5.92137 11.6084 5.92873C11.6133 5.92505 11.6179 5.92137 11.6228 5.91739C11.6148 5.92383 11.609 5.92873 11.6077 5.92934C11.6077 5.92934 11.6084 5.92934 11.6084 5.92873C11.6004 5.93516 11.5927 5.94129 11.5857 5.94681C11.5927 5.94068 11.6188 5.91954 11.6267 5.9131ZM0.589196 13.1743C0.613095 13.1955 0.627495 13.208 0.627495 13.208C0.627495 13.208 0.610644 13.22 0.589809 13.2399C0.589809 13.2178 0.589502 13.1961 0.589196 13.1743ZM0.598694 13.5193C0.60758 13.5258 0.616159 13.5322 0.627495 13.5386C0.884254 13.6854 0.627495 13.5751 0.884254 13.6854C1.14101 13.7957 1.14101 13.7954 1.14101 13.7954C1.14101 13.7954 1.10455 13.7222 1.14101 13.5751C1.17747 13.4283 1.32485 13.6851 1.17747 13.4283C1.03071 13.1713 1.10455 13.4651 1.03071 13.1713C0.957482 12.8774 0.957482 12.8774 0.957482 12.8774C0.957482 12.8774 0.884254 12.6939 0.994249 12.6939C1.10424 12.6939 1.24151 13.0977 1.24151 13.0977C1.24151 13.0977 1.43454 13.5383 1.54484 13.6116C1.65484 13.6848 1.65484 13.6848 1.65484 13.6848C1.65484 13.6848 1.8016 13.8316 1.83806 13.9783C1.87452 14.1251 1.65484 14.1618 1.83806 14.2718C2.02128 14.3815 1.76452 14.1618 2.02128 14.3815C2.27865 14.6018 2.42511 14.5648 2.53541 14.6383C2.64571 14.7118 2.68217 14.4183 2.79217 14.6383C2.90217 14.8583 2.57218 14.6383 2.90217 14.8583C3.23215 15.0792 3.41568 15.1892 3.41568 15.1892C3.41568 15.1892 3.45214 14.9689 3.67305 15.1892C3.89274 15.4089 4.1495 15.4456 4.1495 15.4456C4.1495 15.4456 4.18626 15.5562 4.36979 15.7027C4.55363 15.8495 4.36979 15.6295 4.55363 15.8495C4.73716 16.0692 4.73716 16.0692 4.73716 16.0692L5.06715 16.2894H5.21391C5.32421 16.473 5.32421 16.473 5.32421 16.473L5.61774 16.8394V17.0968C5.61774 17.0968 5.4339 16.8394 5.4339 17.0968C5.4339 17.3536 5.47067 17.1333 5.4339 17.3536C5.39744 17.5735 5.39744 17.5735 5.39744 17.5735L5.61774 17.8677V18.1241V18.3812C5.61774 18.3812 5.83773 18.638 5.94772 18.7109C6.05741 18.7841 5.76419 18.5277 6.05741 18.7841C6.35094 19.0412 6.35094 19.0412 6.35094 19.0412L6.75477 19.4082V19.555C6.75477 19.555 7.01122 19.3715 7.12121 19.555C7.23121 19.7388 7.37797 19.9221 7.37797 19.9221V20.0688C7.37797 20.0688 7.52504 19.7753 7.59827 20.0688C7.6718 20.362 7.59827 20.5088 7.59827 20.5088C7.59827 20.5088 7.81887 20.6923 7.85534 20.8023C7.8921 20.9123 7.78211 21.0223 7.85534 21.1326C7.92856 21.2426 8.03887 21.72 8.03887 21.72L8.33208 22.3067C8.33208 22.3067 8.25916 22.5264 8.33208 22.6364C8.40562 22.7464 8.51592 22.9667 8.51592 22.9667C8.51592 22.9667 8.25916 23.1867 8.51592 23.4438C8.77299 23.7008 8.62592 23.4438 8.77299 23.7008C8.91975 23.9579 9.02974 24.2146 9.02974 24.2146L9.5068 24.7646L9.81871 24.999C4.67098 23.6331 0.826958 19.035 0.598694 13.5193ZM13 25.4126C12.0382 25.4126 11.1019 25.3033 10.202 25.0949H10.2765L9.90971 24.3611C9.90971 24.3611 9.98294 24.1411 9.87294 24.0311C9.76295 23.9211 9.76295 23.9211 9.76295 23.9211L9.65326 23.7373V23.4808C9.65326 23.4808 9.80002 23.297 9.65326 23.2238C9.50649 23.1502 9.50649 23.3705 9.50649 23.1502C9.50649 22.9299 9.50649 22.9299 9.50649 22.9299C9.50649 22.9299 9.69002 22.7835 9.76325 22.6735C9.83679 22.5635 9.72648 22.8199 9.83679 22.5635C9.94648 22.3067 10.0203 21.9764 10.0203 21.9764L10.2771 21.7564V21.5361V21.2794C10.2771 21.2794 10.24 21.1697 10.2771 21.022C10.3135 20.8753 10.2771 20.6553 10.2771 20.6553C10.2771 20.6553 10.3868 20.5823 10.4974 20.5085C10.6071 20.4353 10.9006 20.1785 10.9006 20.1785C10.9006 20.1785 10.7171 20.0688 10.9006 19.9585C11.0844 19.8485 11.1944 19.7382 11.1573 19.5915C11.1209 19.4447 11.1944 19.8121 11.1209 19.4447C11.0477 19.0776 11.0109 19.1147 11.0109 18.8576C11.0109 18.6003 10.8641 18.8206 11.0109 18.6003C11.1577 18.3806 11.3776 17.9584 11.3776 17.9584C11.3776 17.9584 11.1209 17.6838 11.0109 17.6468C10.9009 17.6103 10.7906 17.5365 10.6074 17.4626C10.4238 17.3897 9.91063 17.2062 9.91063 17.2062C9.91063 17.2062 9.65387 17.0962 9.54387 17.0594C9.43357 17.0226 9.06682 16.5088 9.06682 16.5088C9.06682 16.5088 9.03005 16.5088 8.69945 16.3988C8.36946 16.2888 8.29624 16.2521 8.18593 16.1424C8.07594 16.0324 7.78272 15.7753 7.78272 15.7753L7.70949 15.5921C7.70949 15.5921 7.59919 15.7018 7.2689 15.6653C6.93891 15.6286 6.64538 15.3715 6.64538 15.3715C6.64538 15.3715 6.46185 15.3715 6.31479 15.4447C6.16802 15.5179 5.91157 15.7018 5.91157 15.7018L5.65481 15.775L5.17776 15.7386L4.84746 15.5553L4.66424 15.1512C4.66424 15.1512 4.62747 14.968 4.51748 14.8941C4.40779 14.8212 4.11396 14.6009 4.11396 14.6009L4.26072 14.1606C4.26072 14.1606 4.11396 13.9771 3.9675 14.0509C3.82074 14.1239 3.60074 14.3806 3.60074 14.3806C3.60074 14.3806 3.49075 14.4538 3.38045 14.4174C3.27045 14.3806 3.08662 14.3074 2.90339 14.1239C2.71986 13.9406 2.68309 13.7571 2.68309 13.6471C2.68309 13.5371 2.90339 13.0601 2.90339 13.0601L3.5269 12.6195H3.89366L4.29749 12.4359L4.7007 12.9501L5.03099 13.3533C5.03099 13.3533 5.43421 13.0965 5.3429 12.9868C5.25098 12.8762 5.10422 12.6562 5.10422 12.6562C5.10422 12.6562 5.28775 12.3627 5.3429 12.2527C5.39805 12.1427 5.47128 12.1062 5.61804 11.8863C5.76481 11.666 5.83804 11.556 5.91126 11.446C5.9848 11.3357 6.27802 10.8222 6.27802 10.8222L6.57185 10.6015L6.82861 10.2716L7.01183 10.0883H7.30536L7.81949 9.83127H8.14947L7.85595 9.46482L7.67242 9.24422C7.85595 9.06038 8.36916 8.951 8.36916 8.951C8.36916 8.951 8.88298 8.65717 8.84652 8.76717C8.81006 8.87716 8.40593 9.39129 8.40593 9.39129L8.69915 9.61128C8.69915 9.61128 9.02974 9.68451 9.10297 9.57482C9.17651 9.46482 9.21297 9.20776 9.21297 9.20776L9.10297 8.74296C9.10297 8.74296 9.10297 8.4001 9.10297 8.21657C9.10297 8.03335 9.02974 7.5566 8.91944 7.62983C8.80975 7.70336 8.69884 7.30015 8.69884 7.30015V6.78602L8.29562 7.15277C8.29562 7.15277 8.0024 7.11601 8.03887 7.00601C8.07533 6.89602 8.25916 6.78571 8.25916 6.78571L7.85564 6.45511C7.85564 6.45511 7.41535 6.16189 7.34182 6.27158C7.26859 6.38158 7.15829 6.6751 7.15829 6.6751L6.97476 7.07893V7.336L6.828 7.70275L6.3874 8.14304L6.1671 8.58302C6.1671 8.58302 6.09418 8.03304 6.09418 7.92305C6.09418 7.81305 5.61713 7.37307 5.61713 7.37307L5.50713 6.93248C5.50713 6.93248 5.65389 6.63895 5.65389 6.52895C5.65389 6.41926 5.83742 6.19897 5.98418 6.0522C6.13095 5.90544 6.4977 5.61161 6.6077 5.53869C6.71769 5.46546 6.97445 5.31839 6.97445 5.31839L6.90153 5.9419L7.37797 5.86867L7.30474 5.53869L7.70857 5.31839L7.92856 4.73103C7.92856 4.73103 8.14886 4.21752 8.25886 4.29044C8.36855 4.36397 8.62561 4.69457 8.62561 4.69457L8.22178 5.50131H7.8921L7.78211 5.8316C7.78211 5.8316 7.96564 5.86837 8.1124 5.97836C8.25916 6.08836 8.51561 6.38158 8.51561 6.38158L8.95621 6.0519V5.75837H9.2862L9.50649 5.28132L9.43296 4.95102C9.43296 4.95102 9.43296 4.84103 9.46973 4.69457C9.50649 4.5475 9.50649 4.5475 9.50649 4.5475L9.35973 4.284V3.92399V3.63047L9.13943 3.22756H8.443L7.30505 2.67666H7.01153L6.50659 2.42388C7.37859 1.88678 8.32228 1.45537 9.31898 1.145C9.20378 1.2265 9.13974 1.29972 9.13974 1.361C9.13974 1.62052 9.21848 1.96521 9.31408 2.12607C9.40998 2.28754 9.5788 2.43645 9.69033 2.45636C9.69033 2.45636 9.69033 2.45636 9.83709 2.41929C9.98386 2.38313 10.2774 2.01607 10.3503 1.90638C10.4238 1.79639 10.9377 1.50286 11.0844 1.42933C11.1506 1.39593 11.1506 1.39593 11.1506 1.39593C11.2431 1.39593 11.3354 1.39164 11.355 1.38705C11.355 1.38705 11.355 1.38705 11.3776 1.39287C11.4585 1.41217 11.4585 1.41217 11.4585 1.41217C11.3813 1.4039 11.2591 1.50869 11.1855 1.64687C11.1855 1.64687 11.1855 1.64687 10.9374 1.83254C10.6438 2.05284 10.6438 2.05284 10.6438 2.05284C10.5629 2.26364 10.5629 2.56054 10.6438 2.71312C10.6438 2.71312 10.6438 2.71312 10.7538 2.89665C10.8638 3.08018 10.8638 3.08018 10.8638 3.08018C10.8837 3.18129 10.9003 3.2968 10.9003 3.33755C10.9003 3.33755 10.9003 3.33755 10.9003 3.44755C10.9003 3.55754 10.8638 3.88753 10.8638 3.99753C10.8638 4.10752 10.6435 4.69488 10.6435 4.80487C10.6435 4.91487 10.5789 5.21177 10.4998 5.57515C10.4998 5.57515 10.4998 5.57515 10.278 5.72191C10.0562 5.86867 10.2431 5.97867 10.278 6.1622C10.3129 6.34542 10.0228 6.30896 10.278 6.52895C10.5332 6.74925 10.4232 6.52895 10.5332 6.74925C10.6432 6.96955 10.57 6.82279 10.79 6.74925C10.9965 6.68062 10.9965 6.68062 10.9965 6.68062C11.3286 6.27036 11.5927 5.94129 11.5854 5.94558C11.5906 5.9419 11.5955 5.93823 11.6028 5.9324C11.6047 5.93057 11.6065 5.92934 11.6081 5.92781C11.6093 5.92689 11.6445 5.90023 11.6914 5.86408C11.6914 5.86408 11.6914 5.86408 11.7806 5.79514C12.2576 5.42869 11.9644 5.61161 12.2576 5.42869C12.5514 5.24516 12.1847 5.35546 12.5514 5.24516C12.9182 5.13486 12.9182 5.13486 12.9182 5.13486C13.1602 5.01353 13.4905 4.71663 13.652 4.47427C13.652 4.47427 13.652 4.47427 13.6888 4.36459C13.7255 4.25459 13.7985 4.25459 13.6888 4.10783C13.5791 3.96106 13.4317 4.32812 13.5791 3.96106C13.7258 3.59462 13.6584 3.59462 13.7473 3.44785C13.8355 3.30109 13.5852 3.52078 13.7473 3.11725C13.9091 2.71373 13.9091 2.71373 13.9091 2.71373C13.9697 2.61324 13.9201 2.46464 13.7988 2.38375C13.7988 2.38375 13.7988 2.38375 14.0191 2.23698C14.2394 2.09022 14.2973 2.00749 14.3681 1.9073C14.4385 1.80619 14.4137 1.64105 14.3129 1.54055C14.3129 1.54055 14.3129 1.54055 14.4961 1.43055C14.68 1.32056 14.6429 1.50899 14.7532 1.21301C14.8629 0.916425 14.7532 1.1738 14.8629 0.916425C14.899 0.83278 14.9232 0.776097 14.9395 0.738104C16.7328 1.02121 18.3999 1.68915 19.8531 2.65429C19.8078 2.71649 19.7391 2.79217 19.6402 2.86111C19.4272 3.00787 19.7061 3.3017 19.6402 3.44847C19.5737 3.59523 19.6402 3.81491 19.6402 3.81491C19.6402 3.81491 20.1463 4.21844 20.313 4.29166C20.3905 4.32567 20.4956 4.44854 20.6072 4.59162C20.594 4.61062 20.5863 4.62196 20.5863 4.62196C20.5863 4.62196 20.5535 4.65872 20.313 4.76872C20.0725 4.87872 19.6402 5.09871 19.6402 5.09871C19.6402 5.09871 19.1925 5.24578 19.1558 5.09871C19.119 4.95194 18.789 4.87872 18.789 4.87872C18.789 4.87872 18.6423 4.73195 18.459 4.65842C18.2752 4.58488 18.0552 4.40135 18.0552 4.40135C18.0552 4.40135 17.7252 4.29136 17.5781 4.43812C17.4314 4.58488 16.9914 4.69549 16.9182 4.95194C16.8446 5.2087 16.7343 5.46607 16.6979 5.61222C16.6608 5.75899 16.2208 6.30927 16.0741 6.45573C15.9273 6.60249 15.7441 6.89632 15.8538 7.04308C15.9641 7.18985 16.2573 7.55691 16.3676 7.48368C16.4776 7.41014 16.4776 7.41014 16.4776 7.41014L16.9914 7.7769C16.9914 7.7769 17.4139 6.87212 17.386 6.86599C17.3578 6.85955 17.2209 6.34542 17.3995 6.23574C17.5781 6.12574 17.6881 5.57515 17.7984 5.68514C17.9087 5.79514 17.6517 6.60218 17.6517 6.60218L18.2755 6.86568C18.2755 6.86568 18.7155 6.65151 18.5323 6.86568C18.349 7.07924 18.0187 7.29984 17.982 7.40953C17.9452 7.51953 17.3863 8.14334 17.3863 8.14334H16.9185C16.9185 8.14334 16.5146 7.99658 16.2579 8.14334C16.0011 8.29011 15.487 8.80363 15.487 8.80363V9.31745C15.487 9.31745 15.1206 9.09715 15.047 9.31745C14.9735 9.53775 15.047 9.81136 15.047 9.81136L15.1938 10.1242C15.1938 10.1242 15.1221 10.2627 14.846 10.3034C14.5703 10.3445 14.4964 10.0828 14.4235 10.3056C14.35 10.528 14.4235 10.8583 14.4235 10.8583L14.3907 11.2781C14.3907 11.2781 14.5703 10.7076 14.5335 11.2781C14.4967 11.8486 14.7906 11.3718 14.4967 11.8486C14.2035 12.3253 14.4967 11.9586 14.2035 12.3253C13.91 12.6921 13.91 12.8422 13.6897 13.1523C13.4691 13.4633 13.4011 13.7933 13.2702 13.8846C13.1394 13.9768 13.2908 14.0503 13.2702 14.1968C13.2497 14.3435 13.2702 14.7835 13.2702 14.7835C13.2702 14.7835 13.5429 15.3341 13.6165 15.4441C13.6897 15.5547 13.7265 15.6647 13.8735 15.8479C14.02 16.0315 14.02 16.0315 14.02 16.0315C14.02 16.0315 14.3503 15.9215 14.4606 16.0315C14.5709 16.1415 14.5706 16.1415 14.5706 16.1415C14.5706 16.1415 14.9741 16.1415 15.0844 16.1415C15.1941 16.1415 15.2679 16.2147 15.3776 16.1415C15.4873 16.0676 15.7811 15.9579 15.7811 15.9579L16.2217 16.1733L16.5885 16.3247C16.6985 16.6176 16.515 16.9847 16.625 17.1314C16.7349 17.2782 16.992 17.6455 17.1023 17.6455C17.212 17.6455 17.387 17.7923 17.387 17.7923V18.4884L17.2123 18.892L17.1758 19.1129C17.1758 19.1129 17.1026 19.4793 17.1758 19.6999C17.2488 19.9199 17.2895 20.4334 17.4161 20.5431C17.5426 20.6531 17.6155 21.0202 17.6155 21.0202L17.9094 21.6443C17.9094 21.6443 18.5693 21.424 18.7899 21.3508C19.0099 21.2775 19.1935 21.0934 19.3402 20.7267C19.487 20.3602 19.5017 19.9567 19.6411 19.8467C19.7802 19.7367 19.9637 19.5529 20.1105 19.3693C20.2573 19.1858 20.5872 18.7458 20.624 18.5984C20.6608 18.452 20.5508 17.5346 20.5508 17.5346C20.5508 17.5346 20.4776 17.2779 20.624 17.1311C20.7708 16.9844 21.2478 16.4708 21.3211 16.3244C21.3943 16.1773 21.8716 15.5906 21.9081 15.4803C21.9449 15.3703 22.0178 14.8561 21.9081 14.9294C21.7981 15.0035 21.3578 15.2232 21.3578 15.2232C21.3578 15.2232 21.0275 14.7458 21.174 14.7826C21.3207 14.8197 21.9081 14.6977 22.2384 14.4652C22.5684 14.2326 23.0087 13.7191 23.0087 13.7191V13.1514C23.0087 13.1514 22.8251 13.0218 22.7151 12.9853C22.6055 12.9485 22.2752 12.9118 22.2752 12.9118L21.9813 12.6547C21.9813 12.6547 21.2475 12.1779 21.5043 12.2144C21.761 12.2509 22.7513 12.6547 22.7513 12.6547C22.7513 12.6547 23.3754 12.6912 23.4854 12.6547C23.5954 12.6179 24.2192 13.0613 24.3292 13.1514C24.4392 13.2421 24.7324 13.682 24.8792 13.8836C25.026 14.0859 25.3198 14.4649 25.3198 14.4649C25.3198 14.4649 25.3216 14.4725 25.3247 14.486C24.5854 20.6344 19.3405 25.4126 13 25.4126Z" fill="#1E0039"/>
</svg>
