<svg xmlns="http://www.w3.org/2000/svg" xmlns:xlink="http://www.w3.org/1999/xlink" version="1.1" x="0px" y="0px" viewBox="0 0 100 125" style="enable-background:new 0 0 100 100;" xml:space="preserve"><path d="M37.8,57.1c0,0,19.5-11.7,30.5-7.1c2.3-3.5,4.5-7.2,6.7-11c-10.7-2.6-25-0.3-25-0.3s18.2-10.9,29.3-7.5  c2.2-4,4.4-8,6.5-11.7C77,19,68.4,20.4,68.4,20.4s11.4-6.8,21.7-8C93.3,7.1,96.3,3,99,1C45.3,1,13.3,62.3,1,99h6.1l18.4-30.6  c0,0,6.1,6.1,24.5,0c4.4-1.5,8.7-5.5,13-10.9C52.2,54.7,37.8,57.1,37.8,57.1z"/><text x="0" y="115" fill="#000000" font-size="5px" font-weight="bold" font-family="'Helvetica Neue', Helvetica, Arial-Unicode, Arial, Sans-serif">Created by Graphik Designz</text><text x="0" y="120" fill="#000000" font-size="5px" font-weight="bold" font-family="'Helvetica Neue', Helvetica, Arial-Unicode, Arial, Sans-serif">from the Noun Project</text></svg>